<mxfile host="Electron" modified="2023-06-19T12:07:27.692Z" agent="Mozilla/5.0 (Macintosh; Intel Mac OS X 10_15_7) AppleWebKit/537.36 (KHTML, like Gecko) draw.io/21.4.0 Chrome/112.0.5615.204 Electron/24.5.1 Safari/537.36" etag="AgTTDxBR7h_XnjhstE8u" version="21.4.0" type="device">
  <diagram name="Devops Toolkit" id="Gkwb-_e4V93LuIb2KdPb">
    <mxGraphModel dx="1569" dy="574" grid="1" gridSize="10" guides="1" tooltips="1" connect="1" arrows="1" fold="1" page="1" pageScale="1" pageWidth="827" pageHeight="1169" math="0" shadow="0">
      <root>
        <mxCell id="0" />
        <mxCell id="1" parent="0" />
        <mxCell id="qWI3q21pzQxJFVz8nfI1-5" value="Server contents" style="points=[[0,0],[0.25,0],[0.5,0],[0.75,0],[1,0],[1,0.25],[1,0.5],[1,0.75],[1,1],[0.75,1],[0.5,1],[0.25,1],[0,1],[0,0.75],[0,0.5],[0,0.25]];outlineConnect=0;gradientColor=none;html=1;whiteSpace=wrap;fontSize=12;fontStyle=0;container=1;pointerEvents=0;collapsible=0;recursiveResize=0;shape=mxgraph.aws4.group;grIcon=mxgraph.aws4.group_on_premise;strokeColor=#5A6C86;fillColor=none;verticalAlign=top;align=left;spacingLeft=30;fontColor=#5A6C86;dashed=0;" vertex="1" parent="1">
          <mxGeometry x="120" y="170" width="339" height="417.5" as="geometry" />
        </mxCell>
        <mxCell id="qWI3q21pzQxJFVz8nfI1-21" style="edgeStyle=orthogonalEdgeStyle;rounded=0;orthogonalLoop=1;jettySize=auto;html=1;entryX=0.5;entryY=0;entryDx=0;entryDy=0;entryPerimeter=0;startArrow=classic;startFill=1;strokeWidth=2;" edge="1" parent="qWI3q21pzQxJFVz8nfI1-5" source="qWI3q21pzQxJFVz8nfI1-23" target="qWI3q21pzQxJFVz8nfI1-20">
          <mxGeometry relative="1" as="geometry">
            <Array as="points">
              <mxPoint x="80" y="132" />
              <mxPoint x="80" y="180" />
              <mxPoint x="35" y="180" />
            </Array>
          </mxGeometry>
        </mxCell>
        <mxCell id="qWI3q21pzQxJFVz8nfI1-6" value="Data Collector" style="verticalLabelPosition=bottom;sketch=0;html=1;fillColor=#A153A0;strokeColor=#ffffff;verticalAlign=top;align=center;points=[[0,0.5,0],[0.125,0.25,0],[0.25,0,0],[0.5,0,0],[0.75,0,0],[0.875,0.25,0],[1,0.5,0],[0.875,0.75,0],[0.75,1,0],[0.5,1,0],[0.125,0.75,0]];pointerEvents=1;shape=mxgraph.cisco_safe.compositeIcon;bgIcon=mxgraph.cisco_safe.design.blank_device;resIcon=mxgraph.cisco_safe.design.flow_collector_2;rotation=0;" vertex="1" parent="qWI3q21pzQxJFVz8nfI1-5">
          <mxGeometry x="212" y="204" width="50" height="45" as="geometry" />
        </mxCell>
        <mxCell id="qWI3q21pzQxJFVz8nfI1-15" value="" style="shape=image;verticalLabelPosition=bottom;labelBackgroundColor=default;verticalAlign=top;aspect=fixed;imageAspect=0;image=data:image/png,iVBORw0KGgoAAAANSUhEUgAAAOEAAADhCAMAAAAJbSJIAAAA8FBMVEX///8JPSoKPyoALhUDPSmisKzz+PgRNyz//v8ANh4NPStqgntufnr8//79/v///f/Y4NsAJgAAOCMALhgAIgAANR1TbGJTZlwAIwAJPygAPCQLQSoAHQAAIADj6+pDW1EAGAAeQzMAKgwAOh8AMRYAEgAANSYALRcAJwxOal5kd28nTT1hfXKJpZsALBs8VkvBzMiZpaFocW4AJxRFX1WDlo43UkZ2gnwAQSR1kIYlQDVcc2p4k4pshXyoubTZ4NrE2NPL0tBJVlDm8+8ADACus7EAJReRnZoMMCIAAAA3S0G4zcYiPDExVENbaWKluLCsotIxAAALlElEQVR4nO2bC1viyBKGmw7EEE0n01wkCUQJjES8AMNFB0dW9Oy6Z1xn//+/OVXdQcXR1Zkh6Nmn3pkHQ679dXVXV3UaxgiCIAiCIAiCIAiCIAiCIAiCIAiCIAiCIAiCIAiCIAiCIAiCIAiCIAiCIAiCIAiCIAji/xcLeOsyrAEh3roEWeI4b12CLHGZcBmL+oX3Qj+CbuOssEUJ12UXo47xLmi320ZnOJqzVfoFx3XGH+Vpzrbt3HvAztny43iFAqG2xjX+TkCF+Df8sEKJgvU/8Le22yNsHtb7WLTV4EzkWyv6Ds7lxGGrcvDzuv/ebIgS6xfWqhQO2rlnFGrfAx82fqbdZF0S48GKWqlgmxX76aKjQFuptLFS4U+4Ro3FzdUpLD6jkOdk3kfwS57DBs+vUWF3Zf3wWRuGfm4PyYMB7b29dHttCrdWp/A5GxbP9QlROQzzV3q7W1mjwlXxrMJKV8dOXjnkNsaK8K1b/DcphJ6g0kavzH3571R4CFkV5FVew/fzEW4LdvivaqULb+aVwZ1GuOVkpfCJAqxboVQKM7Lhk7HE2m1o6pPPM1DI30ChShTtyqE+ARRyu3uiuP2nAXG5oK8L8vBRHFvp4+w0W4U6WQNPIxYKeQUpleTyKcvVD3kdfMVd/Ime9UQqmKrDyPC7+shWoZSVTqdUvleYC09PgyDw8/z+FFkqdTqV5cwrDzsR+Tghs9VBWerARXBULl1hGAbse1SIbBTqv5Vhs/r56OjofJz2wxq3c83mxkZz4y9b2ShfSqbVwyM8ZzQcqst4vpgkx5Pq2ZHavb2RyLS16zvLZDjdrn5RB8/2D46HBtQW3GjY2xzMZoWjs2Yi16AQixI0zm6ipRN++wDNyIsQ8zDg4Wl5Mr4wF0e98TDM2b6cdgcX0d1eFvV34kXX4mE7rha8B3c1o4tCk/PA2PQWwefVzU7iZ64QuoNxMGfMFfjcRfLigcJ8WrzDip+fzlGIEHiSA4Fd/zj0g5EJWy4TusACvjjXu3xRaece7r2blXWExead0Lj1mKV3qgsKZZ6xQtv2O2cmlNJyBbufBAeFezDigyQYDyUPLuEMjHXwQ2Bhr0t+scocy8H9+hqBc5TjRN3YmHpYacIVdwqB6mlr22Sua6mngFAICvv1fMY25MGOA8WHgkK5hSq9VmhrhQ7EpUohbKJCZUWHRUNf7kMRhQU7BNaMo4wpdgKeCyvbpq4SjPp0DYCqeS2YOihMgEb4gA3hslnC7SwVcv/4imFJxdKLGlS4l8Y0oFBe6oDcjCKhim45G6gQjy9mqtMp60LMw8qOiV/RpuoW6Rlnrfoc/zqO2m+BTlDpfKv4mSqMC1irLjzUu97a2pqnvvROIeQWLVTIzPlJd2LbO6ofCdYLQKGF/Uv0T7a2TjzdH615DJUWgW1dsI/jDbY+RWp6yZnP4laXoTZoCoVPn04i7PtQWV4nzFJhfsOEAoNCNjbalfaHM33CI4XBpfmlWWtXpAySE3QQgu1IbUPLMnfblUq77GnDRNKujHWlsaiaGK2yh+YHoydhTZkQ2vtZrVI0jj3XRa/lbMvMFEJQUTrBKoWiDnaxrVQWIz6OFve5BfeTkh9yPyhWaif6FiMpt/Vxs5OH8bJ9rq1vNoPhlU7Boo9wJe94TDmjSRBMwc2g/QsNtFrlVp1m4cxfhgqNgi6N2fHD5xQWQaEPo0PcmW6ff+k/rRA9q1ZYHDGtqVqEh/DkTmFlkwl0oM5EBTP8P3gEdvXjLFtpx3OVf5yVVXd/zoZhWOpUf/fuR3dspUsKg6rebzbja+WMWFTCOuMG9lBQ2AuMMQ4vcEGiO16MtQs38EpZKixFlrJhIVaz4E8r5Nzf/Yzf0L/jECnuFTKtMAcKhVZY74MHgZO0adCGygmBwoJW2MdRHiqlNdbN1LTzWSmEeKYU6SZVaPO0lbJlhRaMFqH/Rx99CkQhQo9xDxRaZgkVtu5sWO8zPdDFKnkAhUr6TmDMmBpt+zWVdPitE91+M1cotA05f05hxa7NIBKB2nbx1aN4QWGjj6O/CzZU7WRJoaMUNnIh5lKpQsfcW4fC2Ydc7kmFONcm92HosqB0V7NB95vpLLXSJ22IL9IvYhWrJHN9ABRea4WRwX00Yqy9nDM3MlSYS2508GkmPr6hKOoxGRXmFv2w24pnGGMydvRn0mk3TfacQuWUm40b1e8s8+A0hDoEhaqn7wTtsWrlrsB3e7YNvtRSniZbXwr1qp1HYTf0w7B4b8MHCmuehafMdzm3g4l2qM8rNM5xVhlb/q4Pj4nn+sBlEIwcpZANEriRHRwwrfBLduMhgHE32Ae6TeHPRsmopTHNbw98aRfCEqwG9nstBIVfX1IY9HQmIdhgmMTJf+coBBX6ieoS0KOr5dZpPPRwdGTCvA0yjUshkkIbQs1G/fH4yLMWucUDGzY8R7XkSTlO4scKGSrMPVTYUCOgY8It57O55yxsGBpqpIRMzRx82xl7lquabz/JNC7lsofe0Xm0OspL/KC5yC1a5b4yg2v2b27muBdMvhO09p00HMIb3SmcBhI6c5qFpSiFkvNjE1qLzhgtVXv46EuZqUJILsY4Eoh7iWpWHxQepBHMt9PWZ+V/7hMsVAge1k0V4r2CO4VhbgieSScU96DCXKmLQZuuOLgbZors2rjL8rNR6IflzyoFvpOoFNb8oKeKAkVrhXX1ksZJM3xVwJ2guM+esmHT5/nhDWPfK4RxvjF20nRR4CIojPjruVy2CjGumvShvahkTWAOzphSuJ+2pEmQy08jNSkhdECDCYFqpepm0A+1QjzdNf/K53guGQgtUGB2r0d8iRN7SdfEsVIFN9AkzHGN30/PZTdfKuujgXeVzqg4ZjQvHBY5jl4MiyJ9HsqN67sZMvB+kXdxC/mhqYiOlcLFt6avau1rwTMxIosGqfPqKY/JO38NFk9iV39/HT6cFs5wRpgHRtLcuex+3twe9Q6M2IBgO5nhwO4Is47z2n671KuOgc9no9Fts5EEoc8PNAHey7en+htXCsMgNm5Ho1FPfvR0WjXRYwLPG7J6XZgVCtdndrw8J5yhQpzlzEvIbyvFYhD4OEfvS9NV4/G8xvFkTH/bSLEogwCn5GEPbAWBKqXt+zLAf4FexgXRg4/HZN7QCq/2fDt9Vthqt+PYaLceL+pZx7snVQS1BOvDgOlJv0LnR9eboM3Vawn4DGH8d4UrwDs/OueN3q4tnh9WviovAf97P7xAzDZaGNRDVASm3L2BUA1cyyx++ObmLd6uLSssX5pMzw72hz9qQnk2/1ZPKjLAdr07gMETZ13PW0uPfGOFsjx21ZwR/N9+/ILoZYXfmBX9fb49ad5ujz0cZHBKoxksnfSmCrk8v8KwC6elIQ34QX2gcDtd7bsY87E1jI1XXLkmhTD4jWYmuhlMOMo/akGlUKRvX3SMABvzV91nbTYMZeOgYEIxzXHZf/a05xXinJSOkCByUVI9+ar7rK8fcp5PmoOo30t+ZmEi9EPVxFUkq8Ldvi1ftZ4cFK5qNftLvhRcfS7OGcE/nvOswh6GnhZ2QZy6Yl53mHvdgvl1KtRvv59afPAyYfBx//rCg1RQmN7Fda/eCu3XLdJYrcKXBOIk0muXj3x3sYwb9b3pdGo36nHAn1p2ka1C8N3tlx/3q+SRH7skTWdWoXAW++HLD1w7kM6sBsGiGv+JYSBzkshd2U+fTtrv69cIKj9rbzrpe/FfR0S25K904evCDzaiu3Udv66QXfzx3n41U+x4lrU6ha4TTT4G+feD3L2NVvfLXR0wspuz5p8bbw/+gGVj2r1RcdCKUE1BvQs03wsCpxhX9xtS3djT+d1V3fSXUBPNq/xhsl4Hg+u8Vtcwfh60H64NE6saKQiCIAiCIAiCIAiCIAiCIAiCIAiCIAiCIAiCIAiCIAiCIAiCIAiCIAiCIAiCIAiCIAiCyID/AccaOJXL6ulEAAAAAElFTkSuQmCC;" vertex="1" parent="qWI3q21pzQxJFVz8nfI1-5">
          <mxGeometry x="212" y="11.8" width="70" height="70" as="geometry" />
        </mxCell>
        <mxCell id="qWI3q21pzQxJFVz8nfI1-16" value="&lt;font style=&quot;font-size: 9px;&quot;&gt;Notification Hub&lt;/font&gt;" style="verticalLabelPosition=bottom;html=1;verticalAlign=top;align=center;strokeColor=none;fillColor=#00BEF2;shape=mxgraph.azure.notification_hub;pointerEvents=1;" vertex="1" parent="qWI3q21pzQxJFVz8nfI1-5">
          <mxGeometry x="20" y="50" width="30" height="30" as="geometry" />
        </mxCell>
        <mxCell id="qWI3q21pzQxJFVz8nfI1-20" value="Queues" style="outlineConnect=0;dashed=0;verticalLabelPosition=bottom;verticalAlign=top;align=center;html=1;shape=mxgraph.aws3.queue;fillColor=#D9A741;gradientColor=none;" vertex="1" parent="qWI3q21pzQxJFVz8nfI1-5">
          <mxGeometry x="15" y="219" width="40" height="30" as="geometry" />
        </mxCell>
        <mxCell id="qWI3q21pzQxJFVz8nfI1-25" style="edgeStyle=orthogonalEdgeStyle;rounded=0;orthogonalLoop=1;jettySize=auto;html=1;entryX=1;entryY=0.5;entryDx=0;entryDy=0;entryPerimeter=0;startArrow=classic;startFill=1;strokeWidth=2;" edge="1" parent="qWI3q21pzQxJFVz8nfI1-5" source="qWI3q21pzQxJFVz8nfI1-23" target="qWI3q21pzQxJFVz8nfI1-16">
          <mxGeometry relative="1" as="geometry" />
        </mxCell>
        <mxCell id="qWI3q21pzQxJFVz8nfI1-26" style="edgeStyle=orthogonalEdgeStyle;rounded=0;orthogonalLoop=1;jettySize=auto;html=1;entryX=0.5;entryY=0;entryDx=0;entryDy=0;entryPerimeter=0;startArrow=classic;startFill=1;strokeWidth=2;" edge="1" parent="qWI3q21pzQxJFVz8nfI1-5" source="qWI3q21pzQxJFVz8nfI1-23" target="qWI3q21pzQxJFVz8nfI1-6">
          <mxGeometry relative="1" as="geometry">
            <Array as="points">
              <mxPoint x="237" y="128" />
            </Array>
          </mxGeometry>
        </mxCell>
        <mxCell id="qWI3q21pzQxJFVz8nfI1-35" style="edgeStyle=orthogonalEdgeStyle;rounded=0;orthogonalLoop=1;jettySize=auto;html=1;startArrow=classic;startFill=1;strokeWidth=2;" edge="1" parent="qWI3q21pzQxJFVz8nfI1-5">
          <mxGeometry relative="1" as="geometry">
            <mxPoint x="160" y="127.5" as="sourcePoint" />
            <mxPoint x="245" y="66" as="targetPoint" />
            <Array as="points">
              <mxPoint x="246" y="128" />
            </Array>
          </mxGeometry>
        </mxCell>
        <mxCell id="qWI3q21pzQxJFVz8nfI1-23" value="DevOps Server" style="outlineConnect=0;dashed=0;verticalLabelPosition=bottom;verticalAlign=top;align=center;html=1;shape=mxgraph.aws3.lambda;fillColor=#F58534;gradientColor=none;" vertex="1" parent="qWI3q21pzQxJFVz8nfI1-5">
          <mxGeometry x="110" y="103" width="50" height="57" as="geometry" />
        </mxCell>
        <mxCell id="qWI3q21pzQxJFVz8nfI1-12" style="edgeStyle=orthogonalEdgeStyle;rounded=0;orthogonalLoop=1;jettySize=auto;html=1;strokeWidth=2;" edge="1" parent="1" source="qWI3q21pzQxJFVz8nfI1-6" target="qWI3q21pzQxJFVz8nfI1-1">
          <mxGeometry relative="1" as="geometry">
            <Array as="points">
              <mxPoint x="350" y="610" />
            </Array>
          </mxGeometry>
        </mxCell>
        <mxCell id="qWI3q21pzQxJFVz8nfI1-2" value="VM" style="points=[[0,0],[0.25,0],[0.5,0],[0.75,0],[1,0],[1,0.25],[1,0.5],[1,0.75],[1,1],[0.75,1],[0.5,1],[0.25,1],[0,1],[0,0.75],[0,0.5],[0,0.25]];outlineConnect=0;gradientColor=none;html=1;whiteSpace=wrap;fontSize=12;fontStyle=0;container=1;pointerEvents=0;collapsible=0;recursiveResize=0;shape=mxgraph.aws4.group;grIcon=mxgraph.aws4.group_account;strokeColor=#CD2264;fillColor=none;verticalAlign=top;align=left;spacingLeft=30;fontColor=#CD2264;dashed=0;" vertex="1" parent="1">
          <mxGeometry x="40" y="500" width="130" height="130" as="geometry" />
        </mxCell>
        <mxCell id="qWI3q21pzQxJFVz8nfI1-4" style="edgeStyle=orthogonalEdgeStyle;rounded=0;orthogonalLoop=1;jettySize=auto;html=1;startArrow=classic;startFill=1;strokeWidth=2;strokeColor=#6b6666;" edge="1" parent="qWI3q21pzQxJFVz8nfI1-2" source="qWI3q21pzQxJFVz8nfI1-1" target="qWI3q21pzQxJFVz8nfI1-3">
          <mxGeometry relative="1" as="geometry" />
        </mxCell>
        <mxCell id="qWI3q21pzQxJFVz8nfI1-1" value="VM Agent" style="sketch=0;outlineConnect=0;fontColor=#232F3E;gradientColor=none;strokeColor=#232F3E;fillColor=#ffffff;dashed=0;verticalLabelPosition=bottom;verticalAlign=top;align=center;html=1;fontSize=8;fontStyle=0;aspect=fixed;shape=mxgraph.aws4.resourceIcon;resIcon=mxgraph.aws4.agent;" vertex="1" parent="qWI3q21pzQxJFVz8nfI1-2">
          <mxGeometry x="10" y="90" width="22" height="22" as="geometry" />
        </mxCell>
        <mxCell id="qWI3q21pzQxJFVz8nfI1-3" value="Process" style="verticalLabelPosition=bottom;sketch=0;aspect=fixed;html=1;verticalAlign=top;strokeColor=none;align=center;outlineConnect=0;shape=mxgraph.citrix.process;" vertex="1" parent="qWI3q21pzQxJFVz8nfI1-2">
          <mxGeometry x="60" y="10" width="52" height="62" as="geometry" />
        </mxCell>
        <mxCell id="qWI3q21pzQxJFVz8nfI1-13" value="" style="group" vertex="1" connectable="0" parent="1">
          <mxGeometry x="380" y="500" width="130" height="130" as="geometry" />
        </mxCell>
        <mxCell id="qWI3q21pzQxJFVz8nfI1-7" value="VM" style="points=[[0,0],[0.25,0],[0.5,0],[0.75,0],[1,0],[1,0.25],[1,0.5],[1,0.75],[1,1],[0.75,1],[0.5,1],[0.25,1],[0,1],[0,0.75],[0,0.5],[0,0.25]];outlineConnect=0;gradientColor=none;html=1;whiteSpace=wrap;fontSize=12;fontStyle=0;container=0;pointerEvents=0;collapsible=0;recursiveResize=0;shape=mxgraph.aws4.group;grIcon=mxgraph.aws4.group_account;strokeColor=#CD2264;fillColor=none;verticalAlign=top;align=left;spacingLeft=30;fontColor=#CD2264;dashed=0;" vertex="1" parent="qWI3q21pzQxJFVz8nfI1-13">
          <mxGeometry width="130" height="130" as="geometry" />
        </mxCell>
        <mxCell id="qWI3q21pzQxJFVz8nfI1-9" value="VM Agent" style="sketch=0;outlineConnect=0;fontColor=#232F3E;gradientColor=none;strokeColor=#232F3E;fillColor=#ffffff;dashed=0;verticalLabelPosition=bottom;verticalAlign=top;align=center;html=1;fontSize=8;fontStyle=0;aspect=fixed;shape=mxgraph.aws4.resourceIcon;resIcon=mxgraph.aws4.agent;" vertex="1" parent="qWI3q21pzQxJFVz8nfI1-13">
          <mxGeometry x="10" y="90" width="22" height="22" as="geometry" />
        </mxCell>
        <mxCell id="qWI3q21pzQxJFVz8nfI1-10" value="Process" style="verticalLabelPosition=bottom;sketch=0;aspect=fixed;html=1;verticalAlign=top;strokeColor=none;align=center;outlineConnect=0;shape=mxgraph.citrix.process;" vertex="1" parent="qWI3q21pzQxJFVz8nfI1-13">
          <mxGeometry x="60" y="10" width="52" height="62" as="geometry" />
        </mxCell>
        <mxCell id="qWI3q21pzQxJFVz8nfI1-8" style="edgeStyle=orthogonalEdgeStyle;rounded=0;orthogonalLoop=1;jettySize=auto;html=1;startArrow=classic;startFill=1;strokeWidth=2;strokeColor=#6b6666;" edge="1" parent="qWI3q21pzQxJFVz8nfI1-13" source="qWI3q21pzQxJFVz8nfI1-9" target="qWI3q21pzQxJFVz8nfI1-10">
          <mxGeometry relative="1" as="geometry" />
        </mxCell>
        <mxCell id="qWI3q21pzQxJFVz8nfI1-14" style="edgeStyle=orthogonalEdgeStyle;rounded=0;orthogonalLoop=1;jettySize=auto;html=1;strokeWidth=2;" edge="1" parent="1" source="qWI3q21pzQxJFVz8nfI1-6" target="qWI3q21pzQxJFVz8nfI1-7">
          <mxGeometry relative="1" as="geometry">
            <Array as="points">
              <mxPoint x="350" y="610" />
            </Array>
          </mxGeometry>
        </mxCell>
        <mxCell id="qWI3q21pzQxJFVz8nfI1-18" style="edgeStyle=orthogonalEdgeStyle;rounded=0;orthogonalLoop=1;jettySize=auto;html=1;entryX=0;entryY=0.5;entryDx=0;entryDy=0;entryPerimeter=0;startArrow=classic;startFill=1;strokeWidth=1.5;" edge="1" parent="1" source="qWI3q21pzQxJFVz8nfI1-17" target="qWI3q21pzQxJFVz8nfI1-16">
          <mxGeometry relative="1" as="geometry" />
        </mxCell>
        <mxCell id="qWI3q21pzQxJFVz8nfI1-17" value="notification" style="sketch=0;outlineConnect=0;gradientColor=none;fontColor=#545B64;strokeColor=none;fillColor=#879196;dashed=0;verticalLabelPosition=bottom;verticalAlign=top;align=center;html=1;fontSize=12;fontStyle=0;aspect=fixed;shape=mxgraph.aws4.illustration_notification;pointerEvents=1" vertex="1" parent="1">
          <mxGeometry x="-60" y="130" width="100" height="81" as="geometry" />
        </mxCell>
        <mxCell id="qWI3q21pzQxJFVz8nfI1-29" style="edgeStyle=orthogonalEdgeStyle;rounded=0;orthogonalLoop=1;jettySize=auto;html=1;startArrow=classic;startFill=1;strokeWidth=2;" edge="1" parent="1" source="qWI3q21pzQxJFVz8nfI1-15" target="qWI3q21pzQxJFVz8nfI1-28">
          <mxGeometry relative="1" as="geometry" />
        </mxCell>
        <mxCell id="qWI3q21pzQxJFVz8nfI1-30" value="" style="group" vertex="1" connectable="0" parent="1">
          <mxGeometry x="480" y="120" width="125.60000000000002" height="64.1" as="geometry" />
        </mxCell>
        <mxCell id="qWI3q21pzQxJFVz8nfI1-27" value="" style="verticalLabelPosition=bottom;shadow=0;dashed=0;align=center;html=1;verticalAlign=top;strokeWidth=1;shape=mxgraph.mockup.containers.userMale;strokeColor=#666666;strokeColor2=#008cff;" vertex="1" parent="qWI3q21pzQxJFVz8nfI1-30">
          <mxGeometry width="60" height="64.1" as="geometry" />
        </mxCell>
        <mxCell id="qWI3q21pzQxJFVz8nfI1-28" value="" style="image;points=[];aspect=fixed;html=1;align=center;shadow=0;dashed=0;image=img/lib/allied_telesis/computer_and_terminals/Personal_Computer.svg;" vertex="1" parent="qWI3q21pzQxJFVz8nfI1-30">
          <mxGeometry x="80" width="45.6" height="61.800000000000004" as="geometry" />
        </mxCell>
        <mxCell id="qWI3q21pzQxJFVz8nfI1-31" style="edgeStyle=orthogonalEdgeStyle;rounded=0;orthogonalLoop=1;jettySize=auto;html=1;startArrow=classic;startFill=1;strokeWidth=2;" edge="1" parent="1" source="qWI3q21pzQxJFVz8nfI1-23" target="qWI3q21pzQxJFVz8nfI1-7">
          <mxGeometry relative="1" as="geometry">
            <Array as="points">
              <mxPoint x="260" y="600" />
            </Array>
          </mxGeometry>
        </mxCell>
        <mxCell id="qWI3q21pzQxJFVz8nfI1-32" style="edgeStyle=orthogonalEdgeStyle;rounded=0;orthogonalLoop=1;jettySize=auto;html=1;startArrow=classic;startFill=1;strokeWidth=2;" edge="1" parent="1" source="qWI3q21pzQxJFVz8nfI1-23" target="qWI3q21pzQxJFVz8nfI1-1">
          <mxGeometry relative="1" as="geometry">
            <Array as="points">
              <mxPoint x="260" y="600" />
            </Array>
          </mxGeometry>
        </mxCell>
        <mxCell id="qWI3q21pzQxJFVz8nfI1-37" style="edgeStyle=orthogonalEdgeStyle;rounded=0;orthogonalLoop=1;jettySize=auto;html=1;entryX=0;entryY=0.5;entryDx=0;entryDy=0;entryPerimeter=0;startArrow=classic;startFill=1;strokeWidth=2;" edge="1" parent="1" source="qWI3q21pzQxJFVz8nfI1-36" target="qWI3q21pzQxJFVz8nfI1-23">
          <mxGeometry relative="1" as="geometry">
            <Array as="points">
              <mxPoint x="25" y="302" />
              <mxPoint x="140" y="302" />
            </Array>
          </mxGeometry>
        </mxCell>
        <mxCell id="qWI3q21pzQxJFVz8nfI1-36" value="" style="image;aspect=fixed;perimeter=ellipsePerimeter;html=1;align=center;shadow=0;dashed=0;spacingTop=3;image=img/lib/active_directory/databases.svg;" vertex="1" parent="1">
          <mxGeometry y="360" width="50" height="49" as="geometry" />
        </mxCell>
        <mxCell id="qWI3q21pzQxJFVz8nfI1-45" style="edgeStyle=orthogonalEdgeStyle;rounded=0;orthogonalLoop=1;jettySize=auto;html=1;exitX=0.435;exitY=0.975;exitDx=0;exitDy=0;strokeWidth=2;exitPerimeter=0;startArrow=classic;startFill=1;" edge="1" parent="1" source="qWI3q21pzQxJFVz8nfI1-42" target="qWI3q21pzQxJFVz8nfI1-23">
          <mxGeometry relative="1" as="geometry">
            <Array as="points">
              <mxPoint x="257" y="130" />
              <mxPoint x="255" y="130" />
            </Array>
          </mxGeometry>
        </mxCell>
        <mxCell id="qWI3q21pzQxJFVz8nfI1-42" value="Analytics&#xa;" style="swimlane;startSize=0;" vertex="1" parent="1">
          <mxGeometry x="170" y="80" width="200" height="40" as="geometry" />
        </mxCell>
        <mxCell id="qWI3q21pzQxJFVz8nfI1-34" value="" style="shape=image;verticalLabelPosition=bottom;labelBackgroundColor=default;verticalAlign=top;aspect=fixed;imageAspect=0;image=data:image/png,iVBORw0KGgoAAAANSUhEUgAAAOEAAADhCAMAAAAJbSJIAAAAmVBMVEX///9Nq89Nd89Iqc4+bsxFcs7R2vGVyuA7pcx9vtmWrODW3/Pg5vVCp82l0eQ7bMx2u9igz+Pq9Pn0+vzP5vCEwtyNxt5ktNTV6fJasNK12ene7vXD4O1uuNba7PTn8/ijtuS83eu2xelrjNZ9mdrt8fp1k9iIod1+mtpcgtJQetC/zOyywug0aMsjn8mbsOLH0u7m6/dvj9e9++DaAAAJe0lEQVR4nO3da1ujOhAAYEqKxlqkivfLWrfedffo/v8fd6BaW2AyMwkJoTyZb2e3cHh3aMhMgEZRiBAhQoQIESJEiBAhQoQIESJECCAuj3wfgds4EKk8HbCx8I1Go+EaC58YLUMM0viVv1UML49V3+CM+UFa9w3LCPsGY8wPpMo3CGN+qMzfjzE9zX0fpnHkh2j+tj6PjPxtdR4Ln2D6vvO4XUZN39adq/mutu/LuLstedxlDTCQ8e+172NnRr4rTZIoZ1e+j5wfBieqPPvl+6j1Qi+PIr049n3E+qFhTEfb8gWsRc4bc1Jx6ftIzYNhFOmB76MkI8dOsfwUnbylKXYR7Mf1sUiTvMCMR6fK76OQJ8hE5vysD3OA7+FEokOhyij3btUbXc1k+U/g2bgxXMoz1HjSNKIXwJ8NBHoaO47a5YAwVvMo0E9XPizkoR8jMG3BjbfrPAr0AljsuTo4ecmj4nIuz86RjVbGdIRdAA+ACV/neUSmnfKGMuIXwMtGZ3WVxw6NxHSMMO5hZ9zlSD1j78xIlw1C3piVCXeIrzMjrywScqZvvL6gd+3cyC8XijzqlbPHZ5K5Y4dGvbJW6JTsv254vjJSV3nUb02wjbczvu9rxw6MZv0zIfdoIzSjo8J6Hg1bSxwjUnngRpt5NOx/rogz9EiKEslw5/byePfXsP054n0VzzVGmdrO/1pqXxWVmuE/M/PSb2YUaHnZiRGfhleNzKuhI5+RES8A2xqFPLHr0zaKFG3dgMGd1TAvQibBNgp5cWfyP+AZneRvFb9YRrzDe4kdHm10lr9V0Ebcd0cthV6jRuvjCxS4ES/gvwokynihMjrP3yrURnxKfHyx2s7IaN03+U/9d/CYgy9TVy8HxK0JzWrYwfk5yZK5+m+Lgq5xCFherhoFErFsXzVS+ftlsno1SeIkmasPonqu4isQt3v6Od8wUr6rPblLcYAohHFhfFd/YiOP8gY5hdQFINHqvRuVG1Kz98JX7IfQQLEUxvE4+a3+zHce0Qk2XlsSSy/lxYXI3/IQ2ggLY4wYi7IAXXei7x0i2meXaHWyGvLaCUvjm/pzx9gEFOrQA3k0LGXXQ3pbYWF8+TDYhapD34g0PdA3bl6y2gvjONM2Yh16yKi39+pQbkNYGnc0Nqc69O2M9WmVHWFhXHDzyOnQN42CaWxOG20JC+Mj5/tyrJw74yFYxuZ0yqYwThacIzDyfR1qeqjvsyqMM+LLeKTdU6qEnKHdq3PQZ1eYPBLbqQ6CEQJfXEW6jjaFcTaltjRt8VI+5OywKkzu6W1NjITvCj37rQrj8Sdja10j4YuiXXR6ZFeYPLG212nxMrrjh+iX264wzh54e+C2eFnd/06FyYS7D46RPD89COOEXwhQRvbqRsfCucZ+MKO8Ya/edCuMx1p7UhmJ/B1XjrpjIdafAg8WMFK+M3my+d8dC+NX3b3Vyw3aNxJehWOkcaOIzVY9wzfyLNRPYrQ2snzehWOTzlRppFa/119Zz8L4RbXdzmIf2es1fn3YHJJ8C5WV8H6WPZIFFhzVIde3MPmn2G5/HCdGxvqqoW+hshIuhLGBsbkq6l2YPCNCXSO06utdGGdwJfwt1DEqVrW9CxWV8I+wNN4zjKo7E/wL4zFYCW8IOcbrC1V7Qux5F8KVcEVIGdV3lvRCGGdQJVwTYkZ1/voiBCvhhrA0PgOjErV60wch2M4AhMUH/zzX8kivvvVCOAYqYVBYGivTVfD2E2OhkCZPS3OEccwWxuPKRHaPXttgC7WeXdEVApVw10Lj58iYOWwWUR0Lme1Wc2GziOpU2MLHFcaNNeEOhZo3yxsKs3pF35mwpY8tbKwJdyTE3+NgU9iohLsQCgs+vrC+JuxeaPIwRxthvRJ2LbTl0xDWiii3QpGOjB5WaSWsrQm7FAr8bQzOhEnlrn53Qrs+HWG1iHIlTK2/TgoWvoLCeRdCrEAyfRoBsLyDx5+4F54j9w60eRqhHtnnI/TH44173R0JUV+rpxFqh/k5zaDD31hO7Fj49bCKReE0ugf/fF0JdypcPYxjVUglsUPh+mEjq8LoGfyC/qwJdybceO+UZeEnmMSfStiWUEhUWH2Yyq4wegKTuKqE7QiFROef9bdpWBY+QEn8ucXdhrCoH3R81oWKS+XUlpCoH6C3odgWPoCN+3s7Qjp/wHKObaFqvmNBSOQvB30OhDn4TXxqLSTqd/X7Xq0LozmYxIeWQsqnXq2yL8zBwmPSSoj3z/CHbe0L4SSOc3Mh1R88RO+mdiCMwCTOTYV0//OgoxXStfA3eMXIjYTyjO4Pdi+MoH5GuSasLcTfQexR+AZKtIXc9RUPwugF+vs3PSF//ciH8AOivOgIifcOV5prPoRgErOPfbB8BITk+7Fn3oU7kGUxZeVwRr8bW/gXRgvgEwk4F2gIT+n3m/dBCCYR7Io3hJjvu/7rgzBa8Nc2uMJ1fdsLoWpUMRZu1re9EEZgj99YWK3f+yGE28Nmwnp/oh9CuMdvImz2X3oi/FRc/TSFR8BvtfRECLeHNYVw/6wvQrA9rCWEff0Rstf7FUKVr0dCsD3MFap9PRJykwgIMV8Hwo8EOHJImPOS2BBSb2N3Loyi+bhhhIRwZ5ES4vnrSBjlk7oRFILtYUJ4yHgaQUMoDIXFMPKUVQ4fFPKSWKuAGavcfGEqW9zON73fNMLCSD+HnHV8rrD1TwjsL9YXdYUQvlPKrlD58+U2fiJh52VlVAg5SXQjtPYzF2+vY1QI9vjdC43emamK9+WwqhKCPX7XwlRa9JUxL6YASuEHOQG3LdR+HygjHibZH+UTr1B72KHQ6vm5abxXvvMC7Cy6ErrIHx3/iMu+PaGr/FFBdRZtCf3kbxlEEu0I2e+pdRFEErWFo5vNDZZCj/lbBt5ZbC/0mr9lwDee2hJKT+NLJdDOYluh7/wtA01iS2FPAkviMIRYe3gYQqyzOBAheLvbsITqKkp/TtNPoXqw0RVaf9zQWtjJoe/5GRaqNVMdof/5GRrT5mKAnrDP+fuK/B4abrjCnufvOz7iZhp5wu3wlTFppJEh5P1GSV9i/2WsK9wqXxnv1RGHEIr+jy/NqI44uHDr8vcdO68JR1jkr6/zFzrWK+VKoe3XXXQdn48ZKhT9nX+y4/viCAq3PX+rmJQL5YBwKL4ipousKRyQr4y35E9NOCxfEflT5U38N9s/vhDR8nV5IUKECBEiRIgQIUKECBEiRIgQg4v/AeWW3tnJVfCfAAAAAElFTkSuQmCC;" vertex="1" parent="qWI3q21pzQxJFVz8nfI1-42">
          <mxGeometry x="35" y="5" width="30" height="30" as="geometry" />
        </mxCell>
        <mxCell id="qWI3q21pzQxJFVz8nfI1-40" value="" style="shape=image;verticalLabelPosition=bottom;labelBackgroundColor=default;verticalAlign=top;aspect=fixed;imageAspect=0;image=data:image/png,iVBORw0KGgoAAAANSUhEUgAAAZgAAAF+CAYAAAC/JgzKAAAMP2lDQ1BJQ0MgUHJvZmlsZQAASImVVwdYU8kWnluSkEBoAQSkhN4EkRpASggt9N5EJSQBQokxEFTs6KKCaxcL2NBVEQUrzYIidhbF3hcLKsq6WLArb1JA133le/N9c+e//5z5z5lzZ+69A4DacY5IlIeqA5AvLBTHBvvTk1NS6aSngAgwQAYmAOdwC0TM6OhwAMtQ+/fy7jpApO0Ve6nWP/v/a9Hg8Qu4ACDREGfwCrj5EB8EAK/iisSFABClvNmUQpEUwwq0xDBAiBdKcZYcV0lxhhzvldnEx7IgbgdASYXDEWcBoHoJ8vQibhbUUO2H2FHIEwgBUKND7JOfP4kHcTrE1tBGBLFUn5Hxg07W3zQzhjU5nKxhLJ+LrCgFCApEeZxp/2c6/nfJz5MM+bCEVSVbHBIrnTPM283cSWFSrAJxnzAjMgpiTYg/CHgye4hRSrYkJEFujxpwC1gwZ0AHYkceJyAMYgOIg4R5keEKPiNTEMSGGK4QdKqgkB0PsS7EC/kFgXEKm83iSbEKX2hDppjFVPBnOWKZX6mv+5LcBKZC/3U2n63Qx1SLs+OTIKZAbF4kSIyEWBVih4LcuDCFzdjibFbkkI1YEiuN3xziWL4w2F+ujxVlioNiFfZl+QVD88U2ZwvYkQq8vzA7PkSeH6ydy5HFD+eCXeILmQlDOvyC5PChufD4AYHyuWPP+MKEOIXOB1Ghf6x8LE4R5UUr7HFTfl6wlDeF2KWgKE4xFk8shAtSro9nigqj4+Vx4sU5nNBoeTz4MhAOWCAA0IEE1gwwCeQAQWdfYx+8k/cEAQ4QgyzAB/YKZmhEkqxHCK9xoBj8CREfFAyP85f18kER5L8Os/KrPciU9RbJRuSCJxDngzCQB+8lslHCYW+J4DFkBP/wzoGVC+PNg1Xa/+/5IfY7w4RMuIKRDHmkqw1ZEgOJAcQQYhDRBtfHfXAvPBxe/WB1whm4x9A8vtsTnhC6CA8J1wjdhFsTBSXin6KMAN1QP0iRi4wfc4FbQk1X3B/3hupQGdfB9YE97gL9MHFf6NkVsixF3NKs0H/S/tsMfngaCjuyIxkljyD7ka1/Hqlqq+o6rCLN9Y/5kceaMZxv1nDPz/5ZP2SfB9uwny2xhdgB7Ax2AjuHHcEaAR1rxZqwDuyoFA+vrsey1TXkLVYWTy7UEfzD39CTlWaywLHWsdfxi7yvkD9V+o4GrEmiaWJBVnYhnQm/CHw6W8h1GEV3cnRyBkD6fZG/vt7EyL4biE7Hd27eHwB4tw4ODh7+zoW2ArDPHW7/5u+cNQN+OpQBONvMlYiL5BwuvRDgW0IN7jQ9YATMgDWcjxNwA17ADwSCUBAF4kEKmACjz4brXAymgBlgLigF5WAZWA3Wg01gK9gJ9oD9oBEcASfAaXABXALXwB24enrAC9AP3oHPCIKQECpCQ/QQY8QCsUOcEAbigwQi4UgskoKkI1mIEJEgM5B5SDmyAlmPbEFqkH1IM3ICOYd0IbeQB0gv8hr5hGKoCqqFGqKW6GiUgTLRMDQeHY9moZPRYnQ+ugRdi1aju9EG9AR6Ab2GdqMv0AEMYMqYDmaC2WMMjIVFYalYJibGZmFlWAVWjdVhLfA5X8G6sT7sI07EaTgdt4crOARPwLn4ZHwWvhhfj+/EG/B2/Ar+AO/HvxGoBAOCHcGTwCYkE7IIUwilhArCdsIhwim4l3oI74hEog7RiugO92IKMYc4nbiYuIFYTzxO7CI+Ig6QSCQ9kh3JmxRF4pAKSaWkdaTdpFbSZVIP6YOSspKxkpNSkFKqklCpRKlCaZfSMaXLSk+VPpPVyRZkT3IUmUeeRl5K3kZuIV8k95A/UzQoVhRvSjwlhzKXspZSRzlFuUt5o6ysbKrsoRyjLFCeo7xWea/yWeUHyh9VNFVsVVgqaSoSlSUqO1SOq9xSeUOlUi2pftRUaiF1CbWGepJ6n/pBlabqoMpW5anOVq1UbVC9rPpSjaxmocZUm6BWrFahdkDtolqfOlndUp2lzlGfpV6p3qx+Q31Ag6YxRiNKI19jscYujXMazzRJmpaagZo8zfmaWzVPaj6iYTQzGovGpc2jbaOdovVoEbWstNhaOVrlWnu0OrX6tTW1XbQTtadqV2of1e7WwXQsddg6eTpLdfbrXNf5NMJwBHMEf8SiEXUjLo94rztS10+Xr1umW697TfeTHl0vUC9Xb7leo949fVzfVj9Gf4r+Rv1T+n0jtUZ6jeSOLBu5f+RtA9TA1iDWYLrBVoMOgwFDI8NgQ5HhOsOThn1GOkZ+RjlGq4yOGfUa04x9jAXGq4xbjZ/TtelMeh59Lb2d3m9iYBJiIjHZYtJp8tnUyjTBtMS03vSeGcWMYZZptsqszazf3Ng8wnyGea35bQuyBcMi22KNxRmL95ZWlkmWCywbLZ9Z6VqxrYqtaq3uWlOtfa0nW1dbX7Uh2jBscm022FyyRW1dbbNtK20v2qF2bnYCuw12XaMIozxGCUdVj7phr2LPtC+yr7V/4KDjEO5Q4tDo8HK0+ejU0ctHnxn9zdHVMc9xm+OdMZpjQseUjGkZ89rJ1onrVOl01ZnqHOQ827nJ+ZWLnQvfZaPLTVeaa4TrAtc2169u7m5itzq3Xndz93T3KvcbDC1GNGMx46wHwcPfY7bHEY+Pnm6ehZ77Pf/ysvfK9drl9Wys1Vj+2G1jH3mbenO8t3h3+9B90n02+3T7mvhyfKt9H/qZ+fH8tvs9Zdowc5i7mS/9Hf3F/of837M8WTNZxwOwgOCAsoDOQM3AhMD1gfeDTIOygmqD+oNdg6cHHw8hhISFLA+5wTZkc9k17P5Q99CZoe1hKmFxYevDHobbhovDWyLQiNCIlRF3Iy0ihZGNUSCKHbUy6l60VfTk6MMxxJjomMqYJ7FjYmfEnomjxU2M2xX3Lt4/fmn8nQTrBElCW6JaYlpiTeL7pICkFUndyaOTZyZfSNFPEaQ0pZJSE1O3pw6MCxy3elxPmmtaadr18Vbjp44/N0F/Qt6EoxPVJnImHkgnpCel70r/woniVHMGMtgZVRn9XBZ3DfcFz4+3itfL9+av4D/N9M5ckfksyztrZVZvtm92RXafgCVYL3iVE5KzKed9blTujtzBvKS8+nyl/PT8ZqGmMFfYPslo0tRJXSI7Uamoe7Ln5NWT+8Vh4u0FSMH4gqZCLfgj3yGxlvwieVDkU1RZ9GFK4pQDUzWmCqd2TLOdtmja0+Kg4t+m49O509tmmMyYO+PBTObMLbOQWRmz2mabzZ4/u2dO8Jydcylzc+f+XuJYsqLk7bykeS3zDefPmf/ol+BfaktVS8WlNxZ4Ldi0EF8oWNi5yHnRukXfynhl58sdyyvKvyzmLj7/65hf1/46uCRzSedSt6UblxGXCZddX+67fOcKjRXFKx6tjFjZsIq+qmzV29UTV5+rcKnYtIayRrKme2342qZ15uuWrfuyPnv9tUr/yvoqg6pFVe838DZc3ui3sW6T4abyTZ82Czbf3BK8paHasrpiK3Fr0dYn2xK3nfmN8VvNdv3t5du/7hDu6N4Zu7O9xr2mZpfBrqW1aK2ktnd32u5LewL2NNXZ122p16kv3wv2SvY+35e+7/r+sP1tBxgH6g5aHKw6RDtU1oA0TGvob8xu7G5KaepqDm1ua/FqOXTY4fCOIyZHKo9qH116jHJs/rHB1uLWgeOi430nsk48apvYdudk8smr7THtnafCTp09HXT65Bnmmdaz3mePnPM813yecb7xgtuFhg7XjkO/u/5+qNOts+Gi+8WmSx6XWrrGdh277Hv5xJWAK6evsq9euBZ5ret6wvWbN9JudN/k3Xx2K+/Wq9tFtz/fmXOXcLfsnvq9ivsG96v/sPmjvtut++iDgAcdD+Me3nnEffTiccHjLz3zn1CfVDw1flrzzOnZkd6g3kvPxz3veSF68bmv9E+NP6teWr88+JffXx39yf09r8SvBl8vfqP3Zsdbl7dtA9ED99/lv/v8vuyD3oedHxkfz3xK+vT085QvpC9rv9p8bfkW9u3uYP7goIgj5sh+BTBY0cxMAF7vAICaAgANns8o4+TnP1lB5GdWGQL/CcvPiLLiBkAd/H+P6YN/NzcA2LsNHr+gvloaANFUAOI9AOrsPFyHzmqyc6W0EOE5YHPI14z8DPBvivzM+UPcP7dAquoCfm7/Bcy2fDlr/udZAAAAimVYSWZNTQAqAAAACAAEARoABQAAAAEAAAA+ARsABQAAAAEAAABGASgAAwAAAAEAAgAAh2kABAAAAAEAAABOAAAAAAAAAJAAAAABAAAAkAAAAAEAA5KGAAcAAAASAAAAeKACAAQAAAABAAABmKADAAQAAAABAAABfgAAAABBU0NJSQAAAFNjcmVlbnNob3S16wZtAAAACXBIWXMAABYlAAAWJQFJUiTwAAAB1mlUWHRYTUw6Y29tLmFkb2JlLnhtcAAAAAAAPHg6eG1wbWV0YSB4bWxuczp4PSJhZG9iZTpuczptZXRhLyIgeDp4bXB0az0iWE1QIENvcmUgNi4wLjAiPgogICA8cmRmOlJERiB4bWxuczpyZGY9Imh0dHA6Ly93d3cudzMub3JnLzE5OTkvMDIvMjItcmRmLXN5bnRheC1ucyMiPgogICAgICA8cmRmOkRlc2NyaXB0aW9uIHJkZjphYm91dD0iIgogICAgICAgICAgICB4bWxuczpleGlmPSJodHRwOi8vbnMuYWRvYmUuY29tL2V4aWYvMS4wLyI+CiAgICAgICAgIDxleGlmOlBpeGVsWURpbWVuc2lvbj4zODI8L2V4aWY6UGl4ZWxZRGltZW5zaW9uPgogICAgICAgICA8ZXhpZjpQaXhlbFhEaW1lbnNpb24+NDA4PC9leGlmOlBpeGVsWERpbWVuc2lvbj4KICAgICAgICAgPGV4aWY6VXNlckNvbW1lbnQ+U2NyZWVuc2hvdDwvZXhpZjpVc2VyQ29tbWVudD4KICAgICAgPC9yZGY6RGVzY3JpcHRpb24+CiAgIDwvcmRmOlJERj4KPC94OnhtcG1ldGE+CknrcvgAAAAcaURPVAAAAAIAAAAAAAAAvwAAACgAAAC/AAAAvwAAGGcqdhiEAAAYM0lEQVR4AeydCXBd1XnHv7dpsS2veItxbJqA2bIYDNgkLQET07K47VAKExzATjBMUwhpSBjoNJkwLVYNBBM3HZYOCQw2pk5mkkBSDDQQTwoMGJMFEhtKsRFgG2PJluRF0lt6jsASz7qW9O657y7f+z0Qeu+8e875vv//4/107vZSJfMQHiiAAiiAAigQsAIpABOwogyHAiiAAijQqwCAoRBQAAVQAAWqogCAqYqsDIoCKIACKABgqAEUQAEUQIGqKABgqiIrg6IACqAACkQCmA2b2+V3r3fK5rf2ytbtB2RHW7fs7uyRA91F4Zw2ihIFUAAFhqdAKiXSUJeWsaNyMnlcncyY0iCzjhwpn/zYKJkza/TwBqniVqEB5ufPvSePb9gl63/bJvu7ilVMiaFRAAVQAAUa69PyZ58aJwvmTJDz5h4RiSBVBcy7u7vlwSe2ydqnd0hbRz6SBJkUBVAABWpdgXFNWbnoc5Nl0eenyqSxdaHJURXAdPUU5fs/aZF7H32bXV6hWclEKIACKDC4AnaX2pXnT5Ov/NV0qc+lB984gHcDB4zdFXbbw1tl266uw4Y3dUKdnHJMk5xw1Aj5k6kN8pEj6mT8qKzZl5gRKwAPFEABFECBoRWwx6wPdBektTMv77zXLf+37YC88sY+eeHVDvMZ3H3YAaZOqJfrL55R9V1ngQLm2z94XR5+aodnUnaJtvD0CfL5k8fKiTNHem5DIwqgAAqgQDAKvLxlrzzx4m752TO7DnuI4uIzJ8t3Fn8smAk9RgkEMC3vHpBv3PWa/OZ/OwZMYVcrV5wzWf72jImsTgaoQwMKoAAKVFcBu8r5z1/tlB+u2+G5qvn0x5vk1quPlumTGgIPxBkwv3+jU6793mbPXWJXXzBVrjp/KmAJ3DYGRAEUQIHKFLCgufvRbXLXI9sGdLS7zL537Sz5xFGjBrzn0uAEGAuXpbf9YcDy63izC+ymLxzJrjAXZ+iLAiiAAlVQwO46u2X1W/IH8/vDD3sY457rjw8UMr4BY3eLXbbslQErl4XzJsh3rpjBquXDzvEcBZQqUCqWpFAsSndXj/Tk43UpQi5rThxqrJN0uvpnSyXNXrua+fYPt8rPnt1VFrpdyTxw4wmB7S7zDZhLbv79gGMul5tjLV+7cFpZwLxAARTQq0C+pyAHurql9b09snt3h6TSKbH/xOHR1DRCpk47QurqcnEIJ5Yx3PHjt+V+c2zmww97TGbNtz7x4Sbfz30BxutsMeDi2wM6okBiFdi7d7+0tbbL+vUbZcMLmwxg7Id5HFYMaTn22Bly4d98RsaPj/6WKXE22AsyQZ1dVjFg7HUuX//3V8v0srvFbl48o6yNFyiAAvoVaGvbIy0t22XlyrXy4IPrzNql0SQd5YrB7PvpfeRkwTlzZMWKq2TmzEkftPHrcAp86wcDd5fd/nfHOF8nUxFg7BX6f/7Nl8qOu9gD+qtunMUxl8M5RzsKKFagHzA/kVWr/lvq0w2SSWUjy9h+A3zJ3OowZSA3f8FJcuuKL8mMmRMjiycpE9tjMpcu21x24N8ej3ls+WynK/4rAsx3126Vex55u0yzB2+axdliZYrwAgVqR4F+wDwiq1c9LSOy9ZJNZyIToFQQKZqftGTkrAWzpXnFYvkogBmWH/bsskW3bC7bdukF0+QfLvK/d2rYgLE3rjzjqxvK7i1mr3OxPzxQAAVqUwEAo8t3e43Mh6+Tsbfu+tWdc3zfIHPYgDl09WKv0P/FLSeya0xXfZENClSkAICpSK7Yb2x3lZ1708tlV/y7rGKGDZh5X3m+7ILKG78wXS7+HPs2Y18xBIgCVVQAwFRR3IiGfvjpnbJsdUvf7PYCzGe/f2rf60qeDAswh545Zif85W2fZPVSidJsiwIKFQAw+ky1q5izrv9d2YLC7xllwwLMV/9ts6x7vv+KT6550VdUZIQCfhQAMH5Ui3+fQ6+NOefUCXLn38+qOPBhAWb2lc+Vfc0xZ45VrDMdUEClAgBGpa1y6Bll9uuXX7p3bsXJDgmYDZvbZdG/vNw3sD24/1/LTux7zRMUQIHaVQDA6PX+L24sP9j/4D+eKHNmVXZXhCEBc98v3pHla7b0qchV+31S8AQFal4BAKO3BA69uv+bl8yUJed+pKKEhwTMDfe8Jj/99c6+QTl7rE8KnqBAzSsAYPSWwKFnk/3lZyfKvy49uqKEhwTMoXdNvvfrR8sps5oqmoSNUQAFdCoAYHT6arN6YXOHXHn7a30J+rnL8pCAOfNrL5bde+zny06QaeYeNTxQAAVQAMDorYG3d3XJeTe+0pegvTfZU3ec3Pd6OE+GBMyhZ5A9u/JT0lgf3b2GhpMU26AACoSjAIAJR+coZtnfVZB51/y2b2o/Z5INCZjjLn+m7P5jL919EhdY9knOExSobQUAjF7/7QWXs6/a2JegvS/ZH+8/ve/1cJ4MCZhjL3umbJzf3HNS2WteoAAK1K4CAEa3959e2g8Ym+mmBwCMbscTnF3RfH+7iP2J0yNlvrM9Hl/xGydVhhsLgBmuUsncDsAk07eaitqCpVAoSmfnXtm/rytWuTc21smYsU0GMnH4mt9YSTOsYADMsGRK7EYAJrHW1U7g3d15ObC/S1555XXZsmWbSdx+mMdj1TB9+iQ56eRZYkGTsjuZeVSkAICpSK7EbQxgEmdZ7QXc2bFPWls75K67fySPPvo/RgB7mnt0X6vbv5suI/Pnz5YbbrhEJk4cLZkMq5hKqxPAVKpYsrYHMMnyqyajbd/TKTvf3S23LHtAHlrzpGRTjZKO+Hvb7aGgVCoj5y+cJ823fkmmTBkr2Syn31daoACmUsWStT2ASZZfNRltP2AekofXPGW+t71RMhF/b3upaHbUmRXLuQtPk5ubL5fJU8YAGB/VCWB8iJagLgAmQWbVaqgARq/zAEavtzYzAKPbXxXZARgVNnomAWA8ZVHTCGDUWKk3EQCj11sAo9dbmxmA0e2viuwAjAobPZMAMJ6yqGkEMGqs1JsIgNHrLYDR663NDMDo9ldFdgBGhY2eSQAYT1nUNAIYNVbqTQTA6PUWwOj11mYGYHT7qyI7AKPCRs8kAIynLGoaAYwaK/UmAmD0egtg9HprMwMwuv1VkR2AUWGjZxIAxlMWNY0ARo2VehMBMHq9BTB6vbWZARjd/qrIDsCosNEzCQDjKYuaRgCjxkq9iQAYvd4CGL3e2swAjG5/VWQHYFTY6JkEgPGURU0jgFFjpd5EAIxebwGMXm9tZgBGt78qsgMwKmz0TALAeMqiphHAqLFSbyIARq+3AEavtzYzAKPbXxXZARgVNnomAWA8ZVHTCGDUWKk3EQCj11sAo9dbmxmA0e2viuwAjAobPZMAMJ6yqGkEMGqs1JsIgNHrLYDR663NDMDo9ldFdgBGhY2eSQAYT1nUNAIYNVbqTQTA6PUWwOj11mYGYHT7qyI7AKPCRs8kAIynLGoaAYwaK/UmAmD0egtg9HprMwMwuv1VkR2AUWGjZxIAxlMWNY0ARo2VehMBMHq9BTB6vbWZARjd/qrIDsCosNEzCQDjKYuaRgCjxkq9iQAYvd4CGL3e2swAjG5/VWQHYFTY6JkEgPGURU0jgFFjpd5EAIxebwGMXm9tZgBGt78qsgMwKmz0TALAeMqiphHAqLFSbyIARq+3AEavtzYzAKPbXxXZARgVNnomAWA8ZVHTCGDUWKk3EQCj11sAo9dbmxmA0e2viuwAjAobPZMAMJ6yqGkEMGqs1JsIgNHrLYDR663NDMDo9ldFdgBGhY2eSQAYT1nUNAIYNVbqTQTA6PUWwOj11mYGYHT7qyI7AKPCRs8kAIynLGoaAYwaK/UmAmD0egtg9HprMwMwuv1VkR2AUWGjZxIAxlMWNY0ARo2VehMBMHq9BTB6vbWZARjd/qrIDsCosNEzCQDjKYuaRgCjxkq9iQAYvd4CGL3e2swAjG5/VWQHYFTY6JkEgPGURU0jgFFjpd5EAIxebwGMXm9tZgBGt78qsgMwKmz0TALAeMqiphHAqLFSbyIARq+3AEavtzYzAKPbXxXZARgVNnomAWA8ZVHTCGDUWKk3EQCj11sAo9dbmxmA0e2viuwAjAobPZMAMJ6yqGkEMGqs1JsIgNHrLYDR663NDMDo9ldFdgBGhY2eSQAYT1nUNAIYNVbqTQTA6PUWwOj11mYGYHT7qyI7AKPCRs8kAIynLGoaAYwaK/UmAmD0egtg9HprMwMwuv1VkR2AUWGjZxIAxlMWNY0ARo2VehMBMHq9BTB6vbWZAZgE+lssluTAgS4p5AuxiL5koiiVSpLLZaUul5N0Ji3pdCqw2GoNMNbfQqEgXV09VlhJpYLT0tWUuvpcr8+u4xzsD2AOKqHzN4BJoK89PXnZ+W6b7N27PxbRW7gUinlpaholY8eMlvqGYD+EagkwRkrJmz8c9u07IG2tewxoipLJZGLhs8Xc+AmjpWn0yMDiATCBSRnLgQBMLG0ZPKjW1nZZu3a9bNr0ptmw+MHGEf6VWypIsdQtp8w5Ts4442QZP360jBw1YvAkKni3lgBTLBalvX2vbN60VR5/4jnZ3bbPrGByFahVjU3tGjUtqXRWLrzwMzJ37nGBTQJgApMylgMBmFjaMnhQW7bskOuuu0seX7fBbPjBbrIod6OU8lKSfbJo0TlyzTUXyfTpU2TcuDGDJ1HBu7UEGLt62bF9lzz55POyrPl+eXPrLpFUYwVqBbypZUvvHzFZyWTr5c47l8qSJQsCmwTABCZlLAcCMLG0ZfCgtm55V66/7j/kiXUbJZ0qmL8sU70/g/eq3rt291hXcb8BzNly7TV/LUdOnyRjxwIYP4r3A2aDAcxqeaelTeoyDX6GCqaP2WdXLNjjQGnJ1eVk+Xe/LJctPjuYsc0oACYwKWM5EICJpS2DB7V1y075xnX3yS/XvWQAUzQH1c0fuRHups8XzTGDfJcs+uKZcu21C2XatMkGMKMHT6KCd2tzBbPRAGaNbH9rtzRm6ypQK9hN7TGhUt4AxvwRYwHTfPsSufSK+YFNAmACkzKWAwGYWNoyeFAAplEylqoRPcwhJymZQ1/2bLlzF54mNzdfLpOnjJFs1j2m/hUMgInCXuut+XvJHHHKyFkLZkvzisXy0ZkTowhFxZwAJoE2AhgAE1bZsoIBMC61BmBc1IuoL4ABMGGVHoABMC61BmBc1IuoL4ABMGGVHoABMC61BmBc1IuoL4ABMGGVHoABMC61BmBc1IuoL4ABMGGVHoABMC61BmBc1Iuob60DpjFjABPhedn2DDL7wZtKm7PILjhN/nk5Z5H5/V+B05T9KpeMfgAmGT6VRVnLgFnz0FPSkGowJ5G6nxJcJmrFL1Lm9jjvn6a87HYAU7F8H3QAMH6VS0Y/AJMMn8qirFXALG9eKz96eL00NtZLLgY3gEyZVdQ5554i/3TzpTJpMtfBlBXpMF8AmGEKldDNAEwCjas1wHR27DN3Fu6Q++5eJ48/tlFGjDJ3a66LegUjvRd7zvvsCXLl1eeZuww3mbsep52riQst6yUb8UW0XGjpXMZ9AwCYPimS86TWAGM/dHu6e8Tmbb+mIJM1d/aN8uaetlTMzavNHeB67xw946jJUleXDSQmAANgkvNJNHSkAGZojWK3Ra0BJnYGVDEgAANgqlheoQ8NYEKX3H1CAOOuYVxHADAAJq616ScuAONHtYj7AJiIDaji9AAGwFSxvEIfGsCELrn7hADGXcO4jgBgAExca9NPXADGj2oR9wEwERtQxekBDICpYnmFPjSACV1y9wkBjLuGcR0BwACYuNamn7gAjB/VIu4DYCI2oIrTAxgAU8XyCn1oABO65O4TAhh3DeM6AoABMHGtTT9xARg/qkXcB8BEbEAVpwcwAKaK5RX60AAmdMndJwQw7hrGdQQAA2DiWpt+4gIwflSLuA+AidiAKk4PYABMFcsr9KEBTOiSu08IYNw1jOsIAAbAxLU2/cQFYPyoFnEfABOxAVWcHsAAmCqWV+hDA5jQJXefEMC4axjXEQAMgIlrbfqJC8D4US3iPgAmYgOqOD2AATBVLK/QhwYwoUvuPiGAcdcwriMAGAAT19r0ExeA8aNaxH0ATMQGVHF6AANgqlheoQ8NYEKX3H1CAOOuYVxHADAAJq616ScuAONHtYj7AJiIDaji9AAGwFSxvEIfGsCELrn7hADGXcO4jgBgAExca9NPXADGj2oR96k9wJRESvanx/zKG/VTETvQP30qlRFJ50xDur/R4RmAATAO5RO7rgAmdpYMHVDNAcaCpbhfSnvfkFL3O4Yv5kM9JpBJ5SZKetTRhi8NJiYbl9sDwAAYtwqKV28AEy8/hhVNrQGmVNwnku+QQtuvpdjxcnwAYxZS6ZHHSGbC2YZ5TSau7LD8G2wjAANgBquPpL0HYJLmmIm35gBTaDd7x3ZJfvtPpdj2TDwcs3vpzE9mzKmSnXa5Ycs4AOPDmba2PdLSsl1WrnxEVq96WkZkAYwPGWPbBcDE1prDB1ZzgMnvMYDZKfltP5ZC6/reD/bDqxPOO6mUoUsvYOZKdvpSA5jxAMaH9ADGh2gJ6gJgEmTWwVBrHTCp9Psf7gf1iPJ3ZgyAcdEfwLioF/++ACb+Hg2IEMAAmAFFUaWG3pP38iWxUM/V5aT59iVy6RXzA5sNwAQmZSwHAjCxtGXwoAAMgBm8QoJ7F8Aslo/OnBicoDU2EoBJoOEABsCEVbYABsC41BqAcVEvor4ABsCEVXoABsC41BqAcVEvor4ABsCEVXoABsC41BqAcVEvor4ABsCEVXoABsC41BqAcVEvor4ABsCEVXoABsC41BqAcVEvor4ABsCEVXoABsC41BqAcVEvor4ABsCEVXoABsC41BqAcVEvor4ABsCEVXoABsC41BqAcVEvor4ABsCEVXoABsC41BqAcVEvor4ABsCEVXoABsC41BqAcVEvor4ABsCEVXoABsC41BqAcVEvor4ABsCEVXoABsC41BqAcVEvor4ABsCEVXoABsC41BqAcVEvor4ABsCEVXoABsC41BqAcVEvor4ABsCEVXoABsC41BqAcVEvor4ABsCEVXoABsC41BqAcVEvor4ABsCEVXoABsC41BqAcVEvor4ABsCEVXoABsC41BqAcVEvor4ABsCEVXoABsC41BqAcVEvor4ABsCEVXoABsC41BqAcVEvor4ABsCEVXoABsC41BqAcVEvor4ABsCEVXoABsC41BqAcVEvor4ABsCEVXoABsC41BqAcVEvor4ABsCEVXoABsC41BqAcVEvor4ABsCEVXoABsC41BqAcVEvor4ABsCEVXoABsC41BqAcVEvor4ABsCEVXoABsC41BqAcVEvor4ABsCEVXoABsC41BqAcVEvor4AxgAmJo/02LmSm75UUtnxYv7jHFU+X5Ad23fJk09ulGXNa2T7W7ulMVvnPK7fAQAMgPFbO7YfgHFRL6K+tQ6YiGT3nDYzbt77gMkBGE+Bhmhsa9sjLS3bZeXKR2T1qqdlRLZesunMEL2q93apIFI0P2nJyFkLZkvzCgDjojaAcVEvor61Bhgp7pdSoUMKe16QYuerEanuPW165MclM/4MSWVGmQ3S3htV0MoKBsBUUC6x3xTAxN6igQHWHGDE/ElZ6pFSvt38dA4UJMKWVGakpHJHmN1jwfzVDWAATITlHPjUACZwSas/YO0BpmRELZp/u6VUyldf4EpmMMddUukG0yOY40IABsBUUn5x3xbAxN0hj/hqDzAeIiht6gfMi+Yg/2rZ1tIm9RkLsGgevQf5i0VJmRVaNpeV5Xd8Wb54xfzAguEYTGBSxnIgABNLWwYPCsAMrk+S3+0HzPMGMA/Im2+2miM70QHGalkylLGAyWTqZcWdV8riJQsCkxjABCZlLAcCMLG0ZfCgAMzg+iT53aJZLbS3d8qmP26Rx9Y9K62t+0w6uYhTsrsoUwYyObn44j+V008/PrB4AExgUsZyIAATS1sGDwrADK6PlnftyiFuj1QqmGNNB/MCMAeV0PkbwCTQVwCTQNMI2VMBAOMpi5pGAJNAKwFMAk0jZE8FAIynLGoaAUwCrQQwCTSNkD0VADCesqhpBDAJtBLAJNA0QvZUAMB4yqKmEcAk0EoAk0DTCNlTAQDjKYuaRgCTQCsBTAJNI2RPBQCMpyxqGgFMAq0EMAk0jZA9FQAwnrKoaQQwCbQSwCTQNEL2VADAeMqiphHAJNBKAJNA0wjZUwEA4ymLmkZXwPw/AAAA///Frr+hAAAZE0lEQVTtnQmQHNV5x7+Znb10rtBtoQMMiAiMERayoAwYEZDDoZBKAS6jACIlcOyAccDEkCpsKBuJywgTUxgoG1wSSBwVYmwSGcJhc8ggToONINhSJKHVuavdlbTXzOQ92TurXYbp6Zm33e+b/bW9bE/P6/e++f0f+6NnunsSWbNIgeXwC17q8+yb9xzT5zEPwhNYv26bfOuKn8gzq96QZCIjySqRhPmJa+nOpGVPd4cs+IeT5fLL58ukSeOloWFEXOUwriICTU27ZMOGRrnzzifkweXPyZBUraTshI5pyaZFzHSWpFTJ3NNmypKlC2XKtLExVaN/2KMveb3Pi3jvZ8f3eRz0IIFgghC5fx7BuGdKj/EQQDDxcI9qVAQTFWmH4yAYhzDpKlYCCCZW/AM+OIIZcMTuB0Aw7pnSYzwEEEw83KMaFcFERdrhOAjGIUy6ipUAgokV/4APjmAGHLH7ARCMe6b0GA8BBBMP96hGRTBRkXY4zmATTCadke60OVNt915pb+90SLL8rurqamTEyGGSTCbL72wQ9oBgKjt0BKMw38EmmM7Obmnf2yEfbdoq27c3eZXY6DENcsghU6S6JuVVXVqKQTBakiqtTgRTGrdY9xpsgtltjlx2Ne+Wxx57Wn7zmzcN+2rzE9+1Er3hJ2T27Bmy8OJ5MmoURzG9XIpfQzDFs9LYEsEoTG2wCaZlV5ts29osNy6+Xx566ClJJOolITEfMWQT5urWpJw1/zi55dZFMmFCg6RSPkhP14RGMLryClstgglLzIP2g1cwy2XFimekrqpeqhLxCSaTMTevMP9PmivOT5//efn+TRfJeART0r8ZCKYkbGp2QjBqouotdPAK5iFZueJZczsRI5iYbyeSzRjBVCX3CeaGJRcawYx0cwRjxJXpSktmT4d07dwj2e6MOWLrzT7WNVNI9dhhkhpZ76wMBOMMpZcdIRgvYylcFIKpXMFkzdFRurVd2jc2y563NhrRmLPmUn4YJmEEM3zOwTJk+vjCEzTEswgmBCyFTRGMwtAQTAULxpyS3bmjTfa+s0man3xb0uYoxrwXF/ssTZhPvSSZkjELZsuIEw9xVg+CcYbSy44QjJexFC4KwVSwYMxbYh2Nu6Rt9Yey44EXpLuxxUwGDwRjbtedSNbIxG+fKg1nH1V4goZ4FsGEgKWwKYJRGBqCqXTBtMju31rBvChdm1vNZzDxndDQ+69H0ggmZQRzCoLphcJaAAEEEwDIx6cRTGULpnNLizmC+eN+grHX/cS9WMFUGcHMRTBxR6FofASjKKyeUhEMgumZC9H9RjDRsa6ckRCMwiwRDIKJftoimOiZ6x8RwSjMEMEgmOinLYKJnrn+ERGMwgwRDIKJftoimOiZ6x8RwSjMEMEgmOinLYKJnrn+ERGMwgwRDIKJftoimOiZ6x8RwSjMEMEgmOinLYKJnrn+ERGMwgwRDIKJftoimOiZ6x8RwSjMEMEgmOinLYKJnrn+ERGMwgwRDIKJftoimOiZ6x8RwSjMEMEgmOinLYKJnrn+ERGMwgwRDIKJftoimOiZ6x8RwSjMEMEgmOinLYKJnrn+ERGMwgwRDIKJftoimOiZ6x8RwSjMEMEgmOinLYKJnrn+ERGMwgwRDIKJftoimOiZ6x8RwSjMEMEgmOinLYKJnrn+ERGMwgwRDIKJftoimOiZ6x8RwSjMEMEgmOinLYKJnrn+ERGMwgwRDIKJftoimOiZ6x8RwSjMEMEgmOinLYKJnrn+ERGMwgwRDIKJftoimOiZ6x8RwSjMEMEgmOinLYKJnrn+ERGMwgwRDIKJftoimOiZ6x8RwSjMEMEgmOinLYKJnrn+ERGMwgwRDIKJftoimOiZ6x8RwSjMEMEgmOinLYKJnrn+ERGMwgwRDIKJftoimOiZ6x8RwSjMEMEgmOinLYKJnrn+ERGMwgwRDIKJftoimOiZ6x8RwSjMEMFUtmA6GnfJ7tUfyvYHXpTuxhYzQ1Oxz9JEwgqmWiZ++6+l4eyjnNXT1LRLNmxolDvvfEIeXP6cDEnVSipZ5az/sB1l0yIZ85OUKpl72kxZsnShTJk2Nmw3tP8LAQSjcCogmAoWTDojnVtbZfdr66Tp0Veke1ubmaHJ2GdpwvzBTVSlZNzXTpSRX5rhrB4E4wyllx0hGC9jKVwUgqlgwWSykt7dIV1bWqT9vUbJ7O00kyFReEJE9aw5ihl6zBSpO3i0sxERjDOUXnaEYLyMpXBRCKZyBSNZkWx3WtLtXftEk+02GzxZEsZzqQbDfmits4oQjDOUXnaEYLyMpXBRCKaCBWOjt5LJmn+YoxnflkTSWMb+OFoQjCOQnnaDYDwNplBZCKbCBVMo/Ap7DsFUWKD9Xg6C6QdEw0MEg2A0zNNiakQwxVDS2wbBKMwOwSAYhdM2b8kIJi+WitmIYBRGiWAQjMJpm7dkBJMXS8VsRDAKo0QwCEbhtM1bMoLJi6ViNiIYhVEiGASjcNrmLRnB5MVSMRsRjMIoEQyCUTht85aMYPJiqZiNCEZhlAgGwSictnlLRjB5sVTMRgSjMEoEg2AUTtu8JSOYvFgqZiOCURglgkEwCqdt3pIRTF4sFbMRwSiMEsEgGIXTNm/JCCYvlorZiGAURolgEIzCaZu3ZASTF0vFbEQwCqNEMAhG4bTNWzKCyYulYjYiGIVRIhgEo3Da5i0ZweTFUjEbEYzCKBEMglE4bfOWjGDyYqmYjQhGYZQIBsEonLZ5S0YwebFUzEYEozBKBINgFE7bvCUjmLxYKmYjglEYJYJBMAqnbd6SEUxeLBWzEcEojBLBVL5gsubrkjPZjPnqZL8maFUyKfu+NtlRWQjGEUhPu0EwngZTqCwEU9mC6e7OSEd7h7S27ZF0d7rQVIj8uYaG4TJ0WL2zcRGMM5RedoRgvIylcFEIpnIFY49c9uxpl48+2i5vv/2+kUy7mQzJwhMikmcTkkwkZc6cGXLY9AOdjYhgnKH0siME42UshYtCMJUrmHQ6Ldu2NcuLL74pd931qGza1GQmQ13hCTGgz9r36OxPlSSTtfLd754v5557grMREYwzlF52hGC8jKVwUQimcgXTbd4S29K4Q55++lVZvGSZbPy/JqlOxieYrPkQyP4kElWSSlXLbUsXyYULTy08QUM8i2BCwFLYFMEoDA3BDAbBvG4Es0IaNzZLfaomtllqTzLIdhvBJBNSXVMtS267WM6/6BRn9SAYZyi97AjBeBlL4aIQDIIpPEPcPYtgFsqUaWPdAR1kPSEYhYEjGAQT1bRFMAimnLmGYMqhF9O+CAbBRDX1EAyCKWeuIZhy6MW0L4JBMFFNPQSDYMqZawimHHox7YtgEExUUw/BIJhy5hqCKYdeTPsiGAQT1dRDMAimnLmGYMqhF9O+g10w9SkjGHNdRmyLuXuL/cObqErIGWd9Xm646SIZP2GkuU6k/Jp6r4PhNOU48s2abDPmJ2kuLJ172kxZshTBlJMDgimHXkz7DmbBrHjoWak3Fx5WJVIx0bdysReHGMEkEnL6/NnyvVsWGsE0IJgSEuE6mBKgKdoFwSgKq6fUwSqYm296WB5Z+WsZUlsn1VXlHy308Czn97zTj5XrvneBjBvPEUwpHHsF87gsX/4/Upu0b3/G+B8P5l5w5ibWkpCUnHLaMXLL0n+UqVwHU0q0+/ZBMCWji2/HwSqYpbc8Lo//x0tywAFDpLYuvj9C+yd/0tyj5cqrz5MxY0dwBLM/mCLXewXziCxbtsr8YR9i/rrHmK09Ot23VMu8ebPk9qWXyrRp44p8NTTrTwDB9Cei4PFgE0xHe+e+OwyvfnGtvL92o9TVp8wfcx/uMCwy9aAJMue4GTJkaJ25GWSi7Nkz2D6D2W2+kmDnzhZ5/vnX5NU1fzB3bDa3xYnz87V9N/a0MVbJ4YdPlXPO+YL5D5oRZec6WDtAMAqTH2yCURhRySUPNsF0dXWb777pkuZdLdLa2rbv7TH72ZYPy9Ch9TJ23Cipro7xiMoHEGXUgGDKgBfXrggmLvIDP+5gE0zGfnNnOiOdXV1iZWPl4odezDGMOSuwrq7WyZHpwM8cP0dAMH7mUrAqBFMQj+onB5tgVIdF8YEEEEwgIv8aIBj/MnFVEYJxRZJ+fCCAYHxIIWQNCCYkMEXNEYyisCg1kACCCUTkXwME418mripCMK5I0o8PBBCMDymErAHBhASmqDmCURQWpQYSQDCBiPxrgGD8y8RVRQjGFUn68YEAgvEhhZA1IJiQwBQ1RzCKwqLUQAIIJhCRfw0QjH+ZuKoIwbgiST8+EEAwPqQQsgYEExKYouYIRlFYlBpIAMEEIvKvAYLxLxNXFSEYVyTpxwcCCMaHFELWgGBCAlPUHMEoCotSAwkgmEBE/jVAMP5l4qoiBOOKJP34QADB+JBCyBoQTEhgipojGEVhUWogAQQTiMi/BgjGv0xcVYRgXJGkHx8IIBgfUghZA4IJCUxRcwSjKCxKDSSAYAIR+dcAwfiXiauKEIwrkvTjAwEE40MKIWtAMCGBKWqOYBSFRamBBBBMICL/GiAY/zJxVRGCcUWSfnwggGB8SCFkDQgmJDBFzRGMorAoNZAAgglE5F8DBONfJq4qQjCuSNKPDwQQjA8phKwBwYQEpqg5glEUFqUGEkAwgYj8a4Bg/MvEVUUIxhVJ+vGBAILxIYWQNSCYkMAUNUcwisKi1EACCCYQkX8NEIx/mbiqCMG4Ikk/PhBAMD6kELIGBBMSmKLmCEZRWJQaSADBBCLyrwGC8S8TVxUhGFck6ccHAgjGhxRC1oBgQgJT1BzBKAqLUgMJIJhARP41QDD+ZeKqIgTjiiT9+EAAwfiQQsgaEExIYIqaIxhFYVFqIAEEE4jIvwYIxr9MXFWEYFyRpB8fCCAYH1IIWQOCCQlMUXMEoygsSg0kgGACEfnXAMH4l4mrihCMK5L04wMBBONDCiFrQDAhgSlqjmAUhUWpgQQQTCAi/xogGP8ycVURgnFFkn58IIBgfEghZA0IJiQwRc0RjKKwKDWQAIIJRORfAwTjXyauKkIwrkjSjw8EEIwPKYSsAcGEBKaoOYJRFBalBhJAMIGI/GuAYPzLxFVFCMYVSfrxgQCC8SGFkDUgmJDAFDVHMIrCotRAAggmEJF/DRCMf5m4qgjBuCJJPz4QQDA+pBCyBgQTEpii5ghGUViUGkgAwQQi8q8BgvEvE1cVIRhXJOnHBwIIxocUQtaAYEICU9QcwSgKi1IDCSCYQET+NUAw/mXiqiIE44ok/fhAAMH4kELIGhBMSGCKmiMYRWFRaiABBBOIyL8GCMa/TFxVhGBckaQfHwggGB9SCFkDggkJTFFzBKMoLEoNJIBgAhH51wDB+JeJq4oQjCuS9OMDAQTjQwoha0AwIYEpao5gFIVFqYEEEEwgIv8aIBj/MnFVEYJxRZJ+fCCAYHxIIWQNCCYkMEXNEYyisCg1kACCCUTkXwME418mripCMK5I0o8PBBCMDymErAHBhASmqDmCURQWpQYSQDCBiPxrgGD8y8RVRQjGFUn68YEAgvEhhZA1IJiQwBQ1RzCKwqLUQAIIJhCRfw0QjH+ZuKoIwbgiST8+EEAwPqQQsgYEExKYouYIRlFYlBpIAMEEIvKvAYLxLxNXFSEYVyTpxwcCCMaHFELWgGBCAlPUvFcwr8niJSulcUOT1FXVxvcKsiKZTFaSiaSkUtWy5PaLZcHCufHVw8iqCCAYVXH9uVgEozC0IkvuK5gVsnl9k9QmYhTMX+pOiBFMVY3cdMdCWXAxgikyzkHfDMEonAIIRmFoRZbcK5g3zBHMw7K9cZcMr4tfMMlElVSbI5jrl1wg551/UpGvhmaDnQCCUTgDEIzC0IosOZ3OyI7tzbL6t+/Jffc9JS3NbTJqeF2Rew9cs0QiYd4iS8mifzpTTp13zMANRM8VRQDBKIwTwSgMrciSs9msdHZ2S1NTm6xfv1XS6bTU1aaK3HvgmiXE/M9IZvKUsTJ6zMiBG4ieK4oAglEYJ4JRGFrIkq1o7NGM/aNeVZUMuTfNIeAHAQTjRw6hqkAwoXDRGAIQiIkAgokJfDnDIphy6LEvBCAQFYEBF8xfXfiSmKP93PLGj48xh/25h6yUQADBlACNXSAAgUgJ2L/7My99PTem/bv/hweOzz0uZiVh3iveTx8f32XmotWytyOTe+LlOz8r9bVVuceshCeAYMIzYw8IQCBaAns70nLcZW/lBq2vTcob987JPS5mJVAwJ3/zNdm8oyPX1y8XHyGTRsd/Xn+uIIUrCEZhaJQMgUFGYJP5u3/GNe/mXvVE83f/2ds/l3tczEqgYL58w+/kzf9tzfV175WHyrHTh+cesxKeAIIJz4w9IACBaAm8urZVFt32QW7Qow8ZLiuu+0zucTErgYL513s+kP98YVuur2u+MlnO++LY3GNWwhNAMOGZsQcEIBAtgZXPbZPFD27IDfq3XxgrN11yaO5xMSuBgvnJkx/JzSvW5fqaf9xouWHh1NxjVsITQDDhmbEHBCAQLYHrfrpefv7yjtygV395mlx8+qdyj4tZCRTMmrUtsuD77+T6mji6Rv5r8ZG5x6yEJ4BgwjNjDwhAIFoCf3PNO+bz987coMv+7UiZNX1E7nExK4GCsZ30P5Ns2bXT5chpQ4vpnzZ5CCCYPFDYBAEIeEPgnXW7ZcGNa3P1lHIGmd25KMF849/XyqpXeg+VLpw3Xr7595Nyg7MSjgCCCceL1hCAQLQEbn9skzywaktu0HmzR8sd/zw997jYlaIE88vV2+XKu97P9TlqeEqeufUoLrjMEQm3gmDC8aI1BCAQHQF7ZeTcq96Wptbu3KC3fe0wOWPOmNzjYleKEozt7Livv9JnQM4mKxbxx9shmI8zYQsEIOAHgf5nj9kDipd/NLuk4ooWzA8eWS/3PLEpN4j9sP/JG4/kKCZHpPgVBFM8K1pCAALREbBHL6df2/fD/UvOmiT/ck5pZw4XLZitzZ1y0jfW9Lkv2VfPmij2hyUcAQQTjhetIQCBaAjc/cRmsT89i73/2PN3zJJxDTU9m0L9Llowttf+RzF2G2eUWQrhFgQTjhetIQCBgSfQ/8wxO2I5Ry92/1CC6ejKyJeufqPPvclmmNOVl18znbfKLM0il/XrtsqVV9wnT6963XBLS9J8H5X9Yqq4lnS2Wzoy7bJgwSly+WV/JwdOHi8NDXzrYVx5MC4EoiZg3xo7f/Fa+b05Pblnsfce+++bZ0ptdelfmBdKMHbg/meU2W1c3W8pFL+sW7dFrrjibvnVqjVmJ3umhpVLfIIR6ZKs7DWCmSeXXXaOTJ48QUaNQjDFJ0pLCOgm0P+qfftqSj1zbH8SoQVjd/7OTz+Ulc/2niNtt3FtjKVQ3LJzZ4s89ugL8t57680O5j8dYl/s1zGkZdas6XLCCTNl1AEjZOjQ+tirogAIQGDgCfS/5sWOeN7J4+X6hZ8ue/CSBGNH7X+XZbsNyVgKwUtnZ5ds3rRdWlv3BDeOsMXIhmH75FJXWyOpar7zJ0L0DAWBWAjkk0spd03+pOJLFsyGre1yweJ3+3weYwexb5ddf9FUPpP5JOJmeyaTkfa9ndLV3XshU4HmkT1VXZ2SmppqqTIfCiWScb5lF9lLZiAIDEoC9jOX79zf92aWFoT93OVn1xwhk8fVOeFSsmDs6L/7U5tccuvv+1yAabfbD/6v/cqB3K/MwmCBAAQg4BEBe7bYjQ9u7POBvi3PXlB5z1Uz5DMHDXNWbVmCsVVYyVz+w7UfO5Kxz9lrZC49cyJHMxYGCwQgAIEYCdijlh//ou91Lj3l2COXH14+3alcbN9lC8Z2Yt8u+9bdH/T55ku73S72iv+LzM0xzz1pLKL5MxL+CQEIQCAyAlYsDz+/Te43N6/c//b7PQXYz1xu+eqhzt4W6+nX/nYimJ4O851d1vOcPfyaf/xoOfVzDbx11gOF3xCAAAQGiIB9K+yp15rl5y/t+NjHGD1DujpbrKe//r+dCsZ2bq+TuXXl+rxvmfUMbo9qjj1suBxx0BA5eGKdfGpMjRwwLCV1NVUc5fRA4jcEIACBAAL26KS9My0727rlo+2d8sfN7fLun/bIq++35j1a6enOviV21XlTS7pDck8fxfx2Lhg7qL3i/0ePb5B7f7Gpz73LiimINhCAAAQgMDAE7A1DFp05Sb5+9uSyrtAvtroBEUzP4PYGmcue2iyPPLflEw/RetryGwIQgAAEBoaA/YjinC+OlwWnTiz5xpWlVDaggtm/IPvW2a/W7JBfv9UkezvsleMsEIAABCAwUATs1xyf+NlRctqs0QP+VtgnvYbIBLN/AWvWtsjbH7bJ2o27ZX1ju2xp6pTmti7zXmKGt9T2B8U6BCAAgQIE7FtedTVJaRhWLeNH1cjUCXUy/cChctSnh8ms6SMK7BnNU7EIJpqXxigQgAAEIBAnAQQTJ33GhgAEIFDBBBBMBYfLS4MABCAQJwEEEyd9xoYABCBQwQQQTAWHy0uDAAQgECcBBBMnfcaGAAQgUMEEEEwFh8tLgwAEIBAnAQQTJ33GhgAEIFDBBP4fA7n67EYmpMgAAAAASUVORK5CYII=;" vertex="1" parent="qWI3q21pzQxJFVz8nfI1-42">
          <mxGeometry x="80.00000000000003" y="4.549999999999997" width="36.85" height="34.5" as="geometry" />
        </mxCell>
        <mxCell id="qWI3q21pzQxJFVz8nfI1-41" value="" style="shape=image;verticalLabelPosition=bottom;labelBackgroundColor=default;verticalAlign=top;aspect=fixed;imageAspect=0;image=data:image/png,iVBORw0KGgoAAAANSUhEUgAAASAAAAEQCAYAAAAQ+aktAAAMP2lDQ1BJQ0MgUHJvZmlsZQAASImVVwdYU8kWnluSkEBoAQSkhN4EkRpASggt9N5EJSQBQokxEFTs6KKCaxcL2NBVEQUrzYIidhbF3hcLKsq6WLArb1JA133le/N9c+e//5z5z5lzZ+69A4DacY5IlIeqA5AvLBTHBvvTk1NS6aSngAgwQAYmAOdwC0TM6OhwAMtQ+/fy7jpApO0Ve6nWP/v/a9Hg8Qu4ACDREGfwCrj5EB8EAK/iisSFABClvNmUQpEUwwq0xDBAiBdKcZYcV0lxhhzvldnEx7IgbgdASYXDEWcBoHoJ8vQibhbUUO2H2FHIEwgBUKND7JOfP4kHcTrE1tBGBLFUn5Hxg07W3zQzhjU5nKxhLJ+LrCgFCApEeZxp/2c6/nfJz5MM+bCEVSVbHBIrnTPM283cSWFSrAJxnzAjMgpiTYg/CHgye4hRSrYkJEFujxpwC1gwZ0AHYkceJyAMYgOIg4R5keEKPiNTEMSGGK4QdKqgkB0PsS7EC/kFgXEKm83iSbEKX2hDppjFVPBnOWKZX6mv+5LcBKZC/3U2n63Qx1SLs+OTIKZAbF4kSIyEWBVih4LcuDCFzdjibFbkkI1YEiuN3xziWL4w2F+ujxVlioNiFfZl+QVD88U2ZwvYkQq8vzA7PkSeH6ydy5HFD+eCXeILmQlDOvyC5PChufD4AYHyuWPP+MKEOIXOB1Ghf6x8LE4R5UUr7HFTfl6wlDeF2KWgKE4xFk8shAtSro9nigqj4+Vx4sU5nNBoeTz4MhAOWCAA0IEE1gwwCeQAQWdfYx+8k/cEAQ4QgyzAB/YKZmhEkqxHCK9xoBj8CREfFAyP85f18kER5L8Os/KrPciU9RbJRuSCJxDngzCQB+8lslHCYW+J4DFkBP/wzoGVC+PNg1Xa/+/5IfY7w4RMuIKRDHmkqw1ZEgOJAcQQYhDRBtfHfXAvPBxe/WB1whm4x9A8vtsTnhC6CA8J1wjdhFsTBSXin6KMAN1QP0iRi4wfc4FbQk1X3B/3hupQGdfB9YE97gL9MHFf6NkVsixF3NKs0H/S/tsMfngaCjuyIxkljyD7ka1/Hqlqq+o6rCLN9Y/5kceaMZxv1nDPz/5ZP2SfB9uwny2xhdgB7Ax2AjuHHcEaAR1rxZqwDuyoFA+vrsey1TXkLVYWTy7UEfzD39CTlWaywLHWsdfxi7yvkD9V+o4GrEmiaWJBVnYhnQm/CHw6W8h1GEV3cnRyBkD6fZG/vt7EyL4biE7Hd27eHwB4tw4ODh7+zoW2ArDPHW7/5u+cNQN+OpQBONvMlYiL5BwuvRDgW0IN7jQ9YATMgDWcjxNwA17ADwSCUBAF4kEKmACjz4brXAymgBlgLigF5WAZWA3Wg01gK9gJ9oD9oBEcASfAaXABXALXwB24enrAC9AP3oHPCIKQECpCQ/QQY8QCsUOcEAbigwQi4UgskoKkI1mIEJEgM5B5SDmyAlmPbEFqkH1IM3ICOYd0IbeQB0gv8hr5hGKoCqqFGqKW6GiUgTLRMDQeHY9moZPRYnQ+ugRdi1aju9EG9AR6Ab2GdqMv0AEMYMqYDmaC2WMMjIVFYalYJibGZmFlWAVWjdVhLfA5X8G6sT7sI07EaTgdt4crOARPwLn4ZHwWvhhfj+/EG/B2/Ar+AO/HvxGoBAOCHcGTwCYkE7IIUwilhArCdsIhwim4l3oI74hEog7RiugO92IKMYc4nbiYuIFYTzxO7CI+Ig6QSCQ9kh3JmxRF4pAKSaWkdaTdpFbSZVIP6YOSspKxkpNSkFKqklCpRKlCaZfSMaXLSk+VPpPVyRZkT3IUmUeeRl5K3kZuIV8k95A/UzQoVhRvSjwlhzKXspZSRzlFuUt5o6ysbKrsoRyjLFCeo7xWea/yWeUHyh9VNFVsVVgqaSoSlSUqO1SOq9xSeUOlUi2pftRUaiF1CbWGepJ6n/pBlabqoMpW5anOVq1UbVC9rPpSjaxmocZUm6BWrFahdkDtolqfOlndUp2lzlGfpV6p3qx+Q31Ag6YxRiNKI19jscYujXMazzRJmpaagZo8zfmaWzVPaj6iYTQzGovGpc2jbaOdovVoEbWstNhaOVrlWnu0OrX6tTW1XbQTtadqV2of1e7WwXQsddg6eTpLdfbrXNf5NMJwBHMEf8SiEXUjLo94rztS10+Xr1umW697TfeTHl0vUC9Xb7leo949fVzfVj9Gf4r+Rv1T+n0jtUZ6jeSOLBu5f+RtA9TA1iDWYLrBVoMOgwFDI8NgQ5HhOsOThn1GOkZ+RjlGq4yOGfUa04x9jAXGq4xbjZ/TtelMeh59Lb2d3m9iYBJiIjHZYtJp8tnUyjTBtMS03vSeGcWMYZZptsqszazf3Ng8wnyGea35bQuyBcMi22KNxRmL95ZWlkmWCywbLZ9Z6VqxrYqtaq3uWlOtfa0nW1dbX7Uh2jBscm022FyyRW1dbbNtK20v2qF2bnYCuw12XaMIozxGCUdVj7phr2LPtC+yr7V/4KDjEO5Q4tDo8HK0+ejU0ctHnxn9zdHVMc9xm+OdMZpjQseUjGkZ89rJ1onrVOl01ZnqHOQ827nJ+ZWLnQvfZaPLTVeaa4TrAtc2169u7m5itzq3Xndz93T3KvcbDC1GNGMx46wHwcPfY7bHEY+Pnm6ehZ77Pf/ysvfK9drl9Wys1Vj+2G1jH3mbenO8t3h3+9B90n02+3T7mvhyfKt9H/qZ+fH8tvs9Zdowc5i7mS/9Hf3F/of837M8WTNZxwOwgOCAsoDOQM3AhMD1gfeDTIOygmqD+oNdg6cHHw8hhISFLA+5wTZkc9k17P5Q99CZoe1hKmFxYevDHobbhovDWyLQiNCIlRF3Iy0ihZGNUSCKHbUy6l60VfTk6MMxxJjomMqYJ7FjYmfEnomjxU2M2xX3Lt4/fmn8nQTrBElCW6JaYlpiTeL7pICkFUndyaOTZyZfSNFPEaQ0pZJSE1O3pw6MCxy3elxPmmtaadr18Vbjp44/N0F/Qt6EoxPVJnImHkgnpCel70r/woniVHMGMtgZVRn9XBZ3DfcFz4+3itfL9+av4D/N9M5ckfksyztrZVZvtm92RXafgCVYL3iVE5KzKed9blTujtzBvKS8+nyl/PT8ZqGmMFfYPslo0tRJXSI7Uamoe7Ln5NWT+8Vh4u0FSMH4gqZCLfgj3yGxlvwieVDkU1RZ9GFK4pQDUzWmCqd2TLOdtmja0+Kg4t+m49O509tmmMyYO+PBTObMLbOQWRmz2mabzZ4/u2dO8Jydcylzc+f+XuJYsqLk7bykeS3zDefPmf/ol+BfaktVS8WlNxZ4Ldi0EF8oWNi5yHnRukXfynhl58sdyyvKvyzmLj7/65hf1/46uCRzSedSt6UblxGXCZddX+67fOcKjRXFKx6tjFjZsIq+qmzV29UTV5+rcKnYtIayRrKme2342qZ15uuWrfuyPnv9tUr/yvoqg6pFVe838DZc3ui3sW6T4abyTZ82Czbf3BK8paHasrpiK3Fr0dYn2xK3nfmN8VvNdv3t5du/7hDu6N4Zu7O9xr2mZpfBrqW1aK2ktnd32u5LewL2NNXZ122p16kv3wv2SvY+35e+7/r+sP1tBxgH6g5aHKw6RDtU1oA0TGvob8xu7G5KaepqDm1ua/FqOXTY4fCOIyZHKo9qH116jHJs/rHB1uLWgeOi430nsk48apvYdudk8smr7THtnafCTp09HXT65Bnmmdaz3mePnPM813yecb7xgtuFhg7XjkO/u/5+qNOts+Gi+8WmSx6XWrrGdh277Hv5xJWAK6evsq9euBZ5ret6wvWbN9JudN/k3Xx2K+/Wq9tFtz/fmXOXcLfsnvq9ivsG96v/sPmjvtut++iDgAcdD+Me3nnEffTiccHjLz3zn1CfVDw1flrzzOnZkd6g3kvPxz3veSF68bmv9E+NP6teWr88+JffXx39yf09r8SvBl8vfqP3Zsdbl7dtA9ED99/lv/v8vuyD3oedHxkfz3xK+vT085QvpC9rv9p8bfkW9u3uYP7goIgj5sh+BTBY0cxMAF7vAICaAgANns8o4+TnP1lB5GdWGQL/CcvPiLLiBkAd/H+P6YN/NzcA2LsNHr+gvloaANFUAOI9AOrsPFyHzmqyc6W0EOE5YHPI14z8DPBvivzM+UPcP7dAquoCfm7/Bcy2fDlr/udZAAAAimVYSWZNTQAqAAAACAAEARoABQAAAAEAAAA+ARsABQAAAAEAAABGASgAAwAAAAEAAgAAh2kABAAAAAEAAABOAAAAAAAAAJAAAAABAAAAkAAAAAEAA5KGAAcAAAASAAAAeKACAAQAAAABAAABIKADAAQAAAABAAABEAAAAABBU0NJSQAAAFNjcmVlbnNob3RXvWfaAAAACXBIWXMAABYlAAAWJQFJUiTwAAAB1mlUWHRYTUw6Y29tLmFkb2JlLnhtcAAAAAAAPHg6eG1wbWV0YSB4bWxuczp4PSJhZG9iZTpuczptZXRhLyIgeDp4bXB0az0iWE1QIENvcmUgNi4wLjAiPgogICA8cmRmOlJERiB4bWxuczpyZGY9Imh0dHA6Ly93d3cudzMub3JnLzE5OTkvMDIvMjItcmRmLXN5bnRheC1ucyMiPgogICAgICA8cmRmOkRlc2NyaXB0aW9uIHJkZjphYm91dD0iIgogICAgICAgICAgICB4bWxuczpleGlmPSJodHRwOi8vbnMuYWRvYmUuY29tL2V4aWYvMS4wLyI+CiAgICAgICAgIDxleGlmOlBpeGVsWURpbWVuc2lvbj4yNzI8L2V4aWY6UGl4ZWxZRGltZW5zaW9uPgogICAgICAgICA8ZXhpZjpQaXhlbFhEaW1lbnNpb24+Mjg4PC9leGlmOlBpeGVsWERpbWVuc2lvbj4KICAgICAgICAgPGV4aWY6VXNlckNvbW1lbnQ+U2NyZWVuc2hvdDwvZXhpZjpVc2VyQ29tbWVudD4KICAgICAgPC9yZGY6RGVzY3JpcHRpb24+CiAgIDwvcmRmOlJERj4KPC94OnhtcG1ldGE+CskPVVYAAAAcaURPVAAAAAIAAAAAAAAAiAAAACgAAACIAAAAiAAAlC7ycSi2AABAAElEQVR4Aey9dWNjR5ftvQ0yMzO23ZjkgYF35n7//+7MTScNZmZmhnf9artaslq2ZVtuyOOTqAWWzqlTsPbaWHlLy8uX9nz8tD2Qn59neXl5P237b2v45eWlXVw8T8/b+uhn/1veMwD92EPo2HIzwAA+2eIPZ8n7DoD1UCDhd/r/luOuv9/y0+c//RA98AxAP8Qw3NyIXDIcwKqwIN8457c8YDFn5xcCk1vR5N5N4ry5Pue9G/H8g0f1wDMAPar7Hv/juxmOWEsWFMfZghbkxYVdXF7Y+fm5Hnodns8FAGd6ffGFLV1c+N8v9d0LgCGwDV/QOoXeJgHjgnPq+xwFBQU6R3547ewLQPM2hnaqrfl65OnD8EzbQ/vzwm8LCwrDc77OU1hYKEAsvPq7P+VzsiyPmxnSMzPKsgu/+9eeAeg7DwGLNheMJLABAcXZ2bGdnp7Y0fGpHZ+c2unJSXgcHh7aycmxgITvnIfvnJ2d6fVZACsHGYDG/352BVwA07nA6+zsNPRUYWFCAOKgARgVBiAp0D0IcGBXAqfwucAlP79Ar8W69DqRKLKSkhI9Si1RVBQepaWlVlZaFr7PyQEszpEN4N42bM/M6Lbe+bH+9gxA33g8AhmwpArE+2wW3BeAERicnp7ayfGxnQhoYDWwHRgOz4APfz895b2oDMcVIwJcAAqueX5+pb5cNUWcRQ3hu/qc//RTmBG/OTzYs9XV9XCquvp6KysruwILsZpwvkCB9Fv+v1KzwtNluBb350ALIBXoPHnh3IlEwooERnxGu2BDiUR8JKxQfy8Q4KE2+nf4PQzpqtGhRV//8zUzUquumvX1t58/+Z498AxA37j3fSHevoDSm8SCAmhgJfsH+3awv2+7uzu2t7srVnMiIBIg8Qzb0etzMRx+w6IuKSm24uJisZCEFndC74uuFr3UHxa3mElQhYI6xEJHVUKtSoRmnJ+f2vr6mo2MjIVF3Nffb3W1tQKGK1VLtyKMUttgSgLCK1Z1pnbAmiJ7AhD9cWpHR0d2cHAYvk9/hOsLeAAjHuVlpVZeXmalpeVWLJZUUiz2pEdRke4jUZwVYKf24TMjSu2NH+v1MwA90XjAMjJJaj5n0aUfwdisD0+0UM9gMVrILFiYzrFUp7PT88B4WLzHx0d6f6qFfx6YAfaWsMj0+6AC6b2rQQUBdGAVqE18VlQk0CmEceihz4JNJrzXb/Q7N3qLJek1rYQBraws28ePnwIADb58ZU2NDTqHf5f7gF1w/XN9NzxQ6wSCFxeyOwVbE8AU7VK6J6mGx7ovwBKQ8ra7Ny+ocuqf2A4oFO1N6AEAJQRARQGMpMYFtiRgLRSLEpjSrxm6NoBxZgb0zIwYv+95PAPQE/X+fZlOAAWt+H2xm729XTEEZwnb21tiO850joM9hwV7ITVI9hOpQlVVVVZRURmYTELgwmelsrMUF7MwUXeSgBeBL/0ZoExduPHvsWuWl5ft99//CAv59Zu31tzUGBZ/JtuVL3TXd2Bh8YiveY7fwSZ1cHAge9WJAAm1UYCkB58dwPTEkmB8GNZpH3YkGFJFRbnuu1IMqUxMiX6o1KPCDd/38PA9M6M4Ot/v+RmActT3voCTzIb36QuZS7lkz5P6IUYglnB0dGiHRweuQmkhYizms+DB0sLzBauFrBNyPjxQGH5RrTDqYsgt1nMwBl/ZVBKoVgIft5c8/Aa5Nnag5aVle//+fWAqr1+/suaWlqASwagec8B+YEOobafqi2AQ1zPABEPicXh4FIAJRggQ4Z3joH9hS9xjcTF9oIfAqVj9AgCXlqpP1A8FUi1vOpJgGL8RwTG+f35+6h54BqAc9TDgkIkRpJ/eDar5wUOF1F9fX7WNjTU9Nm17eyd4rPBSATCAS3V1jVXXVOs9iwq7iJ71twKpQICOg5IDXwA8QEoXDa/TL37P9zAE4neWlpbsjwBA5/bq1aC1traGdrDAH3MAAByZnvkMEOb6gBDAfAhbEjjDCre2tq7A+jiAEComrKiystLq6+usrq7OSsUGS0rKsm7iMyPKuqty9sVnAHpgVyKBtcy//Jr3mRZ9ZDzHYjfYb45YSIcHku68R8of6nHkjEgSHlDBthFc1KhTAh3UKlSPRLCByEsUXNxJG8yXRuTkRVJt+gJAi0v2/o8/ZAg/EwC9FAC1hPZh1H74key7m87B9VE3g/FabImQAgztqGj0YQAm9eE5NicZwM9lb8JYX4zRWiANM4Qdoa5WlMugHd6X3HS5K7bJn5+Z0I2dlOM/PAPQAzsUsMme8RTY1va2bWxu2YrsKasy6rJ4AKSoStXU1FhNTa3sG2WS4uVaNFowWjxcxx9JgMsEdA+8jbSfsfAAIAchrX8t7Etb+gqAmq8Y0M3qTdqJ0966Kpn24Y1vUxkSzeM9j2DMlgoXbUZra6symK8EkEd9C54/2cWaZLNqaW62mtq60Mc3XujqD89M6K4eyt3fnwEoy77MlvHE0wEuqWpDMC7vH0ianwRDKx4dJHJQtfQcGU+Q3HKbwy4exzBiSxxM4rvbnlPBh+/x3lWwZalgfwSW4QyoWe3GxnKTDchB8+ZrOft5GJAmmRNhCR5U6WEIGOsJTUBNo//xKJ4KoLAT8UCNLQmM0t38ITCyuETG6xif5C12gEtt/TMjSu2NXL5+BqAse5PFkg3jiafb2NiwjfV1W15e0mPZVQSpBzWy51RXV1tLa5s1N7e44bS48AvT4ffOeJILLZ7zIc9utM0ehFKvwUJEtcEG9P79hy8A1NLSJHYGAGVOm/D2Pz6iObUt/vpr5uSgmWRFvPd4qGPb3NyWrWgnsKLV1RW13436MKLm5sYwFjDPoiLdi9z7Nx3PjOimnnn8588AdEcfRubDcyaJrfmu49KOZYvALrG7t2f7erhacBBsGCwKvDLYcrBHwHaqqqqtQgbT4L26kUlkbpwDg6dNyBEU2oVHKL19cXHSPn99PyBi4TkAiQH98SHcCwzoLgBSi65ANHP7s/80nUllw5zwMLpNCDUXV35gRiG0Abf+YRgv+gSGiW2tVqovQqFEY1SSwojoszi+/px9y5+/mV0PPAPQHf3Eor6N+TBJWahbW5u2KdazsLAQHvwO2t/Y2CRp26xHk143XC3MuLB4vqMBGf6MaxwPGm58z7XCJe3pDBm+HsAnNbk003cyfcZ9oeLA4P7882M4T3YAlOls9/+MkAOANfuD/ozfd/BwEHHg3dzatnV5GxcW5m1R4xTUNPVjR0ebtbW1pDCi0hBX9cx8su/5h37zGYDSes4BIYkKvE9lFlEieoyKpOvOjiTsXmA/2HwixygTywnel4qKECxYWVmhoLnytKtl89bZC+oDsTIHhye2q2DFDRlcD/f3BGwN1tBQH2wyRDlnOmjzQxnQ9wUgxuE2kI5AHu/6tu/nqe/cLocbf0chDzvYjPYOghAA5yIjqqqskiOgyso1djgDwmx4iKSIzXp+vrEHngEorWuyZTzbikPZ3Nyw+fn5wHg4DYynvaNDErVTcSi1ypmqCWePABaf0y5561tnLheKGzpTwOKpLa9t2ZISQ2fGh2x3a83evn1jAwMvpEJUBdXu1pPd84/fmwHd1dzsGVKSGUVGxHNkRPPzc18Y0an6ubGpQekmjQo3aLcmsddM6u1dbXv+e3Y98AxAV/0UmU864wklIhTej8pzqHidHRiPHnhb9mTricyC5ElSIrAlVMuwGbxasilkf0R7A7/wIDwYz/7hse3Je7aztWE7m2t2vL1mh3re2lgVKJ1Yx+Av1t7/Mqh4tVeAl/01b//mjw9AtzEe7i0yJP/e9bu9FGuV3U7esm2FSOzsbAcmu7e7r3gij7qGBVUq1aVKtjoYLF7LIqWDuN4ceNH1Uz6/u3cPPAPQVZfdxHxgNRiKoevE8SyI8czNzQqQlEwpF29bW6t1drbLvtMoVajxi83ivmwn1VsFqB2fkKZxakvrih1a27CV+QnbWJqy0t0lK95fVauV7V5cbqVdv1hV92vr6+sJxuF7z4BbfvCjA9AtTQ9/upshJYGJgEcY0dr6hs3NzoRxZgzJ1GeMW5R+Assk0lpcVyAUbU13teL577f1wL8sAEXGEzsnnfkAAkxKvFl7Kn2xKZVrXZOTz/guJS7wmFTXVAVVq7wce0HZNXtRPHfm5+uMh3gbIn53dnZtSwzrQPadA133aHvVTqVqXeytWt7BulWe7VrpuSKplRJ1XFBqBw1vLL/ttb18+dI6uzok870GT+Zr3u/Tnx+AHGB8rLn3yIhiPyQBCECPNqJNGaoJHGXsiVynHzAEVSvVAxByD2aVVG4vusZZnBXF8z4/Z9sD/8IAdLt3KyaD4i2B8ayuka+1ESRhd1dXYDz1DQ0yXJIacVNA3s3DcJ3xCExkezg6OrGp2XmbnZu37c0V29ejdHfBKg6WrSFxEh410gDKCy5t9zTPNi9LbaZswPbqX9mvv/1m/X19YmAAUDSF33z9bP7yswNQ+j3ezYiAIUV/nymWSMJgXXFca6urNj09bYuKhaqUUZo4rs7OjjAPPH6o6NlGlN7R93j/LwdAkfmkM55o6zmSakXBr43NzZAgimeLmjyFAhqC7yjGRbIjHi2SHWMNnbv73L1Z8XswnjNN8m2pdlvyyBwQP7S7bXtr83a0tmQFp9tWeLxjlee7euxbaf6ZgEdJqsK6hETuoUo0b12W2ERht21Wv7Bf//4P633xIqgMhSoqlovjrwdA9Mv1vknOh+Tn3Pe5HiS/EsGO635jY0sC4lBjdhKYD/lmJLxi76M8SOlV0qvg36+QpF25GIq/7Dn+BQEoM/NxW09+yLQmn2h6esYmJqdDqkRtkHpd1t3TpxrGJDh68av7zIqvGY8qAx6f2TSMZ3YuMJ69wHgWrfxgKbCdRrGemsSlVaV515HSp1ogOxdFNnTZZmvlPfb2H/+03oFXASSLih6ao3X9jv5qAHT97pLv3MuV2abj9jh5IBX+MHtlG1oVK0I96+hot/b21hDfRR6frHJySjC/vg4KTV7t+VVqD/zLAFBS0qGuJ6Vd7AxYD/EhgXavrQfvFlUB0flrQ6KoymLIw0WsyM05UPFsPF9nPCFbW2kNW9syZis9YF+RuXuyMxyuKyBuY9ESpztWdLJj5bLxlIvxlInxlF0xnuK0tQEAYZbYuyi0z6d1tlLcbr2//Lt1DrwOMUdlZcpvynCPqa3L5vW/CgB5X/mcSM6T5ByhmiMeSbyfeMxgRJQDodoj9c8oCsfcwGOGJzRUoMwvDOocjCucKQfjkc2Y/Wzf+RcCoMzMBwnHY1k6/pR0fXT+ddl62tvbrV8qDeVHASAY0n2OyHh0ah2euU2O0tTsgk3PLNrm+rLtrK+I7Sxa5eGStRSdWLMelYWXVp4lgTm4KLBPB+W2VNhkLa//w5r73ynzuzYsCOb7Y0HoXwWA0sf1JkaEDQnb4Ia8ZaurazY9OaU8ucWQZoN3DEZEnhkJxVRvvLwUIxL8oKZrMNIv8/xePfCXBiAWYOq4py5I0hhOVWMGwzKUmpieY+n4lHDAtlNfVx8C0soVCVtamk0hdAeyKE29OPu57RHHo/yjbRUd21Lxsb2NZdtfW7Hik00rOt5yG8/FfrDvlBecGWwnkSXWHV3k2+RRsS3n1VpJ7z+suudtWARERucCgABmynGQivF1LpiKogmUU/v0r7Ki4hhyPz5/ovdMPkb1yaHy/lDBQhE5gRG5ZtiH8IpR9B8Q8iRXiugnpJK5tyz2zzMjij3xFwYgJpE/kjcbXzGJKAhG3eFJSbHh4aEw0Qg465SHq6+vPxiZS+5h64mMR12qy+QFjxb7ci2vbdrKxrYtzU7Y8uyUFR+uWsnRmnUm9q2t8MAqZeOpyJLxxPbH55OLPFs8LrBVq7Tjll8t0fHGXrzoDxULHwpAkbHFa/AeAHr//s8g/ckFI5OcJE5iZJILNP7ir/eciRHRL4AzYISXbG5WnlIJMuLDent7JAjawhwiNKOgQJ4ygRMHcxKHx1XHhc/+lf/5SzKgCDw8x4PXBVLY8XKRu4WtZ2VZxatUkZDaxNXS3wkmxJjIg7wqah6nnCKe6uo53cbjG/oRubyrgvLbm+uKVl6xE8XwEMeTd6A4nv0NK4PtXAh4xHYq80+sSGyHx0OOU8UCrZ7k27qV21bdO7O2N4oHGgxu4kztZtEAvjw4eCauKb5HVUTt8s/Itud7lypnsW6fPn0Onw8M9IfcswhALE5/OPBy3rDIUgyxPh7ORlPHhO/+DIe32eeS96sLN/oH29CO7EKb8pqilm2JESGMAGci05lLlIoNOWVKGEaN+9If3HymgfoZOiVHbfzLAdCXwU1iT+gqMtoBICbIsoBnVhJrZmYmGJmRVth8WlWjh4WVzREZjy9oxfHIowXjWVHk8qpctqsLU7a8MGllilwu21uQfefUmhPHj2I86e1SuIptnigeyEptsfKVnTS9tnfv3lp3d9e1r0aAccBhuxxACAACNL10BT/g79g4MJjzud+jBVVjeIR9wS6tt6dbC6s2GFpZZDwA6lR1jPfOjlhsXoifbH2Pw/GBSV13PxsoZWJE7OixsrImm9CyTU1NB9UegUYFBBgjfVbA9kEF7tKkFzjPMwAtL7s4vDZlf843Dj4ugdPvgFo9SKo1BRSurKyG/atYJMT0sM0MAWZEM7N4bj+cQbBQyRR3xiMbT2A8q1eMR6kSilomcrlCcTxV8moRw4ON5zGMJ71dEJT9M48Hmizutd2afnvzy9+ss7tHXjLqI7MHF3WUHWR8by7fhSKCTQQg3vOA/fAAhHjm2FcuGgsLQKqvr1eWeLnSUwAfryQYWVAE/whAEZR4DwDR34QIwC4jg/JoYliUlxNBUKSCU/o9/wjvHTBTgVQ7vWowiBkjkh0gWhPDJoaIetW1dTWyKXqhfGpAcXCOZ9uQ+mHpLwJAcfKnT964qNYFPHNzs7aCl0spFUinF/0vgqGZOB8Wx12HL1IW6LkYjx5iPIHtiPWsLU7bihhPyZ4Yz+6i1YfI5WPF8ViI5bnr3A/5u/DC44EuYzxQt714+3dr7epTG9ljKxZwZ2sbNjq82ntLKifgEkuaAja+5Y2ncbCYHIhcNrFNDkZ6PitRmRE8PBTGB4CcDcTFKPCQVHcA8n3j+Tvv8/IKFKPkxeIJE6DYPuksfBZqNyvQkzFwsHKd1Mfyxwck7wNvM325t3eoyPkN7SY7HGoP4chAHetSqgyMyAFbfSc2BAhxBEDihtMn8EMmxk/0m78EADn4+CCm9z2xGxgHsfng8UpIxaLeS52YD5OByYHngkmR+UhhPGI925JwJKXu75ERv2Mnyk4/24LxyM5zuBFytSpl5ynNP1csz7m8WpchejnzuR/3aQAgTfjds0IbvmiwxcIWq2jpt7L6NoEEKqcASsBDATMAw4HA57irRG7LiODtC8nDFfiM8wM6xL7Mzy8EhkRSJjYNNkHEvewAn2RPDtL+3v/mKp+rfXxOLp1ft0AABujwoH2wImpl43WkmoCDk+8dT+E1Ds7JwTl+lCPej1oli5l2txXjPJTnc1kBrWuKKSO+DON0pZgj3jFYN/lklIGFAcYjnifc2Q90f7F9T/H80wPQl0FLm48snEtJ8sXFBRsbGwuLCHWkvb3DXr95o4lQFeox31ztkMXiC/BS6ky08Sxoh4hZRS+Tq7W7JXf67rJsPGI8hcfWoEe1TEhEL6c1Jydj52vPFyAnZDESTrB3lm8jp1U2e1lnByUtdl5Wr6xtlX8tLQrtwBXMtjR4ZFz98YL3BFUSNOfMI2nLiUyEvkVFW15etaGh4XC9wcGBANyAQ/w7Uj/ajnwveN9WOjKuqAay/ZBvRXQcVEPa/4UxiSVFRkRMDYF9vuupb0nEQuV6HIzZzeMWvvJd/kllQgAu+X2oZKOjI8quXxDjPFPKRon1yI5GlcxipW/AJjki3giaXRjGD77LnXy7i/7UAOTgc10axkWK1MZ9vL6OZ2JLLKc02C8alUDapPKoJaL/0UaRqbvj4kH12BXTYSJxzsONJTtaXVCu1pYlTpSndbEXbDwlT8x4WOAXWujYnXjNwRxl0p9Yoc2eldlSXo3tVfXaRU2ntbU2WUN9rYOLYpuwvbBjKvfMAwYEI/LXGIvdm+V96ouAvkTdxGbmXrDLUPysSQW7AAt+A6MBSHgE0Nd7nnlEUPL3lHfVvvd60LcwAr8XtzXh0sYbyd/ifXn7CgIbAjypMEndJeprs6NFBKRM4/c9PvP2OEiqR8L9n7D5ZMglU7yZGBF2Ifa2r1BiK2wS4zT2tHzoqg7O8a9kG/ppASgulOuCInpxLkKlwrGxkTDgLFKYz+Dgy6A+FCWwSdzOUTAoEieE9GdXiM31lfAoxsajR13BkViP52rVFOWW8UQQDXxekzJMZgEPC5YJjVrFAQtgMl8KWFbPi2wtv9p2al9ZXsugDSgeqL3dvXowmpsOuuGmvnBgMQHQimpCfwpggxueQDtUJQAimyNeI54PEHJWhIGczRkBpDPZTgB53/GUgvIOWFJlBT6kONTWKi1GthRUQB6uRgKcbie66T6yaeNTfQe+eql4LYrhT05O2PzcXFDhaWt/f6+1tvgea7BRPgPUiRtiqyAOPvsrxw39lADkA3V94URJzATGzU5cBsylTMZOCsLXKbK5Vp4I9g93qhzGN8M/Ls1hPhSan1RC6tjomJUcLlvtqUL+glfrwErI1bqy8RRrrtwOZxkuc8NHznSie9yZDl/1NsvbIhaETYf3gb1Icl7IwLt2VmAbeZW2UfPaLlpeeTxQR3sAidvul7686QAwaA/9+eHDp8BqXr4cuApEdAC65efXThuv40yJ80bmA6O7AlepyDCj+ACkksZzGcrFrjiiMZuKBBWyq8Am8GC6Ufzm+7nWoG/4hgRVynvsaG5ih5yfXxSjVu6ftmPCLtTc3BqANakKJwGIZvp8RzkLb/j3L3P8dAD0ZTCuzTNN6EDtj+V1WLSx8XExhZMgOTu0CPvl7YK6Z3cAQG54xYCI7eMPRQG3ny/aq8IVa0ycWb0Yj4Ruzg4WJQfPsJyzU6WJyMN2jenI6IvhNxy6dnSB8554oC3FA23kldly5Ws7bXljb968ktelS3+N7OA6YIfz3PEPdgza8/WuGM6AaEMEljtOdeufue+rLgjfc/UXMPKtmLdVrmR9fTOowSxcxgdQDYnCYkQIl4YGCZcrjxp/izaiXLTv1sbf849sEzQ9PSuP7ILAaEW/vrSent6gjrnhvSQwoPxr7JIx/GsyoZ8KgBgE/X9t0kfmsyFbD4GF1PEhbgUjZldnZzCY4nmA4t5+OPPx7xDToXwfqWET4xM29PmzFW9NWNXOlHUUHVlnyZkV5Kjo1zXGo8UOu8F4Hu5VKJfKdEJSIw1UH+QTUXuFgjKf2EGoD1RqU0U9tlv7wl6/+826evtUw9jd5fRb+Gl84W9v/fdbARCNiCDMa66bypBgRKjElMRwQ7Zvax0ZUugjgSFZ6Xg4q6rYiUR7ruFd0/3/SMephAvsek1uesp7bGysB5YKi2traws1hrBXEprA4fPAgzh9/v+1mNBPA0BfOv9qIcVJ5cznSOAzq4TJP0MBd4yUPT099ssv76xGQIReffe6c+bz5bxa1RSlQmefmpq0vZkhO5z7ZF0FO/ai9NCK8iSF09oSf3vXc1xsGRmPzonOj7cKxlMoe9Vdthb4E/WBti+KbfiyxdbLe23g139aV9+gvF9evyi2iX6gL7M5viUA3daeyJCiYZsFDBNaXV2Tq3s12PkAKIQORt1GJeOSkBs3gfzxGFFeAKHh4dGQR0aICGPS3+92O7yAZNTzGXYujxfCJvTXY0I/BQA5+GReOHimFrXRHGoCUc7QdphBa2urjM6DmowNYSLevIivMx+f7P4ZagETHXvS/MSIzY1+srqjBWs/W7KawjO52xXTctvKyfC3C9lUYD3RwArbCTYdTTbafY3x4K1KYToZThc+AoB0Gtu9SNjnk1pbLe2wrnf/aW39b6yuulyxTslth8Genw2AuMkIQjyjosF+YLrhIWfB/t5+qOl8rF0uQnyRPEvE29TLE4itCEO2BzxmZzgPHfsE/zD2MDoy6cfGxkOEOXOBcYH5AKJxk0SvPeU5iXjGMEy7MHUgCnOPH/7Exw8PQA4+dPj1XkYaMnB4qEYVZ4FUhHJD3U9kP/GBbJMK1hgmYonsAyzu9MXHhNby/XJyVDrOHQ8Hi3Mbn5iwz5+GLbE+YuWbo8pkP7L24jMrlCqW3rb42/gcrqHLCNaSNh4tIvag4re0CbYD6wm2HakTDzn2zwts6FB2oCJV6Xvzf6yp/601N2ibIMUExSNeL76/7flmBtSkthLBnBsb0G1tuO1vEZTCxgEaf2K0sAECSthaGhvrQz0nVHDsRdhYeERGlD4XbrtWLv5GfwKcCDTsi3Oq/U14R9ywclMBrjgWqDlN/hgJrDAhD0fAVU/k9F+LCf3QAOTgk1liw0wIMsSrwB5dqF3EVUhMhGx34i2clldZh9zR1O9Fz2bROOjEKeXxK/FdgIkASv4J32XirGozwMUlRbZOfLDV8ffWoRTQvoQmT8GF3eYFC4wHsJQXBIOuMx7UN7fhPITxJNt6/dWh6gNNHRbZaqGK5ff9p1X1/GJd7YoHqqv+8sVcARBxQCyWb72Iv9zI1QvGB7vK2dmJhNB+eDD2VDxg62XYRkz1YLNIwAgbUXl5ZWh/NFannzfX7xFktIeYNAJZASGCK5m3DWLpzAPAk9pCbCrgNqFWAWeNCyV9FyD6qzGhHxaA4kJJn+BuBzgX81lUrs2IQOYgpFOwdxM6dJ6oKmrZ7Oys3OejgVVQtxdwam5u+aJbc36OdMbjn379LztW7B8c29DH9/bx/f+1luMF671csVqpYrWoYjCZtJ+xOPBowdRgZXi1xOXCF2NE8mMYT9rltFVPni1RHyi/xo7a/s2KOt/ai95Oa1HcTrzf2K/pv830/jYGRIH+wsKb0lcyne3bfQYAwSxwd7Nzbez7sFstiaH1bGeN16w4MLn79Ml974I5oP819idB7SKoc2pqJgAl+8lheG5tbQ5gNDMzF3LHVleXw3h1d/cEcKKvmS/XmJBCL/gS6+NnjhP66QBoX/tlERhHfhc2n1LpzZSfIDgOLwih/bjgV9dWgwEZiYN6RhZ3b29vUMeIHUHiMDnSGc9NE4xMcpI3Z6anbGp81E4XRu1iedQ6EgfWU3IUqhimbkYRmQ/udBbAUzCe9LaeSHNcoz5QXpVtNfxqeaoPNDjQp6jolnC/tzHK9HPx/mcFIAecyIhUBUFgxAM2hBfNAxvLg4fUgyrJQbvLS5qph27/jPnlNh92X92Ro2QuJELDHFEFCRQlH5H2YNshEBPv2NzcrNq7E5gPc7WlpS3M7SCs/mJM6AcGIEd3l04sBjfeUrN5cnJCA7QdDK8tiiR98/p1sPmkTgeACj17WoABUyL7uru7W9KmRQPaHCZcOrtK/f1Nr8mkR4rNjXywmc9/Wk/+mg0WbSko8cJKtV+XY5pPPOxR2HlOZO95CsaT3sYYD7SZVx7qA502JzcsLJDtwFUmBGc6V0s/k7//1gDE9Vi09wXK9NZH1uFzR/FRqs+0psqUsGZshix2Uh9gzW1yVlRWylAvQ7UHAuaG1dEG7odIb2w7eOzYaQU1kdg0ro2dB49X6sHfZ2bmxYQW9JvlAEJ9fX2BCRF9TlhBUMUERPn5bhPy/vo5mdAPCUCpE5DXFBLDngPrgf0wiUiwbGvzIuANYjcY61IPKC+Jj3wfiYJahrESfRsmREg/k45FeZ8DPZ7zTMmDMT4sg/TOpFXtTlmTElGb9SAsAFtPtO3Ec3MdJn1kQvHzXD4TD8R+YWxYOKl4oD3FA716+6vqA/VK3fDE07gos7nutwQgFizlTYi/YpGVajw9xSI7sEy/nwhkfM48ILWDOQAT2hUjxmuGUON7rprhuq8N8yL9XA957zafw1AAb3Y2Mp8CsZ3SoHbBfGBB6cyLTHrsQMz1icnJEGJAVUX2o2POujdPxv/gEXObEMDJfItAFHosSyHzkHvL5W9+OAD60okp8w6j3JakyKTicdbFavBwACRkteNqLdTC5neZDmgtcRZTUzCh0WDcI0K4paXpS07TfSY6E1b/a2eLBXnGZm1/5qMdzv4R4oP6ivbsUsB3roUUGI8WvZeceJhXK9P93PYZ7TrVP8QDDV202Gal4oF++ad19A1YZTnlLcg3+vEYEEAHW6TUybpqK9HOWqoVyHNJBcEA3g8NulKHxTGL7nvYCKoOi5yHl+GtFjPpkFrUEpgQ6s5Nc+q2MeBvznzc28W1sPlgFO/sbAvg4+aC68wn9Zy0F9Y0MjKm+lVrclxcBOBizmJm8Dw8tv0hHUcbZsojCSticGnzz2QT+qEAyMHn+gJh0uxLYsFkpqRO4UVqlkG5qakpVDJEisTfpQ5itO3g9mTHAiYaNW2wB2FQBrgwAjoTohJidkwoTuYt7e1FlvP4x99t9P3/WGf+hrxi21Zhx1ZxeRKkeEIZ6E/JeK7fL3fMYlPskuKBPh3X2HpZp3XGeKAaqRmqs/MjAhCxWzBcgklZdLj4qdeE3Y78vcqrDPjHeKwYtwh0sFgYEZ4oHoDD3t6B5kJ1YEPMLQTcQ4CPa3AvsC3uBzMADOUu5pM6lrSVPkHdB8CYt9ivampIyFVYRXWddm4hnEBR7gIeVx1/zjihHwaAHERAcB8KnzAXATAoY0CgIdUMie95+/at4jvIR3LpmDp4ydcwFafYUG08I0gVYi+o2cuEwB6ENHJDZHaUnwnG+ZhknJM8sf/5n/9nLZfrYkHaO15Z8s35B1YkCZpQFPP3OPau4oHWitus/vV/W2PfW2tp9HigHxGAEAoE5o2MDivp9b1iohREKC9VQ4PimRrawr5sVK0EmIL9IwRsZma89+lvrotKhnGYRc65mVMwIWw0zBE8Zdky5Mh8fKsnUoPmwvnd29Ua5hkpItkcDpYXAqE1+/x5JDwLx4LNiNrloaCZ0jXcMI19z+OEqDwZ19LPwIR+CACKDIbneGBHwcUOc5kWYOC9oJ4utXw62zs0EM5aUn/jv3VDZuprACPSbzxni4vLQephy3Em1HHFhO62CZ2eYuM5VUzQss6zpA0NsUktW6nqA5Wf71jH5YZ1mna/0GQpYxP373DEeKD1RKMV9P7HV/FA2YIQiyBzMmqTFmbu3PBIeQTD8tqYLW8NW1HJuRZYiVTZGjveUdxOZYOYiTaIlA2EyGYqJhYLpL4e+/t1dvSW4aECiABBvKYAETbGzgBELQH40m016VeirxBKeK8wNhM3hi0rMh9qKBHpfNd54nkj00bIURIGAYztU6aeK+bOzi0luoYHhAJADs4wIe8bX1cS6pw0ZW3Fa/wIz98dgOJiSJ9MDCaFven0OSXtIf0GBgZDPE+1pAj2gcyHMx//m4MRk8MVFC+wfp0JlYU4jLuYEOcAyKgRBGVfWFgKUvNcnzHApwd7dnK4ay1Hc3rMKDbo/Mb4oMztzt2nHg+Ub2sFdXbY+s8QDzTQ2yWVlQ0LHRRjv9921W8FQIAPeVEH51PKR5ix4vITK63QDiZLRbY8Jc9PYb0AqVEF1qR2N7ZoC6WK4Lly1QNDrNs+bruXTH+Li5xxJVaLAEHihjZD6Ma+9chrCnshirqiwjcsyKQGUkzN43w2gsqF6rWtLbiTNp+GYLvJ1Ia7PnNBfKh1sKI+Ggnzr0njWKfg0vLyaoEa2fOecAwA/WxM6IcFIGjs8PCwBlKVB8U9sQl0d/mWMK563aTeJFUvJli0BcWBhsFgF0I3B9yQfITuk7xICDw6tkfJXmcv6OAYv4lWZcFwakomsJsGHootSVHcvafzn+x07oN1Fx9ab4l2WtXiSI0Piu14yucv8UD5igeqj/FA/XI5N2uxRm/JdVtbpvY8NQD5+JhNTEyp4Nkfll+2YDUda1ZRrSJklfl2tJensrf5driTsIM9qULnqh6o2tdVVfIKyTbEXm70fyiSL7bxECGfBKFLzQOqX+KBciM1oMSBOkboBqwbRpN60EepzIcdMZifeKv43X2ZT+q5eR3HwINr56WK4YTZC15fV8XI+kcViyB0nQkx3j+yKvYDAJBLryiRQ+yMDM+Li4v28ePHEEfRJWDwwWwROCTzmtIHi/c+qbH9kNOVZD7p303ahBaCTQiXPF4GcseIz2BSY4TkHLhUd3YoJrUVWA+SEtcthc6IYm1pabX1rV1bWtu2heHfbf7z/1p/wZq9KJQqJpxEHfuWR4gHOpU7XiZx9gs7a6ZA2WvrkDR3KQkIZQdA3Pvy8tJVRcRLe/UKFkoclbYdfmQkNOdGwo8r0ff33//XyhvWrPvdvlXWqZB/mQJF1fenQtPN1QvtOqIyFhtldrhZZWUltSrkVa+tbqSa1TYGdsK8iGpINveWaTyYO7QJuwsqFHYhAIX7ZW5gmGbcWewwIQcHlVy9MhYjmHBO5IL5pLePUAI8hKj9U/LoUiqXKGpXSYmUdvuYjy9MCA8s+Y9iiN4h6af8Id5/VwByHdUXAq+J98EuQxAWOwqA9ni5KC9KEW9eM/iZj2j7cVUpnfmk/wYmBKuBCaFfw4QIAiM+AyaEZIV24zHBWMnAU0SK62P/aGzU3vH6bkUFmdalysRW5K0Y0rQK4E8p8LFqZ1yPUWspubBWPb7lkYwHKrOJRLcd1L2wl4oH6lBoP0m52CY4mJfxiKpZfB+ZAe/pn/fvPwRwp9AZCzIuwvj9+Jx+nvh5pmc8UTCOqZlRGx59b3Xt2/bib2I/VabFo8YJEFjkx0eXdnSgmkc7+XoU2tFukR3oUXgp9mOoIwIjqWfV1ZRqrboCopSby3TxGz7jvj3W61DgQ9zZapiT2Is8iLVJc8NjyPCuMm8oMIaXFhBI2nwag3qUrc3nhuZ8+ZhIfIIaAUa2E8duBbshrw0hiACl7wEcwAcbVkK7biQZ78PU1C8NeKIX3w2A6CwWQJywTBfifTY3Ub1GgseKAQ37dwmAGPTbj6TqhU4PAN12OFPCJrQfgsWQXsRrADossFjKYXcX7xlRtG5sBghJ/UDyYBSNNoEozWdnF21aj+OZ93Y087v1lR5JFVOJCN3gt1LFUA/P9M/WRYnigZpti3igX/8txAOF+kBSEegjvpfeTw48yb7kOyzCDx+oCW1iQC+lVtRfAVBU53yx+wJIxmSlj3H6eKBWLC+v2YJSWuaWP1pT14EASEXoy9O/6e+PD1XKQo+1JRiRkjt3yux4t8JqqlRyt4Yx03Otl19BSDgb8LZlPuPNnwJ8qP+wDozKOBrinMBeyHwEPNlpF28XxuuODo/zQTBhN3qKA/sjDByBiIDGS9fT0xWux/3immcf+kKxH4+jil6xH1MV+y4AlGlihjIaxweakCtyxyrXSkmcIXVCMT/QXrKGMx+R+fBXf50NAIVva0Wl2oSQ9MSDIAHR97EzRBcxtVmItmbyORvzBMEIoExYrovxcZNJOfLRpofeW4+tWK8eFUrTKL+JvGW+sQd/Cq4AFjEeaLOiy3p+/W/VB1LKSpVcy2JA2Dfoc9ocH7znwd/c28ffz4N3CHAGnDqURsB4IBxgUjChpCsY6csicMOw/83VldhPEfi5OYAtLN69ce1tNmb17afWPajteUozgwbG3vPTJCPa21RhLz2OdsvteF/2mWLt2loiZtrUHAQXalm5NkF8yEE7sRXC0mAdLHYWP3ODomfMDwAI+49EZ1jsbibILfNJbzsF/LkugDiuap2MFXFLHs/mm0ZemsZBYSBFsKBgH1IA6hfb34/FhL45AEXWEyckHcxgQ2fX1xWZqkmJm7xY6tab12+sRXYWNzrfFCjo0toHKgJQWILpY5fxfVwQqF9IZDKokTB8ToRpAEbZpLD34BFh8RGLFJlPPCnf1/9auGS9n6iW9KjiN4atXourfnfcmoo0UVRPOtx//NETP+8SD3RQZmsl7aoP9F/W2PNSAFRmJUUFIdANtQLwgb05CAE+EYC4Dx7sVrEXJjz3iB2ExQcYOwh5ikcSeLxYPu8BqFDV8YuLWFI4eKycJWHnGxubtOPLaSuonLa6lgtr6tQGhcWZASi9u/Z2tCnjpmwwSwW2vphv54c1dnlcbS2tXQLKrrAtUb2y31PnWvo5bnvP/SJYYMm41wFhmAfBpQwkcwM7IfYhhNJTMp/YTtrDeBGegucQFRAWhCpGKklxsYzk5LpJCCAYEJy4610oeL//SDah7w5APsgXQcqyjQ7oXqG6vlQyJFuYwC1qIX89iRxsfGD8NeeKLCgOWDbP/I6FBnAsLCyHUh5zAqH5+TlJ06bAxCjpgYSL+Ttft8eB1CcI5UJWQv2gjck/bWPygxJWt20goQznb+gV2zvPt7H9Iu0XVmcF7e+sqLE7MAICJIm0BWy4d3qNQ7KRuUsXhoWnfwMwAc7ETwFSNZL+bHII+AAyoR+EF7L5wz/DeZjgAE3wwOg7SGJUIt+SmRKxDl4ImtHRseD9qu1SlcmGC6uqZ+FkB0CnJ26kPjkUCzrIk8s+YQsTCVWBbLf6WkWBS2BQFzwKvdC4e/4T5wZxaEtLCEeB5ui4nhdCRD6VN3t7u4P6xeInjeQpjzBe6mY8t8sykKMxrIi54xBob28ONrBg+5EdiBvHMJ+QOubVFWGjvpYYt0xz+Cnbnunc3wGAuHH6xjsACgnNpROHR4bCohgYHAgW/mpJWiZr5gPQicZdByAWf1g9mX9w66cY+c7P8b4tB7VgYlzJpmPjQeV4JcNre3t7MPa59+dml++XCSKD9O7ugX3++IcNq4bQwOWivbhcsorCC6ljsd23Nulef4zX9R+pHwQsh+d5NnNYaIuXVbatDQtPK72sA+wF6U1/+VggMWEuqFC4ca8DAABEyAL9XS/BgJ0sbKYnkOEIqpF2/fRzXtnfOLGaQblZvotXETW6ooJgPDxohSqZsqK+nrKKxnXreLVllfWXSjFQW9Ku7/d087/h+nL9TX4ssLHf8622SpsR1BLDo9K0XZ0BDB+62NT8cF8IJ1RGGNCHPz7ILjQtr2KXdcke2N/fG8AuBgXe3NLc/QUTxaE8Y8SjsWnC6elRsM25KlYV+ptcMUJFcNMjBBAaMKG49n4EJvRNAchvPAk+Mct9XrE1pFuwD1eJJunLwZdiHkq1UKexKK4fDjb+mb9m8QX5G56vfzvbd8T4QGeJ85mdnQu6PgsKyYExDz2bWr2oX5RQSFfBUq9De5ggpwLXUUnLUQFZyfqolWyMKT7o2DqLj1K//ujXXC+qUeFk9IOuTTzQ+mWxLas+0Gyiyw4rSbakOqTbcAAB+pdJ6XlPTtsBo9QDIzxMBTDp7ekJ+VmJlGRNmBFsCnuRt8NtS3zmNjZX5/gejgbqKsHADo60g8nBmjV0Hljv2xOrqDVFQQOGDmypbbjt9cHeue1LHVsar7D50Srr7hi0fhXkd69YxRXI3u+c8Xr0LXMDZo69CgDCNoR6Sj8hIGHGOC7oV9TTb3EgPM4IGRAzHR+fDEbwi4szecMqgrnAKz0wrrjjPU4oIZaEgCFSmrb/SwFQKvjEAcqTiMTuMqYFCviA0F44rOcWr1cEoCToPIb58FuAhsBH6Cz7T+HRwL2OsZGwANpIPSE8G+j5qXFCN0lWJi44MItKN79s21MfbXvms/UpX6yvUBnfWuNF+dzDww4/v/dFuIcAACxwMUtOCSPR6ffzS2xdAYnD1mr7VZLWiiZvb+8IbMS9JIAQi94ZkGeBOwDRfoAdyf/nnx91P8QB4QVTyVcBM3V1wjfEjCL74TmCUAQfYlhQGVBjYBJ4FknkPb3YMktsWGvPmfW9U7xUpVQGqV9Xd+DAcQsY0T7atLlybquLZ3aw2mwH6632on/QXqqd3Euh2JSzvPsDEPdB2g2hGsT6kBKBLQjnBECDKxwjNNHI2GAA94aGxnBd+vRbHBjGAUWYO/MXu5sLSqoJUD9IqrJUMAQNVSOC0NH7YBOiYzjis7/7pv9+EwaUCXzOtWAOQ5b6SgCgU0mVnl5tVasEUbbSucvrFRNNH8t8giQWyOCGJyIXgzcsB2nGA/UDQNrY2A4giaSD1sfwfKT1bSC0p4W3owU3PTpkM2PDVrM3rcdMiA9qfmB8EAsv7hOPChtsOaifmk9EjbPwAovQxDqWR2TDym3oUgBU029vfvt7qA/EXvEONrH9SbtNvJ8IzsS4pAJQKgDH2RrBwNViB1/AwdkRbXTP2rmAcXV102bnluzgdN4uEjMyPJ9Z90vZiqRti0R9OSC/BbJX3bQ+zqlSKa/YwuSlzY6aVSR6rabM1XdUZgdWZ9xfTprlC9oemY8bnxdDdDOCqbGRWKAqgdGeQMiLjfFd3OGAEAw5zt/Yl1le9t5fwyuGkRwQgm2fnBypbZVhDlNP2vcYk5ARCwr2IAESoITAoW3xce8L5+gH3wSAMi1S3JkYNslwX5JhD/aD16tVao6rXpkkSBDJwRbBBEmC0P17wxeHMzDagS7NIOLl6enpDnE+BLUh4WBAeMaIB8EozndgQp5Ff/vuEC5Fz1XLaMqmFEB2Mv/ZzhaHrV+xQd2kagg0sjF5+P3qngU0qEIsbMq+hprTYh0cUGoyyZGCSDxcr0RFb4b6QM22Vy0A+rf/sk6pJ0Va2OmRzPr5NTAFgAA3whNSAail5fre8PF3tDEeqQsvfu62ovNg6B8dm5KNatLySqesoe3M2vpQE6Q5ClC4Lr8BQAqV0BvPFa6TwogO9yXEpH5heJ4fLbF2RXz3dL1VLFC1FqF7KuNvY7uyeU5lPrAf2AX5g9ERQTwQIAM7RjihAsESfV5oJ47gFidi2lXbbK750O+4kCBaXTZUecXQJPJVnZP2AZSoZLAe4oLYVQPwCduTB9Wbvv2+qth3ASA6jX3bJycnQ5AfdJ58KpgFak8mwLrOdHyCPgaA3D5xGoBlTPEU2C9K5KnBpYoUI5eHdvn3VGNa+UEwAULtASSYWldXR5A0DHZchOkTiXsFLJioTOIpxQfNjXyyXlu2HhW1ryi8Oz6IdR0Yj4CG3TWQ/MR5sECvSTABSNDtr1gZf9Plbftc9YFOqm2nstv6//Z/QjwQxuBisb14ZGo/bb8LgDL9Lp4z9RlAieeDbQ5psZwXzlpZg9JaWs6toZXoXd2n7Fbc3/kpxmxnZTA7DtSzAtkxuCbH+tKZLc+riuK6km43m6y3ezCoX7APFhpH/G62QEQ7ETqoNpOT08EmiNG9oqJSc6MxCB5UGxY1rI7wETyeqD+oZ4BXX19PsAsxh2LSdLbXD42+xz+0l/nBtQkhAYjW1pbFfIrUBmdjBQWoYJ6aUSjhxG65IT4oMCGxZR/Ee1w1d199cgDyBZKUrCxGbAPk24yM+K4WHbJJuBFPgWSq3Pf14ZLV6b3r/QASE5rn+xxxwGIENPk+U2I2qH0dHejwhPUT6eveAr7PQSwMOn+SCVXpu3WakF5PiAmPezt9osXrYbTEeDk0NGwjivSu3x2zWkq5Fp1mjA/y32VgPNh6NMlhOkwmClJR6vW2Y+cqHmizVJ68d/+l/cLeaKse0gmSeXWZgCQCxk0MKPbRbddO/RvjTvrL7NyM+uGTFZSLcXavW03TpVXWIqUdWaJqFfueIeA1jC2hPZAuZNw6E7VbnLq0uTHljeV3WaXUr87OboVM4PW63h+Z7i21Xbzm/ICHq4geeEiwH/l/VNDs6CAGDAdE0sjMbwBohCk1p/GMYStCOJEeASOKMWPp8yL9+o99j50NwUga0/j4uE53EYQpLL64WHlyhYAmIIQtiNAIFeIXkKKWBc8YDYho/djG3OP3TwpADj7QvGSLWIh0FIFUMxowLTElSuLmblMdYCRXeriwsx0/g7/2iZn6efL8d71iUTHRGKiJiUlJsOPQ8dg1SHpF2rm7Mtlorhe8WjKgOhNaFaPBJrQVJF20Cd3EhPh9XMzEjyzK07Y1+dF2ZZR+ofggSrmmxwdhI8Nb5PuJXQRADIxH7AaJhXoVmeJdk3vvLN9G9xO2XtRkFS/+zep731p7R2so9BX7K9MijW1+LAD5eKledVBnd2WUH7cx3X9FvWonvTpW7I/J+wmQep97f6ll6jeOoLqJEcF+ACBUr/1teb0mi6V6lak+1Esb6HsTHBeMX3p/ZLq3cOKrf7gel6L+FDY/mA+CifGsVEyaBxqSoOxBl6m/pY+Y0wg0foOhGvMCDGlw8EUIBXBPY3I+pf4+V6+Z0wg4vLikMh0eKqm3sizcQ3U1AYraGVZrC7DRhA/3Ql4gOWNe3N7ZdK7ak+15nhSA4gKJjWGg0Zux+QBAuDYJ7Hv1+lWIJA1Gw1S0Cj+MQJN8ZtA1O+Np7/WMBGaSzc7OyWg3EYyFRLEyyWBhXwOgnz4uoq+ZEGUya0L7iZa+iwlBlbcFXmNDH5Wu8cl6Lpas63LZKgvOrTz/ygKrW4Mt8ACIYI1FCnDzqOK7GU96hxwoHmh63+sDXbT/zSq6XtuLF33BhhW/m2mR5hqACHNYWZG9bWVMuV8frKZ5z1Ss0cqr87QQbl4AkRGxdgrFMvF6rUj1Wp0pt7WZKnv18o394x9/C3MJkEg/Mt1b/A7jGrZckreLdAtsPqhUeEVJBero8BIteLluOjgHY8VvqOE8OzMXGPOLF/0BgCorywUAJUEQp4PjTed8yOe0AwHJvN7c2pDwOhbLLQ82qbKyijC3KWYvRT28xhZEf13LmufCX63Bh7Qmu998MwCic1AdtsR+RqV6sa0OUbXQVOIoMO5Krme4dweepL0nAlF2N5j+LSYZWe3k91B4qlnxRixGjJZ4DADNmw6faKQqEJSGTcj3JltbWw00va+vL3jHbmNCJyfUIzpWkOOkTU5MaKvnUSteH7dO7S/WWqCUbx26Q+1tdhrYj9t6PK2BxRdZ5U1tzPT5scwpK0cCILnjN2reWGH7a3v75k3od+Jy4pG+UHMFQPH8hDjAEla3xmzz8LPVtsgQL+9Xabmzufi99Gf6PcScamgYn7mxC5v4pBIpK0XKBZMAU6mRX399F6KAsbukL/L0+4rnD+fV7acyH+xTIYdMCzcGn2ZiPvEc8Zm+QrghYPCm4lxx93yl6lgpMFIG4SBgb5lf8VyPecZ2taQEXyK2FxbmZdekxCxbDxG7hsPEHRSoY4XBbPB9vWJPBkC+UABTX9DB7S4KzoaBY2NjWmDH9mLgxZWhTLlF0ke/Pnxx+ETxGj+8fsiBro7REPCZ0MKHriYkAVD9+vt6NVko2H4z+MRrxus7E9oNhnSSAnHZEwMS2VSctOnn5PdM1jnFB/FYH/9gW9OfrTdvzbryFYgpD0ZCAERbU2090Hgm8EMO7Lk7qq21rvpAMyX9dqH9wn757W/WKdtGvgAo9bZTF+vNAHS/veEZMu57WYA9qcW5dzxhpwnZwFpOra1HgZ6l2d3X6TGL/FJqV6FNfZKD4FCJpuc4DloDWJCh7oLE0z1iX6XeU/yM9jAnsPkgSGAOPCjLypzggY3v7ioM8Yx+j4R1YCdc1B5k23JY4LFkfnE+SnVEo3TyV7l9hVue0A+AfnhoWP1OsmrdFThTvMy9tu6Wd68YJgdXE52Ffkuj9JMAEIvOH8nORS/GlrC6ouLy8iaxQCkuz8AE49hXiyuV6fjrJAtKnveuVxEwiNPAg+XxPpOBqZDDg9GZbVkwIGd7xMlLUB3eDx5Qd9z5uPBvY0L8Fk8PquiOpNWnPz9oZ40P1nQyZ02ni9acOLUGklaDrefKzqPXsU+zbWPq9whIPJJ2t3FZZqMFnXZcP2C//PM/lUbQp4kHq0h+O3Wx3gZA7gnKrs/OBbgYjRdU7nR0dNRO8qattHHOd+zswgAAQABJREFUapvk/WqRR4aozCyO7bVzW1s+s+0lefSW6620SDWbVJYU5sH41tbiFMANTohE0xeBknpPXIYx0P9fmA9R3pOTzAkArEYGZCKbqXtNztrXKt1tTUWdo7Iixujx8amglkX13st4VIefM55PcTBmpwJWzByerLql8VWOXVW1hGOrBK0zRFI0UL3whrmw9OfgRfUOe4rmfXXOJwGgdNsPV4UxoHKsrq5I6lB0XLr7K2w/TV81CiWEw8EjApEzh/i3DD/K+BEDgoEO/Xx+3muoECuBvYfqfrSDSXbfCeFts+CuxbbBBHYmxG4O9bovPCFNQeIQ9BePCEDQfujyh48j8oqNWdnBnFUdLVpvYt86iw6sWN4KQudzcbDYtP5DPNDn8+YQkPj6H/9p7b0vrgqUJYEkdbHSd7CEr43Q9ytKfyoKdiTJPDs3rUXxwQpUerWhe1PeL8Wr1ODNu30x4vUi1Gl55kIBhxeWf9YmptitzH427KsJzIUYLiQ5Ees4FHhg/8DG6EF3yZ6MzCeW2aAONHYfhAd2H2o9waQ4HjIvMJoDQiMjYyG2DLWHAEbOz3x3NSg3Y5u8q+uvAECM6SsS+Juba0EF61TuGnFBGKG9bhCxYNgWiQ3yBOHAhJgEHPHZ3z3Jv98MgPB8ffz40TYFBOR5NalmC3uWf71NSQQc7jcyHwAp9fPs+4LJhroVY0+gl9FoTMg6evptdp/brgSYcH68IM6EiMFwKt/b26MkRWxC1dfu0QFIbEDeCgLclsSeVvQ4P1BawsGmvSxYUTlXxS7LJV2axK3bmpHV34QlHg+kchXbqg/U9e7frbX3pfrietQ5cy4uulwBEPuw7Sgxd3Z+zEbGf7eyGqmbr0++8n7ddCMnRypEpqqIM8P5NvFHobU2DVpfz9sre1uZ7Sg8Aq8kKhQbDhIHVKYQg05lwncrViuqF/H8gD9eq4mJ6RBcCjhg98Hmw5zAkXBf5hPPzTNjzJxDtcMrhj0G1WhwsD+487kWYMkR+zq8yeE/MELUybm5uSAYydLv7mY3GWxBYnVX2/dwrxjIebj319Uw2vVUbUu9zZwDkDc82bF4cLBnYPwd+jwkqrx/ZftpV13f8mB7SW1QEmgi4DyM+cRzkoPE5EQnntT2PsT79Pb2BP0e9kMsy2MOJhsHbCaVCWFc5+E1o1s06G7DYeLDBkPwmiYou17CCJGYx/u71nQwbU3aWaMhoc0TC3NbP4j6QCOHpbZZ0mY1g/9UfSDKq/pum7EPngKAKPK2KmCYXxqz6fnfrappx/qV+1VRc7v3K7Zpd+vctqR+rUyVK+G0RuDz0t6+exfmDwuLHDMWHCyIiHZUMgCgVc6NDqn4xO4QSBjnFh7YaPNBdXabT7vGC+ZzV+XN2Krbn2HdzHWYCF4pwABwa1GBPdREB4KnW+SEjdAv2KM+ffosUDzXtf26RUWlAmWkG/0PAHmFAkA3gnWIkE7VzW+/3Qf/NacAFFGTSRyPM7EDPF9k7YLGghV78+a1tWtfd+ISqPVz/YisxzcV9AXui/z6925/F4GBiUYuD0GERK1iG+jv7w0T4CGq101XxQ2byoQAPSZdnwyQXA+mRRmK6ZlZuWlnpZIcq+D6aQAAgIrJuifP4ObkJzucHw7xQT2Jr+ODbrp+Np/vqz7Q7FHCNooaLa/jN6uUO97TTuq+/PwpAChsg0SUrvb9Wt35rMhn7RjyLt/KtfNFNuxzefbc5sZVPO1A2yafqcxGR2/oVzeeqhCZAJxIdkAIgeNAtKhze4ItcVrkaSEMAYaxsfEQA+bAVBEcIQgKZz65oZ3MP9gxwoaNMPGa8hnMrK+3J6hivthTFsuXUXj8C9gr9xvjgphfpaWJwPQAP+YiTIgoafeGUbKDNB73joVk1a/W5uPblX6GnAIQkymdthF8ho69JqlzKEM0RalevXypAWhOb4veO9AwUG5wdhDK8MU7P3LVCNWLqnvjYTCI5UACUagKA2N6W+886S1fiIDHhIMJIXmINSJz2ncuwANSHBYHahe2iTKpCoTLw0KoicQW1OPDn2x+bMi6zhes/WLFqgvPFSNEWsLjj6MLFe06Jh6o1vYb3llxx2sFgQ5cG4tcApCPo5dexTW9tT9hhyaPYduJdQ8UBvf7bXd1poJjJycXinjOs9mRfKsu6bPmetkNpb5j42EBpx4sOB4AEIyXceCB8ReAiQAE+0RVhpHAftzmkxvmk9oe7h8mxvWipw2w7FfYR7vYWSxul/qbXL+G4QGA2EDZzof1h3cPWxlu+QBCslFhl6LESlFQx2BIVykaNIhJ8UTHkwMQcREUTEIFw/bCZEDXxjZy/UiqXHyeBKH7sx9+D/BFr9f4xGSww7zo71Pns8nd41UvrpHpgPri2uV+YUAEpjEJUgtCEduD/QvggRkBTEhwJuuYkjSnZdAuWB2x4s0J61XtoI4c1Q8iHmj9JM/W8qptpeqVFbbJHf8L8UBtX24llwCEFIZxEI8yLEP74cW0FVULlFvOrLnzbvf7rqKdt9cU4DdfrqDDGmtvGbTBgTdhLMu0O2q6AIlCgLGHCUUbDB7YI6kjABAqL2oWHq/m5mRplZsCUL90zANfuCqGPWZDRmmVnVH2PEmtrXKCkNBcUXFzgOMDL3ntZwTdArYwIZKpyRHr6GB7KyLGr8pywBQ1J3HNlyoWjliqkJ6hyRC1mmsnzeGbJwMgJgNoT8d//PBRkkhbroD8kjiEhsdyBcl7SQKQT6Soit0PgBy4TODjeygxCQECBhuvF8AHzcyG+ifbdv9XuNkZ/E+qCz00NAKihpN4nFCzJoHHmvBhFDBM1vnFFU0W5SCpftD+3Ij1aX+xrvxt1Q+6fFT9IK6TjAeqtGmxicvml/ar4oE6lILiniImHO1xifdYIzQuadTS2dlZ1cf+aBfF81bfKUHUfG7V9XhfMktWxlA4YRtLcidPK39su8nO9ymv+sKolkksDXV+bjoiE3IAWgkOCJwQzqpNxuABzcUXYqe43au+3O9N53vM574OLkLUP14xTAIIHbxsJDOzpRAVKGOfP+ZamX5L3W/mImz806chjbOJDTYEAEokfFfVoG7JJkRaBgnZZWLnBWJEzIkIRJnOnYvPngyACDzcl94J+o4r8JCYmV9+eRc8EwBAOn2OBsIY6xNB6L436VL3PNBw6qNwXQYc9ycDDvV0VL/vme/3fQYeRvPHHx/sDxXzOtQkOJYkfikQHBwcFBNsCEmv6Qv+QNJ7RztrjA8PqczEkDUcKGH1SAu36CJs9Xy/Vlz/NvFAx3JnrxMPlK94oIYX9u7v/7COrp4AyoxJentQZR/qhj9W1Pfh4bEqCU4IhN+L/SzL+3VgVY2UXk3mfl1vpWfDxzo/08NK1SiU06B6UKyBbW9ag7pwhZHpPw3vfe7I6yfb4+bmtpjHcNggIKr4v/32myKnf9EiLNXcKL12zxlP+IgPkTu0BxaG1xMDOAKRxU2qRnu7e90e6wy5qYlxPQDAHz991hw8FOuiNG5ZMMwDQnl5REcrJkhGaOyiVEnAHlaofcV8TtwM9jddN9vPcwJAPhmS0pMFHnRf7ajJLhcYoNExAaCOjvYMbXN2wEA91vYTER8bwNjYRHAtwjZgQEib1JicDA159Ed+D5RH2LVtqZ/TMoCTbX8mIDyXN7BJQAgYYgzHjsFAQ/+jBIQ1kKqB3j43PWXnC58tX8bbzsShtSSOTClToYbQQxrKYiAeaIP9ws4bFQ/UZ4O//Yeikfu1GGUkl2DIJQAdHBxpsW3b3OK4TU7/YZUNqgb563kovXpb7lcssboyU6yEU5UYretXnZ/X2gm1NqhfLN7bDryusG+EH4wDAGXxw4wAIWJ9eDgDiuVfkszvtnM/5G/MCVTzvb1dtYn4nCkJZ5WhVVwQdiiK2yEkn/IgTAQVcHtblShVPxoAwhaER+zyEvbDPPRgxG9pC8oRAEVd0QeRlIEDuZuHhodlgFsSXS4MnTww8CIsvOsdnVS9+DwJQg5K17979zuMwHgcuC71UagvhKGVIlIM8lOrXqhRPPC8TQlACKJj4pPqUSq7BeUdUA/xPnk9oaogieLCjxKL76zLdjT26b1cz8qaz1+1bqVqVGZRP+i2XgKENqkPpHgg6gN1qDxHc++gNdRoX61gV0kuxMeqYB7+sKQtq8dtdZvcr33Vfs63iirNFzksbjo2lsVgZ7Qn12aDne52KNu9zwb6+wJ7zaYEiMf5HISFjvGbOB88P7A5wCmkuWhMmI94KT1Hi/iX5L3f1LaHfh77kgqKbNe0Jvc86TvkIsLqnmojw9he7KGh6J5SRFaWF4PAAfxwwV9ceKlWdtMInukvtqDywNRcY3gaNTEnAJTq/WJaMbkwPr9//z4woGYZ3FoUGZy5o5MABPggoRyE7gdA/hsLUg/2gNudvByM3gMD/WECMtEi04gDk+vn6AXD3c6WvQ31VE+sD4Y9AGhmZi54aKILOG73G5kQ7aEbYtb+Z9mPpsdHrU57i9UfqJSr9hdrKDpXDpf6+YGN3zkvtFHlUW2VdVjVy/9SVPIra2tWvpDKN7AI40E7ANOoggGk1ITGeI7hnP5MPVL7lt9igCc6fHtvwo7zJ622TQX5+2/2fqF2sRf8yqzJ7a7yspfdVlX6wtpb2xVQ2BaYYur10l+nMx9icHAAMO9wfOAcAIRgQ6QD4Z7v7JJDRE4J4oSYx08toDCOT4gBLcnWB0tDDezv7w2C+SnnJ2wUgeCBiWMaP2pH+3bnKvWmsaQiJfWj3Q2PLQgvHZqL24KeZu3kHIAAAiYqOym8//338PxGOV/dSnwkAhQmcP2IgPO4uJ/IHGZn55Te4NsIAz5IGNIuvgX74b64PiADAGKDQMpSFya4NTXBYWfYAfBK8Nzf3x8mIMbxigrfwYHzEM6P/WpuUZnN+u7m6P/YyeyfNlh2qJ01VMpV57rFDsspbjyIB5pTPNB6sUIhuv9D8UBvrLerRXtppXsmnZFC3//4488ARhGAPAbnuhs8MgjA5+IyL9wjHtCjyykrVeXD2maBp3K/2Pki04HqtbelKodTqvMzJtWrvl8xM2/cTa5939MBL/0cSeYzLeDD81kRnA6EXiDto2ADFElTQOUASJ2NdmqxebBo+nlz+R4TAXFRGMgRlIDm27evQ2hIsLuoDU9xoAKi2jM3CUzUtooSjLWKS/LdVLEB4ZaPtiDSM0LRMj1Hm22qgMlVGx8FQC4tk7YfGgWq4wbF7jMyOmJHev3rr78FnRtbx/VJpJmqwycGAPTwuB9C3ZmAAACsAVfioJgPbnekW6ZqheHiOfiH9jOxiDxlYkP78dQQ3k7CKw8OFqYzJEo2TGoyzAaXMB4REiCxDbGw6ScOkji3d9kxVtX2Pv9uaxN/Wsf5srVebig+SPuL6fGQg3igVeKBEg222/g3S7S9VHSxPDICoMgiECJxwcIkKHJ1rs96e3qCOhs8UYVe4IoxBWAL9Z7cIiaqmm5zGouPUiHzSuetuW8j5H6VVfG9FJqVcgPU+VmaPbP91To72hJotPQGb1VlJfV0bs7X8zafBbaDzYf28oBdwnzc1sMOqT4GGGSxESIkYOoAULf290JVI2P9KRZavE0EC/MEZoYqxvVhQIRCuC3o6/CC+NvHPLuAlpdVMXmfP49ovh7oXj0wkfsuKCjWeDN+mn9XRmiCFZmPzna/rvb5mPbE3z4KgJyuOgDFEyK1CTqkRg5GQIofvX33RiHx7WFgk4ObVL34bRKEHJTi+bJ9Ttp+lm1BuTf1CgB8ow0FsQGxMJ6KWnu7ZVfZhO5vCADnbWZ2NixUJhZuXuKOOPiu2yE8dwwpSJ4QvyNEAXtEOhM6lVEaz9jE2KTNT45ZwcpnK1V8UHfpqbUWn2bbPde+Jy3Htk/ztF1Pjc1Xvrbzhv6QM4WdBOGBxwb3OQsbINrdJXVkMbxmY8IqVQnEW+Jg6SwCWwJBbrBcwAiwmp+fURjC/7PSWjG9vx9bZR1VDa/Pl9SGLUwoSvmDSqzmdVpD1aDU9rYAIlzrNsNzKvOZELCj3tKPznxihHMyq91DJKQKKTl6Ura6BpXgRVARrOhZ9E9nC2IOoNbCjgnPwCMG8BANHw3S9ElynaT20MNf67I6LkNQJOxwZ2dT7TjUTrllVif7KAB0IcGEAMEWRLlWxhTw+aEBKL2jSHeYnZmRerESJiwZyagZDOz1IwlADAqdw7O/vv7N2975b9z2Q67X7s6ezqE9xqV6AQBcP72Nt53vvn8DUGB9AXh039idjuV+7+vrUYH0Xg1mktFw7theABMJPKmgQ1gbQMnDPWTsOpH83Yno8+KSDOsCq83xP+xYnrHugi0VMNuz0vvEB6mbqU9zqgWwL3vLulXauOKB9quUpS0GVl5eGe6FoMjIgJCcDu7Loe31smlVaIHjWID5uH0A1aVQE9V3P4VpsCnjxuaiLSyNWHWLVNF/qu7zDcHGJ0o0PTq8sCVtrTw7XGyN2r2jr/ttCFMATAC0TEcq80G1ZTETd4bKnc58UucAAMC4UcN5enpO9wrQWmCqJGyyCLMxdmdqUzafMQcAQdQhhNCx2HOpTBPMV2qMR3U9m3Pd9zs4QebknKEszubmchAagB/7x19eXmXHa87CfooVohBZEEKcdgXuygDn6Hg0A0odWNpEUuWwvF8wIHa6YMK68TndvhABJ0n1AaH7HtdtP9Jt1TedcvUDQBSXZ1E85UFNadIoRkZGg0RDihFsiUTl+jCv9D5iAiaZ0GqYhKgO171jbhOi7dzjoTLK8WSMff5gSxOfrPFI+2mdLFmj4oNqEtmpYl+uK0A70qRfOy+zz0XdtlHaZhXVUlWrajQh3U4H6/CFfylpuReoO21BVcC2wj2xkD3eSeqn7Avs3MHnZzL2hoqOtmXnBUvW3KWNB38pCN4vzpF+bK9TYvVMFQ6rbH+t0TrbXtjrV2+C8AiT/oYJ7xHP+8GWglTHhoY6G20+7lZOhjjE69KfPAiOJU4ItzhqGbY6mChCCwMsl00fu3iOxz7Tb7AggJPrA6bkSBIygvABAJ/ioFjZ2vqWxnPWZqYIUymwJoWolCg+DhbkBcvcEA0LCn0oQKZNPBA4ueyTnAEQk5sKfnTqZ+14sCUjdJdiLdokWQl9h5pfP1IB6GG2H66JcQ3WxQQi0pNkv1cvB0PcD4vpus3pegse8y7cr9Y9Ehd9nvwjXP+9vT3B68b9MolvOvi9/g/sAiYEC2IXBvRxVCFnQuxASkBYQoudYLbjYDuanxq3y+XPVrQxaV1FR4oPOpZROvP+Yiy0kHEvEc+eYt5uAFAMRdUEP+W12EZZu5U3arPFhhark8pIlYLURYDRFMMtB/YsxpOJyLlR1WgXqQ68BoQ8/H/dLhObVl63aU1d59Y1oDD/ctmGdB9MYDyltIdCZWvzeaY69ZZ32mKlBQoNaOsykkeRvpmO68yHwD62PNoMfXYb84nnin1PrBrqphckm5atiFpOdUF4wQoAv6eaP4A3nk7mDqoYLLNfoQYIMErU0P+5XOjx3mHou3toKdRmGtL9mQDIc8MKE54lT62gADxqA/MvsqCnUMVyBkBQdiYiC5KazwRdvXr9WuHznVqIZIIndXDvjMcBEJOIAymIFGPxulG32t7J5oQ6w+R5ikHkukwgVC/ifcZlS9CS0vUKZcz0zGteE2J/28E9EHh4duY1pmFBuIe5HxZgp1IkkOhIdm6Xhbcmg/SKAjwxSm9qV43BQhVPlypWrvigkjShyfmJSKdCHpn3jJF7NBw8ti6KbOS81rYquq22/+9W30Gyp3bVrNQOCpLAgAwHNW0+fPgUfv/y5UAAd5eGAhSBCP1A25zVnYWxGBYjPMtfsvr2DWvokErcTuqF7kGqH6clEPFUyabHh7JLTBXZ3JBsEVU92tvrZWCO2HCcgX3dg18zn/IAikmbD5L7bqNpVMUwzOKVBARgsy8UoQzQco9fz9uv2/OQT8LYCIyJCwKAcJEDfgAfUfKM+VPMXeYbdlpCRD7KW6wRkQ2sxl3uAqC8UCdIIRAhKFH3f5Wc+lS2oJwBEBN9Z3c3ANCMAvCQLm/evLlKvfja++X4AQjBfu7PgBhAzgHjmsdNLf2f6NIGGdTI9cF28BQDGCcbi4A6N7hSSXYl3gcjJjE/RF1ne23uA/sDqmtkQri9UQNgQ9gzOB+LgQXJAqG8yZik1/LUsNUeaGO/42WVcj2xuoITNU+dAiikMB6f7LqIrhUCza7id3YuEjZ5UmZb5V1W2v/vVq94oI4W1UGu8gA0cRL9hL3hlxXT9SEAkLvhr++M6vfggAwLmp2dsT8//GmXRYvW+mLH6ltUErQeR4BsQ8qIhf0UFefb7pbYz6JUoaVKqV/1ikXq1djFKpVfMwAHOfd2YTuBmaG2om53dLRL6HhJ1WxVJ9qt/8M5AP0Z2fCIEcIjRpAo4M88eqqD6xMXhOCECSEgAB6ED2ws2/u4T/sQGFwHxj00pPK4V94w4n6w+RAPRP6XMx8YEAZp/lYS8sSiShxEKw185JEzAGJy4HpfFwPCwMUR6v60d6R1pDOfaO/xSfBwAGKx4iKmvk6FFi2TsbOz/Vb155F9Fn6OmxfGQrQ10hP6TLIrbtyvY51uvyJ9gDRGMmETwHtICYdoE4pMqFyTEzX3WPt/L0jlXNBC35wesbPVSXtZtGmdhXuWB/CIkWBjCEXt5dIHdNi8EEaTOqlDPNBxwjZLWuy889+sSvFAfd1tQQ0DQGO7CESMDCgdgOIcZCF7TSTFmsxO6fv/awUVy6r7c2TV2niwWPt+sdpTAWhpxmz8g9p7pPKpRQoKbKeedo/6z8uopvdaKvMZk1eQdAKiib0ovedU3Zf1xntEYOIWH5Oqie0SAGA3CVThpzxQidAamEvMIxb/27evJMxar41VLtvAPTO/ojfs7OwglObFCYExmk0Mo9oVAhPlmieH0rPkXatgfmQrZG9r+4MAyCcdDUga6dBnobKAEAuJwD+8X18PYBKA6AgegJE/39bU63/DJnJ2dhoG7fPQcFCB0J/xIpB28VTG56hyIEGm5EVB7WChI7V6e3ukuqSzvevtvukd98+5k0xoXqpPZiYEkIRUDYU7jCnLfF0g1K29xdoute/FxbGVXCrvjG7VAfgEdUrsCYN46nGo/cJWFA+0rgJl+81/s5LONzbYr0L9Mp775HL1inZk2hs+eop8HFX4XvaUwEgXJ21CuV+lNesh96tK9c4KpHKJ6Kq/xJQUPaBus4XxPBv/QzFEFw1WW63qACpShwoLC0i1gVxnPq6iorow1jAf4nwor5F+f6n3etdrBADqNCEUgDd2M8IiaM9Dx/Sua/J35g8eMQDIk6dPlTo0KEdGawABdoPNxUJPb0v0hq3JW721taxrKV1KhetxvWMLck8gwkvqrNg3QoGNQ+kL5h9AmYt2PQiAMnl2yPYeGx9TDBAFsCuCBAHFocXXDwebqHbx/JDjRJnWGJ+RGlT/B/AGBvo1KbVbgtCaxfEUB5MTaUlpBbKLW1RYrUvh/EhM7E4+ONcXerbtYCFHJsSEpGg6xm0WNcFyX5iQmB52l12pvH/+8adNjw5Z5e6sVR8uWqdtW2PBkRXIg5EvPT4KiUyTJdYH2iiss7XadwpIfOUFyhQyEY2vXCdbAArgI0a4vD5haztDYj7aePCdvF/aeJDru6yRW39X+8OtnNriZMLmRpTSYaqbLR89NhwHlNoQxxNtQEnmMxOKy6GeUkQslfk8Zrwj+BMU6Ab3qSBMiSMbGHgRWO1TCjTUVupHESCIAGKcKduCCoj9NNPYZTunbvoe3rB1ecMWF+cVMKr96QR0zF92zQCAABgO1LJifUaGPCCFSsYjqmI3nT/bz3MCQFFyDw8NhY5kIhH3AxggzZIH4MM7nlG77q96hV/rJNhCiPtgcQBCgB4GUoAAA9pjpGGyvV+/YtG7vWA2SEyYD9fF65WL0g5xMaQyIewd0N9oE8JYyUEJUtSGmYkJy99bsbLDVeu8WLWWvB2rUPnNUrlYbzuoD7TLfmH51TZb9sLyVB/o5eu3oZZy7MP7AFAovaKtaKh8eFqgbW5aVEytr9DKKtyYjdeLubKxon3dJxXxvFGtZFPtJltQGVTm4PGT4IDBokqjymLMR0Vxm892AGNsYoQ6oH65R+5hgB/7JjI4BAt9ikoPGyJ8hAf9/bUgjb9+3HMUOhihR0ZGw/3hBaUPYPRsDR2FyOOulPw11zzCG7a7L++xQF0CrFAqer3uEwaUn0+5VndCeECiF81jJ1XeBzVNjDoXwPhoAAoLRvQVA/TQ509anPLK9FyFlisCmOhYP6Ka5bqBD/r9AYjfcTBg2F8AISJhmYx4L4g6zsTQvA2P/xfdeW6OMP7twECwWQBAUNbIGh57Fe7xOhNip8vlcE28MzBLDuwHBNMtqB/OZRcqON62Nu0v1nKxZk0ll4oPutLDbmgQatqJVKE1K7MR1Qc61X5hL3/5u7V14LkkJkQRzfdgQIQhfJIUP7qYsjLt+1XTdGp1zQpQvMr9Clssy/O1NHNpk5+160d+h7U2vJL9oUJjptQQGWIRJkh+AIYUGuYP/T02NiGQL9XCrA+GeQz+2ClQCViguTjoc9R6dssgSJA2lZQkgmoNM3uKw9cB4Ri7Ar3ZoIrR5whUYpK431wCUFw/MHm81tNyGH38+EH9mBfigWA3clWE+UxKUEjNkPuStKJSCcFce8MeDUBY1In83ZJHgsJPu6KxL1++DLtuMolBTT+SAOSdzuKIn2U/tPwWKRqlLfScMpO4L5m0MJFcIHN6i7A5MTEoazk2Nh4GiAWBhIQy5xr04n2mMyFYAeyEAyyGRdIfeL0uDvfsYmXYSrZnrLtIBfgLj0P9oJuiAfg9ILRGfaCzRjuslfv5l3+3li6lkFRp6xhNwNsAyGm4B0piy5gLeUZKWk1ok8Wede39rto/1Yqulf2HY3+XEquqkrlYYmtzSj+o1tZFPa8Du+PvABA5WlzT7S5Q/oIAtHgcnRW0SthUf7H55HKsY5/DtqIzANc8Aqa39+H2Pe7ttoPrwugRMquy6yFUsYG9ejUgJtisvvjafnfb+e76G9cLtjgZ4/DiftB2WaYdVGtrvFh9Xj6R4IQgEBCJ99XTbQhWLJFKSNlWwJm+D9j/CAnwaADC/b4rvXVDk2diUkXHZQt698sv1tPTEyZwkhU42ES1i+eHHCw2JjvSFqpMZ2KwQ1JAk1ONlw85/02/ibYfrolBtl3evYGBvnDNsK/9Iwbhpmtyb0kmtK5FsRIAkHvnwO4F66MteaLMR6pAOfLn/9VWz5/speKDum6ID0q9HmJg46zIPh9V2q7icFrf/rc192ji11VoohXdCUCcC+/X4aEy9+enFYT6v1ZYsWQ9bw9lA8KGIIPlFQKuLQrAhyV5dxQhftYll7/c7gO9wWbHeQBbLxkxH+4TGx8GaBZhh1gZ8THUcY6qWi7Bh+tz0OcwS7ZP+vDhc3A0vH4tW5D6+Sm3ViaZmmJhAB9CTs0IpU9QwxwIblenvfXZ/8t9spYIPfj4aUgxWSSn5utaUrFkA4IJFapaYgSgkB0v9assxRvG1SIQZX/l6998NAAxQTY21oPth8RKqv6x5XKXym8E1++XhZkKQPdXvWKzAR+yiYl8/vjxc8i67lCwY5M8InhDQGekJoyETubIxUQluhcjJbaBiYnJIBEJM2BSOujFFub2mXvgnqMdZEh2NqQWB8bYd+/eBhAqku6ODWN46LPig0atdkf1d7TTaosSVusSqh+k738ZivDr5D/bZ4U2dlRsO4oHKh/8/1Qf6KUKwGsPKTG8uxgQZyFZdkMGzYVlFdSf+1PerzXr/1WxP1feL2VmKDVDdYVm8rS5oHZesHZrrFOJVSWbdrSjSjlLBnCwS9C/n7WHHOyDEhLMpYEB6hA1iunWB0aQizFN9sD1V7BdrvtB84vKBmwggNrLvmEkjj7FtQFxQA8A4v4xTPf39wZ1k3EuKrq5GsD11mf/jrlFDB078x4cbOu+TsJYlJUqO16ueGxB7g0TA5KwA5xKFN3PGoP98vjuAITLfVmRubjfsYvQqFevVOBKOUPXByo3AIR0whCMlPjzzw9y515aS3tX8Bq0yOhdrboxVPYjCln9Gxbd9XZkP0Cp3yTuB4M3z1Dk3t6eEPeDnpyL86deK/V1NgCEpwZjPyxodn7F5mdnlbT6v5a3PGKvSvfDrhq31Q/aU32g+aNC2yxtVTzQvyse6HWIB6pVX2YDQIw72x/h/VrfG1LNZ6UVvJX3q8bjjqjzs7t5ZpRYXRirtsbaXqXLvAnufgCcOcNBKAcuaew9CBfsIt8DgJg3CFbiZLAFoQ7ijSI4kRIfAHmuxxymCwDj+RzTdXmNev9FsIbctKDwpE6PR79G3ZycZN+8dbFYbX4gYYDtje16oi0I8MM7Viz2g7CgThBmAF4zdo/pi3sxIJeg0vv0IkrTEP8zh/FsOagL5D/19Smk/9q+X0lbj6tgD2dA6Mq4SqenppT79UGS9dDqGqqDN6SiUgWWyuRRobOUhBoQW8iNd8ptCsQvJNueTccBAFBVGBfMg/d0PmofW/8mVcxHz4WvTsC1UP0wsmNwxwDOxIQBcjD4BI8BusTEVEk6HxzJziID/czQH7Y7O2RtZ6rFo/pBtTIbka6R6fgSD1TcZHtNv1npVTwQNZi5d1S/THFAPvnkRRMowxQ2d7Vw8satqvlAlQ8TysvzVI2tNRmetbng4YbOdyAXc2N3qBSAt4dxAeQw/gLsLEDUMNgPWflSitTfTHg2FmBLpxaNsRtDGcunOgAEbDIIHeYbuW6DAvqniguin2E9XIuKiXu7ezJEuzeMCpQYpbOZr/fpD+YX16NUK+t3c5N4oESIB8pXgbKLCyKiARpnQHjIgoqGmibwyUVu2L0AyBfv9UGn4NjExHiYpHgsCAjr6OgINhnvjAg+Pvm56WgHuk9nxe8Sus4knZmatJGhD8olUlGJinMFuqnDCkSPCyrk1iWNoUptqbbaEJ9TF1SlEpWhZNG4izE7KcZERAUaHx8PUhlDKMATN7N7ykXApIQFsDDZ3hfbDwuAMAcOVC5yemAgeMcwwlfKC6guttFhfX9yxBIrH6xyb9q6yy6ssTiz3S0ZD1Rvq7VvrUjxQK9ees4X10FK3gZAxCwRi7V3PGmFVdOy/RxbY8z9ktdreda9XtqRKni9WpragzrFZGZRAaqouDMzsyEYDzYHwLvqURQ8Y7ARXPN98jpG9zvgn+tFyf1yeN/vhQU6MjouMFq0d28VqKmM+cACtChzefi6YItv2P1sGHPNUM3hKuvp6cx5GEDq9ahHtbREPtxMsNvW1qo+kIzPqQDk9yzgkTcMgc7YfXcA4iagzKOjIwKFFU0MJdPJGMwCYfH7kTsA4nrb2rJmbn5ZasaEUhGUzXu5aq11B6HM57kVSyXTQ0bVvHzpsQlZ9Uuq5D6ssUSxB1hBJelADLjosyA8tW3ITwr/yVgSBSvXQ+XjHql0SPBhR0dbCHjE8OwlG64Dcq4mZZSICwsLmhzLsj+hjpxqAbKTgrvh3Y3qrlsmA3FCLFxAaG1N22ELsDYmfpdnbMR6C7etpeDAiqXtpBckJB5oT3aaNeKBVIM5r8XjgVqkbuCBAWAAIDyeqakY7B8OewEYR0ZGTEkYVtW6KAA6sRrlfulPocTq6nxC+7pXWG1Fjyovvg15c4AM7AbmwwIg3YNyIzAf4nyo14xHk/GB/cGwGCO8gOwq2tHZrsWCjeJpQIixp78BRiLtZ6WKAfKoYYR6PIW31dcTwbVLwSNIsCBCfUDueLy8aB25Alyupf/D3CYHcU5azKQK3hFsSD4lNiAACIHNg/nFmkkAPFfrJ9qCHtOmRzEgFgmGsyGV38B92N7ebs0CnwYBEYshlwBEh3GsrokNjGmv7cUp2RUmrL581Qa7dq264kzTOU91c7Qlzq6SVPcTtnNQYkenpdqQT8ZUU0Z5viZOBQmLBJbVWbW8ZhXl2g1ClJ6ANzpSfa396rmSD5AHHm6GRYAaRkQyXpEwGMH+w3dze3CrLGzUzU+KtsbeRZQqrAvwwePHgZ2CcAQYCrEysMPBwf7AQAmh5/2nP98bmxx2nyiw7nLNqhUbpC25rh244k80lmuXFTac12Fn2i/s5S//sFZ5nrCn4WR4/z61JrQnozL+eL8WlxSnM/pZyadS9/o35X4/s7LKAjtQxPPizKntrqjS4laztTb2h/zAqsrqoAqjvgM4MB/AnT7F00WEMwXTUb0YExggxllUooXFBWM7m7dvX10BFMbS3C3M1I7h/rBBwe5gJXhZY5AkwjaXgBCvi1AJYyrQZ1wxAsNGCezNpTs+AhBjwDyZVjwQ5Tlw4DTJlsr8AYBgYYwBcUDY6wAgghGjNwwV+rsAEDdA7ZdtFXX69OlT6LT+/v4QE0PJThrrR5IB+U0n38dOz+Y5XE8TYkG7CXz4KMa1PG0XJwvWUr1hr3uUcV11piLtear2h1dGzEw5TgfHhXZ8mtBnCT0X2fGZqr7lKdO7ULaH4koheZWYUbkVFuFlKFfny8IvYyOLDsnL7pAbsm9gA2GhAAidkrz9/V7p8KnsP0x8PG4sPLxuqwKZHqleBMNByVFNOFAPD+R6j1tQUxMHdoe9oFETlklDXM3GwpTZ0kcrVXxQl+KDGgpPr3nFAuAJhIgH+nzWYEchHug/ruKBymVT2rDffweAzq8xIABwa1vlWpdnbHpWwWzlK9b56lg1gC4Ci9xQtMDMsBp60mzV5drdokUlRrq0u4UWFfYO0g+wayGBEWQscNRInmEZSF4OYr3wjgFUlD4BBDr0PTxigHEm00D44SP/Yc5RbwoBQD9iOmDBwYTcyZJ74HN3/HZgnbNzc2FxD8j2xFbOHn4QpOMj78x/7vennWcFQhOTk/ZBTp2EYraam+rDtS4vlb8nAOIZ4UCKE6pXQvZVXydx1wyBEKcEke95PJgBkax3enosHXkjuCsJIvvlnXZX6O0JjILJ74cDzmONzyxKbDEzs/P2P//7UXFHM5bI27CO+u0AQI3VZ1ZEwJY6gbKjl3rWxgzqPP2jpMt9gdLWHo8C29hN2OGxAOm0+P8n79y/qjq2bV2L91NAxEfUBEUlxuwkZ+/TTrv//y/33rNzo4mvGAXfgIIC6/2E+31VTFkiRoFJtqftmbayAFnMOWtW9epjjD7GCC1UwK3COAM8BRsyijbJAsBnBP0fJhxpst7Ll0ZCiOrA6kyudfL5/VGQf2dw9n3zPmVbmh76dxR6fnd9nrFNPawy4MtA2V3a8Zcl+DlNxjhpMaHsTlHcWA8Pfv1nqL64H34YoNUzWfN7o2Lyy6gHqo2F8gThX/RAZy+x806fCCUSP2/d+u0DAHLiykhf0fdrae1Xwu/r4TLRL3yV+OboCb/YEx7dHICdXsJ/8hMTW2fqaDS7dpnPAkA5EMfV0iNJ4WzL4N2F5rN3/gjGf/zxMI6ZPgn9YSaM+iyO6xDkrYckG9EUFfCVX7gJud7yngMCXhaOf4yf001+bi4FdSIDgXXneSQfZztWAbh18zfGMpDfaMPC5OPaAnxkQm5s3QA0JAihE5Oh6bA+bDj+0ABkhMLojPoUxXlGXn766Ye4SJwc7hTpyAeAVG660J48fRn+++fbYePNC0o4bIaLM6UIQKcnOvgEyKzOHDiCsXPYlcWrgTO03sCpi4lWqffwfW9otvpCFYZUayI/L1CMqYdaxwMWXCc1AP9Rgdf6ejG8ph7zOJnC06ds8ZM6mw5BQ9Pga7J5MsEuVfuL3xzyf4KPC9vMaHf8kZFR2MBYZJaee++E95y7TMhw+FJ0nLpjCZhTdIOVITwjgldaptTE5sMw3VgJp/pbYbzXKNPusc54PKiiBxr7mn5h/ws183y4cG6GJpMlWix9CED6R/THrW0uhEr7XhidLoaLV/rDVrsQXr0g4XR5JJRXqY90krA7AGr/LeqFULtpI/q1ZD4uaPO59jKf7s2UW4yHZr5mmFE3Nz71QfPzV1gc7sxHMwV2R+H9rwQ/NwETN017cb6bpCoA9faqGM7XB+Wz1AzzXp0DzgXzDd34ZIV5J8V6f/r29HHeuXOXOdxiE9bJjAVAZcRtUoUFIJmPc0q/acwPMwrG79hRNYkVD7chHxqApOOxABk0+jG02F3373//j4jWPsLdhZIPAJn9LuAtPn4RAWhznZyhkVL4moxrTbAPAOj9ecTAChC8wApAnUHlnYVSoSD6RglfVg2HKcBUoV9WDVFerYPfYmuS8pXtsLneCNMziNG+uhhDwWdR41qbx44C7r4D/dJU79P77r73PRfxiW/9G0a2SoRgdfo6Kawx5C6v03vXrH3/D/k5J1I3E3r+/EU0Xa5epTXRzGnui5rLa6/D29//D501HoRrw9VwbqDx3h/aaPWExUpvWB+C4c3+Zzg5C6MlAtNC6vDrr7+xG7ffM8EE5z/wx5Xqi0S/HlHStRpmvuoPm28L4eEtym5UZ8LU+CyNBb+GrSBMxVmj2lltjT4fNypZT2I+dunUn5O0Q7vzx+eWxtbFqDnmZ9UJ6RCen78aAew4wtQOjue2zIhBgN9//yM6iC14pxmmgzhF8g7/zN97AHzjc8x8e/fuPYjrSnAWgDQ9NX3yPrhFNq5UoKzRKHNPVM40FSNaMX0RgFI4PtUFyvRA/ZAM79/nqLnc/cw+9xoPD0Ds1OtQe+34JXKAXDg//phSMN4/eT4AZDTKHVMA+uXX+zg4X9O6pQ4AlcLVC+vh1HjrfQb0/kXsfidZyZgRICQzqsmOeDWIBMmMGq1eQsqDoUz30HKFDhJV2NUgpRHGKN49MsEuMBX9R4ND1k9hEqo54n2QCI35U/bWji8ceh5O4s95OE4+HZBSfXd69TDmA126NBttcnf5jx2eYy8TsmaQ1zeMP278xBSFyiiX+uheaKw8DGebL8OpLVrC4JQe7mUGcpQB5KUaSaHUB6qd/j6MIUi8dvVaNAPu3rnDfRgFS/W2oYvRNxajX4Vn4eTFlTA6Qe7ZILWKXtPd4j5tevrPh9mvKbF6EsDGbyWwGjEzkumGlSWd6vMx6zuZtekO946X9yc7tLupETGr+QnIftZ0ha+oJaT4NO/D8xoN83p1RusLEhA8p8zNaN5RNp291+v5nAcyLQHPIIgBiFOw73PnTncFd/Z+8mjfmwT8xx8L3GeR51yLoKIiWjFiB6GqQRpFt+aDaYq5WTi3fP+XAFCG0rEK4pu1OGg3btjh8eKekcgHgNz5ouDt8ctw+y6lJGvr4avpdrh4uhi+OYMEYBQZebcJtucqPvYtz5sB5yUo8XIp+n25gkhrE2DClyFAVakcWMVvVG2MhiplTLd7MW2oozM0Yph/LJyYpDQEkZER7OJRMqjHRo0a2Ozt85mRC2xx8XGMuLCnsiD7Ythd5/PnOFqzybvLhFYj23AHvwITmqDrxdLS61Bcfhr6Xt0O4xX6l412wjQ7ngcaxvC2SdPC3snwanwuDJ6/TsTvB7Cml0oHqePIdUwpF0QDtF5ecde8SePBpTD7PZN2pE2ZVRoTvBoJb1/OhNM4s3/48Xuc+sMx0vIc/11iPn07zMcUhzNxIu/HfOJFdf0vuz8Xi1GpMo7r6O8iTH39+rcRwLp+PZcvPafmv1qlR48Wol/OQIBaJFnJcUXD3HwePnwUzWkXueeR8Xnu4zgMBgjsxeJb7rVIhQJlHePRBGvRQ87nI8tReiIA+YqCUMyyYwegZI8X4i6eviYETBTDWsEyICM27ljz8+QQsTvsHgl8/P6oTmhDhUajnjxdouMqlQgb1AKeaoYLpwCg06/D1GjjUAD07lp3mFG2h9brMB/Ap9V2AsKMME9abULLAFGl2R/aWyOhvc0OUYASFxDU9VMGpH+Ch2E1vzF2CuxlvLE9gIhlLcdwao8Z7o/s6EO/gbueaS137/4elbBqYZThK74zx20vI3h33Xu+cMFkTMi6Re7Y+jC0242iiLQtsuYrLx+E/g0Eij1vwkwPJTkha3w06oFWcco/Gfwm9FAf6Nsbf4/X//DhgzgJv/tuHrYyQVSwGlZW6QL79CbRr1dh9juy8VmoSwucvzYTRgZwYNNpQ+VyAwAUNIzWaUarEct8Ppka2tv4FJPw3jxkwnaLNfteULP/mpufPgp36bwPx1NQt0yH96GD3MWXRKFnPvvZHOS6ZD463WVCzg2B59Kl2cgaP3cufO75HFed7J5vg4hntbrBWA4g8D3BuQtYBeQSkpqhGZYBUNTSAUZZdvyxmmD77b6GUVfQf7yF/dj4XofslStzMVcm3XgGPmnSeJMJhNL3nzs42e9J3zVLnuNkffKUpNfWZpgeI1+GKFguAJSdaOfdh+7E25nzcZIV2AWaAFId5R5+QnxF+DSi74hIU2WYQlyJGW33mTBJJjFh/cFhAAkqe85MbvQVsiKb0O1dbLIfmcpNIhHutC4oI1maGQd1PDrWXn9iQqmY17PnL3hONXqmXYgLdZnIXmvtaThffRROd1ZJ1dgOAzDAFp9bBVh/R7XcmVEP9A8c88MowR9FhiEAjaKdsqTna9oCLb35NQyMreF8Ziw2CuHB/y6EscHZcOOH/wpT06dioSvFlCaXOkllPApVzanKfD7Z0O8dk+zne9+NFClgvHfv93ALfZK6IB3DSRyafwVBx1MzTN+VAKQvShBQFS0IHcchs3v5EiEpGiw3X4WPc3PWB1J/lG2TRz9zWpfo63B6P3v2EgBa43zrcc4JQJH9cb/2DDMVI2M/qTDZAPNzNJrXfzkA6fN58fw5O9Eqi5SWMITpZmdn446dhmUXgNJN7n5/kGHzszqMbSJneVI7hK6i8u00N2IU7MzEm2MBoDaT3HY2gm+in+m9vQNM/DOMRZ8RpguvCsmcpVofC3g0tFjAW/TZttd2ZxumRKh/aBQHIi9Z0RCq7H4W9QBAJCuyblKFiJK7njWJDakbdrcgVRZpOciY+buOW2JCVXx15PsQ0pfWm4bCLXDdzbDFRBveWAyTZM2f762EiUKdsd4KbxBuPujMhNIYKQAXr4XtvmEm6Ap+rZ4ochQ4jIDV269Cq49yniNF/D9osMqjtApCykBW/eW5eUw36k3vMGQXlAChhEFG1818uu9t79rab7EJrl7no0ckrd67H3OXFDDKFn35zPI8HEsXooxfqYPsS3Cfn7/GnNe5nqyDPM+pyyFLfpY5OkfU2al70te137gc5vxpbdrfbj1u8CknbCUCkDWi2YMBXHRjMKDoT9wxv3Q+qweSCSrm/csByF3gCQmhq5hF0jUn1wV215OEfdORAOeoppeTTXZgEXJ1MW/fQuOJ6HRa69SUeQULen0sAOSg16otaCc1UmIOWeoq4b1FDsf/ut+bsiJetYZq7AITFKc2PbDWy4MkaRJV256kUuAkjMC2xuSqTUyFUXwyMqNpHKnudOtv1/hsg4LonZjuYeToKBMtA+8m1RJNd5Bmx9wx2OTEFCwNxlNGRDhcfhG+LSyTtLpJGIbgAqksD1sTYaUHUeLIudDsHQrtZiUCkMmvCjRlwEMnyvT9ekP96Tq+MuQIFDUbCtfC1AnKbWBCOqllPgK4jCe99PlY0OrTICEY/dn9y0gWKAErG/JpOF4u0uNwRjsPNWVjMXciRhuYgddxyH9D802d5926pTT/j/b/pIi2zI0dM94wZv2RAZmS4fk+Z/w+5woyANKN8vp1yglbXn7GJtkf/U7RBGuwESM50NeTmWD/cgDSXJCWvyZbWJ2KjslUhH5q577zBSB1H064DSIobezSrVYRhe1SODlCH6c8fEB7nlYCoCZmlHkwqdOFC+ljh2VBrErYwl/kC8xkYei8ppcX7KhGF9JaW3n7IL9Hoh+KbF+DRNf6B0/AUqrcW43vkblDt23oqJ9EPYa+G5mL5/cS9rKEj12TP892b30vGRN6g/nU4CLrKLtrpc3QX10L5zsA0BZZ81tlWFwIi+0T4XX/6VCf+Ca0+imCj3/KCWjUCZRCAc8GMLhB3WeeAxyvuI5/oPcsjQ3nwzD3I0NxFzfsbqRI5jNNAzwdm7saMa/Q0HPqKVavVzETqQGEg7sF45Al6Xz9mNYm5ZCtxsihvhIZo85oweDPgCud9WD/F4AUTxpZfLzjm7l29Wo0wVIoOl/fk1Ffle2yYV0P+g6vzF2ODC+q9LuEmge7k/d/OwMg783MeEW3T2jZbCla8zpVQScfkCH3DwFoVxGdtfL+9MbSfQWfFYbfj2I6uR5SglWaaERAaqhtb2g1HfkCkFT+MWUKijg/8fjCEkphu/YiTA2TIf4FAJD3nDGinQF4970/b7CqGwASaz4ypDfF3vBmsy9UiKqVGzQHLBZCudpHCgVFt6LzGcEjymHFhL5iJwL8bGYnHHTuZZPMMh7uqCs8s5Ti8RaQJPjXwsdQp7khjHKO1j4DtPV5toWfh/pArZn50EJ2IOMx/8eSGJ1OIyytPCF/jGL5JAK3YH3ry8PhxOh5wvbzAApF58ked6eWCVmaxRCyZvp+wODf1qSXAa6trWCK1kinaUUA1s8iKO/3OVNjNAUXFx9H0Z4SAaUgKZx/sIWQPbOPvXtPmpE6wBcWFqNUYg5AMDKlf8ZrzPPQ5yQrUZKhpsvE37m5SzHy5rm8xzyObG64Qal1evbsGWP5R2RAp0nJ2N5GlhKd0PsDkNbPMKZYrKCIdogLPdBlHQGAquH+vXsAEBMX4LFspk3uNcXSkQ8A6cdwgvognqjmxetbwCEWjgmAsgeShI9NBvbzGNCnRn0vQ6qYq4YTu05ErU7O2mZZRzYMB/W1ryE0Rmby9w9RXoSi7cN8PcTXPnAzwp2EJgb2yoxAJEHpz2i596Up68aRasAs4097RSBhjYz1t2GgXQ4ntzfCFaJik/iCqoFk3qHp8HbiaqgO4vhEoyB7UY3d6tTCiyWKz7fWwvA4z6fZF4qrRPgKY2GS2kTuiu7SbkaCz9SUHUYx3UBPr0Mtj8/UBW3aQbFYgZ3x2gQgN3Co0dusv7cR5i5fJIVDpzeVDfjsXpNMlqorwHC13UFcoN+TDtTNSPYDrk89q/3+3esW8AQFfU+asyYmX7hwnnsb5Znk6/x2/pXLpWh+PUGB7bI2yGPo/zgASItGMH+6k5SqyWdOmKk8mQ9IxXMywawmoQ/TSC8/gy2ZvOq/4506EAgdGoCcPHdu32Y3XYkF6CPFhgnZnTQd+QCQi8ZJppfeXbtcofsD3RsDpsJxMCB3Ok2CFqhfr+MDGsgHgLJJ/Y4luYEBGh38RB38RcUqimy0R7Kit8U+gGkgpoi0WNQdsvjHyVMbH/dlAbITYYxQuDWPpMVWsbOrga8/OzJwzZiQIWwTEF+SP+Yx0VMPc9SSPttXCWO9mFBICx4PzYbN/pT9PoHfSpbb6pTD05d3MS9xYgOIbXLqypuYmKjG67UirGeaCNHVqAkz6pUtzmRqwQRhYs4fAxgKE5dX3sKoSL4tDYTNGqknw50wM1kPN65/E/7jx+vcbyqWvpeJ6xgWzBTsqRw3IuV5ZYwulL2A9Wdj86l/c+ych0X8ZwKQG+/XFy9gWp6Lm67RoTzPZ6TPNBWd3ouLjyNwGxV1AzgOANKpbpRUK+P+/Xucoy8BEOa4XYcLWB1GwnSGu8GYJxmL1LMZCkDWDzJgoqvgIKB/RAD6LT4I2/BYimMSfYedItKRLwAlB+ozWAOKZ8R/oVOipxQRnMGlXE2wvQCk+niIHlt7J/+nJuwn/113EnihdqajrwjNUQXtUZO8mybZ+23U2OaqNbb7+Z5F3km6o57eERiP3StxZsOU+snqHxiyCqQhUnYhoxP4jAa5btXY+lt0yrqAPHxTVOPYAeQAABPiSURBVLdMVQHD42Z662doMuF727RR7myEU/QVO99fQWxJ7/ie82Gj/2ToGeAcOKCn6UjR7qDJov5zk5a+/TiUC+TRbVNpANyOautxfILJ7EpCQ1mkoOMOWyrR/A+ms77ZCG83qSdebIf1Yg+OeszR5jBm6mgYH1oPMyMr4W/fzoR//DCLCjgpjvf6djIAEhBkQAJfFmXL+oUdZDHEAfrI/xw/zaIKwOn5rNEUJQUwEpme0oQ8AShjq69erXG+hzGiKQAlQE91zz9yqQf+cXZvMrzHjxeRN9xlY+sGoPoOAMF4BBwBiPC7oJsqjyY/5WFywo4OQETBLl9ONWjMxxnh4tJxPABkpGl04hQTfpMSn3+EE/3PjxWA3AmGhy1w9ufs4sBPfecDiRUwuXG8SruHxzCxRvFx4ZuxIqnRtWpzK6y+RauBzqZSGwCoLC1CnSNC/H0Dp9EZnYrivjHSGYZGJ3Bij5GBPghr2jHVEOc5yXYwKO6saj6UNWhSFIsIE/G5uAPWkeJPdtbDd4OrYahnOzzpnAzrPVOhMzgV+phwo4zFNkBV3lwDiGifg3kYO2diErozy8jSawi/oPWLznKn5A0W0Q0xV5ap57OyWg8rlGndIPO+1JwOja3TFDM7Q9GCcRzzQ+FE39Mw3f97+PHacPivn87G7Gz9jHt9OxkAaZoLCmqmZIeaKTK1PDcNx8/zJUX0Yhw7y4H48j7zbiDouQRtfawyPAFJf5h5c6lQW75Ob+ee51skr/POndufDUCxRAjza5CNz+d+0HD8oQFI2/32b4kBaZuagqF5IDqmIx8AahmtwT6ViuogU5k8fvJMBKDyGi2J++iBlaMTei8DOm4A8sEnYZ095ikWNgp7GaEUgmwCttJx4ne2YhZ/tYY9HpmRjkHa8MCQmjCGFqrsQh+vHoWQMiRBYcdnhBByEN3REItTv0yBfC6z2zW/NINcsP68UoWREDZ/+eJZaK8vh3OUOukHONbDeCgXRkKDv43tyyTDj7MFWNZgSGz5MqBJ0lBcGGZra/pUiXytYpoXoOPjk9NcYx+mJfWOi3T34L1YGQwb9RGufwR2p05qjJeyf8CtQJ3rwssw1vMofH+5E/7x3SD5ZBYou8h1vp/x7rPqMDYvUUQ/e/Y8gqyRQqtWfv01Su4YMcxv4/BczkWz1FWYp+DLyeholwXlxbZcP3bmUBkvACm41GdmlM9xNqqYlcvYWWxHfhPgPN/CwkL4jXUta40+oGiCETkhJ6yX5y/gyILU/8iCTNlIokQByGYQf5EJJgD9eusWA7QSFbtqMPRJ5A1ALlAXilqI58+fE8IuhEky07dRQm++vouv4n8uAAkwdSoKWlXQwwk8MgIAYVNnB+uRhZ99l941dRokbmm2rRfRp5SpJUwErVzbqXMEKG31ncKZPY35iN6IYv2T6LPGxgApwKNWKcZFK0P4kVytM2fORue0JtnNmzzT54/DYLMUerdaANog7ATzqINJyHm7D0PD7nqynG+//TYyDx3GS4DYLz//X5zd5VAYmAibgM3rjaFQakyQbzYZmoXTod1zDrZD1GSfY2B7OQxtPQnfXiyGn67VwvwVGhjOXY/n6v71jNXpH9QkUsipavjSpdnosPX+8jw8n+Fxk1Ktu2TARVmC+iYVynkegqugIGu8c4cEYvwwly/PvgP6g6rjP3VtgqvnU1pz69bNDwDIcHyhkDql+sxlYfra9O+56diuuZ/XXwdA6AZ+uXkzrBBuVQZvREA72AsyIO3Dyt6PkoKRAZAMSH9FB6/89OlzMKDivwUA6aiOIZDuGcTQqjGKJgEaPJXY5qr5qhtZgxlFRbalaLepAgl76cFnRN57aPLvVowsVYnwwV4uEzk6Q+jfCZ1ytpbCKik2G68o8YrZ1MQUaLIbNwF+3uIhy9AfY5a9eV1qdWaQDhiV05e0vFIKDxZo00Txty0SW2uwnEp9aMdsHIbcoYfCb9RTaHN7NfCV90KLSB7VZ7hfGgSFfmp9z57rUGqlh9D+LJvc/HsAlLEN51kS661F3Yyq4bk5f/9qNMG6h+2oX3su/UCaezIgmYCsX8al3CDPw3MJQlbDvHP7PhsEnUYI+fusZF6au3keGfNfWFgEgG7FgMYMfdD8uR1B9gKQDEgQsj6Q8gyrQfylDEjh0s8//xwB6G9/uxFDoMkplTLABR8PBzIfACJbl/o4AtDMmfPRCf3vwID+dJKxwUeGJEhxOFkaOLJrtLnAnwjQyIx89aAxIqyO6bNJukS1OYqUirIi45Nojk7FxaMie5wdrYWqWM3VwwcPopO6wnNWo9N9ZMxHs8NaxW48PRSvqnDCV6hpl970hZfrUzAe9EPhJIYcpiEJuxa38kAnHnq25VVFzDzAplBBlU02fd8WCcUQPmQAhe1q+GpmKMxeOEFR9tlY98edN37e+9bju3MoKzA9Yo3FqlxDU2V+/lruAOTpBCDrNAlA7vYyfgvoG506jkNwvQ0D0uI4F+UuKOfR3O1aGvmcNa3TAAN6HGs/cWsEHJKgdD8AkvVEMwzw0eeY+f/+MgYUAeif/4xFwr+/cQN6eJlBSV7xDHzSu6HSBEKHGapML2IU7DHORktEzpy7GApEwY4DgPTHZD4Z206rhzguJzTY/EkT7JNj1sWQ/HuyIiLT+I2SIhupDP4iX3CNei+hfqpA4sSmwhHMCMpMdKsPM6l3kByjPjtV8Hs1ZA8wThe2z7kJ/e8+NG3S4kN8iA+ph1yxNpG7GpL9CjKJEqZgsXECxpNARxGdjKnPF2ZbP/WH+gWbPsa3vx2G+rfCECVBHGtZRR//3tfTiY70qckhAHI6mneeMx3mQu1ekTluMTkWc0VzLAHQ/LEAkPPRdBbTghwH86O++QZmguP7OI43KLz1AVUxLY0sOhaae8nSyPeMzh/D8L/9dpvn9T8AgP753wDQ0stw/TtrQV+KiKhD08MJQvA3sh/Lt4qwhzncfZMPKJlgW+yip8+RI4UQsfiaMqB9z8Ls6VdhknIcgzjOsvKohzmXn8lSMGQTHkrSh4j85O1P8G87JnWiT90+oGF8QJ4zz8PzeD868DfRGpUxwZqUp61S+6dU7aWiIUrsxsnQ6FAUjLyvAC8xnUQgKhdL0f+w3/UIJrKSFqklZapINvETxQPfzhaOa6NfPVuE6ntaREk6gIzFzRlPIovp6xTSHaVCwAiOdzOrR4jiqarVCZokBEmB6w77sWcgAFl6RIfta2p4q1A2T0tTMe9DBvQcZbLpER6arhcvXjhWBvQ7JY+NUJ6msqVRt9iC/F2wJ987NKKopgr1RpRcGKX9YhmQAPQU5aSpA0ZCVEVmAJSGxUWc/EGHBSALnymEKuNg1DQQgMYn2K3xHXRqz8M0uWBXzq0BQORtxSzhoz0QGYSZ8Nn1usjMB+vecY92hq5PMzwZ28p+aqSnrz/nhcN5vB/8jDAhwCcyJH1IhvnxHXUQPnaGyW7HT4MAskLhtRK1oUtV1NnFFuMPneo6ZCKxvhCztIevzc0Dq2C66Zc0tbYRrvmDDiF7yxCNAjBxgxC0dsBlgM3KaE6sIgk4xZAu/aj8+4JH90uTq9vs6rqcuDhdoHZoKSErMCPevMSP/X73Zw/6taWIZYamZPi1oGiCqObocRwyUMWadWisNbVVo+t7yTsKll27mjCjimNjQ5h8yF2YOwKQSammZejncTP4IkwwAeghIiknipOmj9cuTc5u6WjvIrAg1CREqJNUaXgvdXYGekmO7FkP56fWw/x5elGNvG8mHO2s/x6fdnvYcdXxBohgpr1BELhG9v6bIgX5S0O8CPfvGVrBJ4WCU9+ulFpBeQ+eVQbc/mmfWwMP+SBqadXMMhoP/UWW+EyvTyeOGqFxsX/s8DxqktSxNBBZGokboUrlcQCQ96cZJjNXPax/MwVfMgHux67ycD/3XCb0eo8pxSRt8nmvs+zqUkpGiUTUSXxb5+KPJQCcnufbE8FH80//z7/cB/QeAyIcaaEtdzVNrsyEyW7ssO8OvINSYidYxx7eJhR4YvJUZEDtylOy4VfCHAxoaocBeR5RO/3v88+a7bBJD7HLgHqpWSEL6nI5fP4f/dhvap66o/OfOidZUHbItvSVHOqILCH97f0+H80w6E+MoJnlDPsxH60K8DTpDmK1xyJF6YsxpE+NInLU6iSa6k/qPkbHRuOub/RLHZFmiAvTVxJWWjBM8WGRtkZvmKjDsZNp5jjVJ+Sm5Xsa9+6//uHX6e9GuPzwH/mJJroK5SKsRKW1jvHjZEBG2rw357n3kY3Dvhd3xB/qfFZiYBheoa/AL8BmDvkj/vkPPq6VYWeVcRjQ2bPTEfhNCekAPqZj6PP6ogDI9P1r8/Pha3RA41BDHYmChhMxHR+fOB/c/T4/0OZWwu/A6PgrkB6Q+YD2c0LDiCP4OWkPckilnUzJB9R6d/3WAlKMmPdumhYgfdH36IDUACn2O8zhNXofvme3H0dhZyg0L2v6nIiSaXZVcEqvbuKYJgerjB+oajcQahkJOgizo+Yqu+8MYLyuCcwNU28uXDiP/4MUHIqzZ6a3z1524ILJ6gwLUmaq7yYqH+buPv4Z6/RoFqkVMxJ2+fJszAnLrt1PMiRHPhxT78/WycpCPDSFzAc7dWpXB5THubKL1bf1kLC/IDsdq07Y1XcygkD2O3mdz/vTv2U3jn46vRgFa7ZMoaHyBOZXD0GLWIr1S2FAPxsFQ7xmo7bZS7Ox7rHILPjs0vGd2Z+N1gHfpaACkBNLtas+oD+LgtmY8KDg4yX5EJ2wWSVE393FB2JkBgVxXk955/7Tn/sQgIy4CXqfdbio4nV3/TYmqthfRzWov0e206LbRV2NEFnrJUCmAtNp7kTFSoBQjZpFzbbdSmFkMKTIXonvD5BfdoKqeJ5G/0oWDRNsRtiFdYhahE51rl9nGjAXiwvHyOUS6R4nWTBqxQSi4zgEnwRAlvN4EwFofl4dUMYkvYM8jqQDUkWuE9q/L/tTB2SZkt0jr/NZqfAtvel1QldjtYnpacPwWBuEwXePvM63HSUGt2/f23FCf+kApA5oZZmOqN06IIRv2MW7r6MB0K4QkTA8IcJ21AFdYHv+NxEi7s6y/b+CLDEk8XAHM4cMd1nMrC8R8WqSbV8z2kW52HKNutWNSeoPjcK8jPgBODAh6TWfhDq2SbOoEQInLM4uNwlw2Kfdv7u09CIqjQXiLXwyshx7o32Fs/ciOphLl2Zj2Q39OiUCBpoNgsE6ESpFejeoJW2+1HEcFgnLdEDqZjIGlAGQYJ/HBuLGtqsDWo6muWalUbDuMHxe53OsHMM7d9UB0ccNHZBj2R2Gz+tcieF26YAQhU7TFVc/V5nUnS+OAWmb/vLLLxGAvrv+vhJ6F3zed0oeZvLtAhBheHLBohJ65t9ICZ0NGhjhZPOIkA7LyZhODZBR61MHaJqwGUt5VFpjMc+qh+L4htWbbRlQD/4dep4hTiyXkykm+GwrOaAj5japF76P4+PRvFKkqIPVSMyjhw+jGO4EymcdoC1MY0GoxQSdpBrm7KVLMSVhCr+Qc+P58+fRWWvERPWuppo6sbyOd2PBpWueK0AUiPTPCEBXrsxFhpLXAvW6EwA1oxL6xYtl7icpoc+f1wQ79e755AV2MlHvSyFinTpOFj/Tv2V9Jcc1O/I4n+fS2b+4uIAS+lfupcN5xthsSIVS1Yps9IsywZxku7lgqTRllgt2HAC0mwsWyAUDgP7CXLDj0wEBGkSJ1AI5uZ1Ie3PBnGQRcAAgmU78WrzAMdzeYTrFCoBComqZpoKKDGsonZsFEnbpzjEybC0dWanRG/p2gT6lsiFravJQ2kStVqRNHdTHpkRgVhjGvgGrVfjms1yh9o11gyzXoHPX6Ie+kLXV1bC4sBCjn6biXKRV8vmLX+NHasTEYYMSqoTdtdWuGGbP48hAJdu1zZeScQmUhuMtFK8wVvFjHoszu2bPp2/rwYNH73LBTIuQ/eiIzq4r+/2jvAsIugD+VblgzC58e7Sd4vnbA04H9BcFQFUAyKxZCzO523Rnw+cJQEaILIHgTqACNdYKfpcNf59s+OMtx2FdFB3DeXYi6J6YMjwnWpuyG+5AZsMPmQ3PIdi0+Hk7mlGaUrIc6wQZtTITnmqKJJ42yYYPZMAX+qwcOIo2h1QLXmSCsoPJVCy1QTW/UpOsdOo5UzjMdstqdHoLpEQgFDQPa4xaTqdZTDpV7buufyPqQsgLW3y+wNi3w5lJEi/JcNehvEEh/ft3b9MNYzOcOUEvenw8/SdmQpvzVpFguzD1xZg64I59lNCxi7v7EFjSrt2JuhXnhofnsJa2wJc55Ls/d5SvfT5ZNry+T+ugaw7p/9IRnycAeS79n39VNrzrzGx4GZDr+ssHIJxiVkR8RauSy5epB3T+QgwT2i87TwBycbrrZAXJdK6OIES0HlB93XpAL461HEfeFRH3LgAXkT4VdxnBaAgAGqAAmuCjidUwrwvl8kaJ1kQVe9mnDq31pspjCoH1kvVOGsXo+KkwMkZFyp2SKGoZNak2KbdqlOjNW4Sc9Lh/tY6PhuqLtFiEVFfDQKFEagRKZcBGQen160Q0Wbzu7DKeR48WwtOVZ2GltBxZ1MzwmfDVqbTAqwDPbzf/XyivPA1jzXUCBPiaAMJty8mOnwyzs5fDjz/9LS5UAeOwbORjCzumnWAipHpAC5GZKQgU+GRveQKQ7CdFEbOCZCvR7BJ8BCGTUj92nXuf+ed877myekAPUEK7DrJ6QDJQBat5Hm5SrrPFxVQPSBPsr2BA/x8AAP//r8D56QAAQABJREFU3L0HW1vJtq09UQCRcw4GjHPv3vu5z/3/P+C75569u9s2tsk5CBBIKKdvvFVUW9BkhNvnrm5ZBLFWrVpVo8YcM1TL/sFB3e44IpEWa2lpufSpXC5nnz5+tIPDA5t5MWuTExPW19trnZ3tVq/XGl53nv7Sea9+U6lUrVgs2uFh0jY2Ni1XKFu8vdusmrFKZs36Erv2YuTQ+juL1hqPWFRtfcpRq9WtVqtZuVS1AtdqjVpbW8yi0YhFIpGnnPry33IqNbXO9Sp1K+pa+ULFirW4FaoxK5WjVixFrVCOWaGk7yudVql1WKy1y2JtesU71bZufc97l7W1d1o01mqVStlK6q9M5txOz/K2mzRLnprl8nUrFKu6VsFikYL1dBSsLZq3Yu5UzahYV3e3TUyM2fv3721qasLa29stnU7b4uJX2zraslTLsWtrT6XPJgen7e3bVzTe1tfW7Hhr1c53lq1eOLPWmFkl1mXZ1n4bnJqzt+/e28joqHXr/PF4/HIfNHx3ZXg1/MZ/eXX88dNKpWbVasVWVlbt69clGxjot/HxUffe3z+g5/XXcfuXE9/zB/V63UqlsmWzWVteXjXNG5sYH7PR0RHr62Pcd2mO6JHedSP3uB7XYtwXCgU7ODjS9ZY1Jqv26tUrGxsbsUQiYbFYtCnXojnh3vL5vK3peX7+/Ennruq+Ot08LhYr+j6u/kzo2u3u+h0dHcarvV3vuve2tjZrbW3VPHlYu1qeAkA09EAPYnJqysbHxm1QA6Cryzf6Owg1B4CSySNbX9+w81zBovGEWe3c6vlt62/fbzoA+QdSsUK++QCksWXCHDMBUJ1XRd/rldO1ctmKnWTjlsrFBUZtli+1WanabuVau7XEBgU8A9bf32e9GvA9PX3Wqb5ujUctrsEIOFaqVTs5Prbk0bHt7adse79gawdddnimRaGl1eLRuvUkzmyg49yG+0rWHi8IZM40uOtuEo2Pj9ubN69tTJOYcx4fpzQYF23ndMfyPRkHQK2nnTY1MGX/+OW9G4DJZMr2NpZt8/N/W8vZro1Gs1bSYN2zPmsfmbapuTc2PjWtc45ZQoM1qnZenaSPnbhM0kqlYktLy2rnFwHouM3Ozlhvb4/GYbeu0xxACJO0UPDAvryyonF/aDPTU+6aPT3dbiI263qMv3K5Yrlc3hj3q6trVtd/rxYWBHjDbrI3C4C4FmOyVCoKXPOaY2tadBY1nn5yAAItv6ihMKCRkVG9hm1keFgTo7uB/cCEngZA1arYSLlsR0dHQucNy6iTWqJtmrWaEM8AQDSXNpdKFcvnS1q1m8OAOCcTvVg2AYt/F+nRNVotW4hbNteiryNWjXRZLdpl7R191pbosbjYDgwnFte7vm5vb3OvuNhOi1b488yZgCtjmfO8naWLdnBSFeNpsZPzDjs9b7V0rmK1csn6OrNiiQXr66lbV1vZInUBebRqHWI6bW2tWlHjjqHExFLa2xPW3dXlmOfmpthPJWW1sYLV9J8lY9YvMJybmrW2eJudnaXtRM/maG/HIpkDG67sW6Kmc8OrOgas0Dtt7WOzNjT10gY1PgYHeq1NK2VLC0AEQDC9HwcURXVmsVhwjOTLl28G+ACgsHBW5KtA56/0uH95fvl8wd0vjAtGPjv3wqYmJ92iCytpNgCdn587AFoX86ebFhZeOgBqbYUB/RXIH3Nn3Jf+d2yL621sbIhNfhEA1X5uBgQALX376hgQdHdwcFD0d8ytpLAfIYSbcP7rx3SN/xsmLSvdsVZ2GFA6k9VqHre6TLBaYdsGmsyAQksZ3PlcSRP/YQDk4NaBmICMXlBX8IB5r+heMgKaTM4smxd4FCL6usMyeb1yUQdG7V391t7V50wJ6H1XV4+YDuaLGEw85gZGi84cVsi9/V3b3z/UQpC2g+Oi7Z+0W/K8xwr1KStbt7W2pK277cRmBpI20X+uBUJUWaZq5lymmEBncnLcent6HOCGAQ/g98qcZtU9Ojm2YlvOYnNaTFpqVtiuWXux04Z7Rqwt0iYzsah2F8VMSxbNHlq3zOKhUtLG62nL1NtstT5g5aE565p6Z2MzL+zF9IT1dAtMBXSerj8OfHhOMARMTRYmQOHVq5f2j398cH3FBG3mwThEdjg9PXOMBGaysDBv09PTYoIJmR8A3uPv5WpbGX+w0yOx2a2tHQemXI+FHnCFATXjCACUz+d0vYwDoKWlb3o2sOKf2AQrFARAS0uWFAPq7u6R3T3g6Gh/f78mHAAEsvpX+PoxHRYAKJVK6UFsW+pU2o9OXyunzYq7NtB50FQTLLTxsQBUqQowYW0yq3hlchGBTcTyZWk7pVYrVhLSczRYo+0W0SsmlhOL9QgQynauV0TMprUtYS9eTAscJsR+BDz6WU19WhUQZ7Nn+lzGTlJZ99o7KlkyVbPTbJedCciyxZhAoUUWXskSrUUb68vb6EDJxgYj0n0EIFo40Liw5XsEPJhdvb3d0lJqMvvydpo6cwORr9PnYjfnJ1buKVjHa4k7eqbnywKadJv1Yw4KLPv6etTeNj3rFsumkpbaWraO9IaNl3YtWs7beSVm6bYhO+2esbbhaRscn7KRsTE3kdCZAKLHTtzj4xMtgEk3SU9OTuzlyznHgGIxgPqCWoUH+sR3xiEAnUqdGozk5CRlr18v2OyLGQd4MOVmMS7mTbFYctdi4d3bO3CAAwMaHh66AO/mAGwAIO7t5ORUc2xLgL6i6/30AFSw1ZVlx4CgvL29fRIvpxwTCgDEM/c3+HhTLADQ2dmZ7ezsqZPONKFLVi2dWqx2aINdh88GQGhAMKBWCdFXRWiNR91buD/exUv0KkhQLpQZQBEBToulMjH3ype6LFfqkO7TYxbtlpnQ7dgNwilsg5WcF4J7vV7VZHrpQIj+Q4BktT8/z0rfSYr+H9vOfsb2kwVLSt85yfVYvj5txfqQRVoqFm/JWk9824Y7j+zlVNWmxmICm15NypgofcqJt7CrkZERUfohp5fwrGA+DEQmNqvu3vGeHeePrNpftJ737e6GzxZlAp/ErTfab5PD4zYnM4RFBwEymTx2ekx1/5sNpb9aTyFpHWUBpXQsmFChW4A6OGWj07M2Oz9vfdKzEDIDYDx0AtNG2A/tZsy9EBjM67zRaHPBh74BoBmDAM/2zq5AOm1v37xxZl80ipOiedfkmSNAHx2d6Hon6tcTsZ64Y1yDg0MOjJoFsAGAuJ/DwxPNsS09+3WBnGlc/sQMiImyIcEKERoqjfg8OzvrBnUzAchPwLp74Ht7+xJXj+xQbp1qKWVdrWkb7Tt5FgByAme5Jp1FeCHhNBITqxCtx2tVF8txWk5RppAAh1euEJOWE7O8Jlu+oslq0qms3WotnVZtQZPocZpOW1un3iUei7LzQm9h8tKfgMz29o4DAMyJmRmBSjHvqP+BBse+zKzD47I0HjGe84SdivHkSt26XodVazHpBNJ0YofyDJ7ZzFjNpkZabGy43TrbW6QPnWtQF6W/tDnAGZVnanCwXwAAC2lljjlmVJZeBBDCLHYPd23reMtyHRnreiuztwUGpHOcd9p454RNDk1o0Zl0ul8kEnXMaU/m4PHWkqXXf7ee8x170XJqEYnj6UrUTgW8mcSQ1funrG10zgbHJiVOjzuTrF0aCpP4PiDEmOBYWlqxjx8XnYdtZGTQsSruq1mT011E/3A9xgNj/UDaT0qLYKlcdGwLBsT17tPucL673rkeehNCNwB0epp24wQTDKmjmdfjWnQnpiW61t7eru3ubjkG1NPT4cbET+kFQzWHrh3qoeCJaJPZ8OrVgtOBmglAPCw6iUmB1rG1vWtrG3tWEwMa7C7YxOBZ8wCoYRGracVj1UO7cYfc8C0CoZqEY3m67VwaTlovzVeZVHqAWQmyehVqvVaUB6hNLvK21l5LiOkkOrptsL/XBmSudHYmnPCL1wpWFQ4GOILqx4+fpDGs24vZF3LzTkiczsqdnrb1zWPb3EnbUbrdjrPdus6orjMkgOuQ8BCzVktZe/TYBhPbNt5/am9fDtjMZJ88T116PnVnNmSzOaf54LEcGRlyEzdcv/Ed8xrtYftg11b2VizTemrtr6NibzXLrZWts9hrL3pmbWpo0rnuOzo63Z9jNqDRbW6s2ZePv1nH6Zq9a9mz/kra4qWcpRResFvtsJPEqJ11zdjA5JxNzy3IrBiWCd8rbQo37t2TmefCmPu8+MX+/e/f5I2aFhgsOP2xS+J5M8GAG4OFw7I2NrY0Ofekl5UEAhGZYH6RaOy7Zn3Ns+JasFG0p87OTjGgOSd1NPP+AgAhcbDAHxzsi3HtCYDMjVX6GjmiRV7UaPRvcsNjo2uUqxHfRbayHsLO7rY0oEO3ckOj375963SL5wAgHsLh4ZFtbO7Yl28bVime2mh/SZMg3RwA4t7AgwsQKikmp6S4Gemr8lrJO6VVoiplJZ+PSTyOW7HaJRd5p/4mIS2nTbqUtB2Jrm3tcj/Lg9WhuJzODrxXXtNJyNOUSLQ59zZ9xSAKA4kViPgd7pHQhpUV2eDyfEWiXpw+k0B9nI5Lj0k4xpMjJqjeKZk/brH6mcTgM7GepA13qy8mOmxqvMNGhuQaTkQdfc/IdIuKocB20HyGhgYuMZ+rkwYzjMG/ldyx7eym5du1As+Kk4sB5TbL1pbrsomY2M/QlDN7iPHhIAyAiUrsypp0krxig2IHn22gqFCNSMZaZEqeV1rEhHrspHXQij0TVpGXbHB8xqZmZh1I93S1OxC62qbG71mMTk9PbXNzWybYus1L+/nlwzuna7W23hxr1HiOh3ztJ2HRXQsZAGcApiM63djY6ENOde/Pco/cHwyoqn5Fr8PcJeYojJt7n+yWDwYAQlTHpE1Jxzs7OxbAmov34XnCxqJRjWPFnP0tcUCh/Y3Uj4YdHuxppUyqk87cR35RbAhegWYDECenE1gN1ta37fePS1bKn9j4YMWmRzI2O3ooMbp0/0DEC5DhvEx+99Lk0pea1Gg5ckvKfZ09r8rtL/NFInJFJg4TPlvwXqtadEDEY0DmFK5xgUWszSJyjw5ogAz0SePRZO+UdwTTpJHpcE0O/+C9vsMA4/7QeL4ppmVVukYqXbfTtFiWTKxMsU8BiiNWsGGZcwpzkElH8GDMtDJGtqT37MjDdWLTwxVpR/NiJZOOpqMjrKysOfOV4MJxMarbmI9vmTlXM9rK9smWJSP7VurJWWKMiS1tYk+xUWJhA5Vhm5IphamI/td4pBUSsJ88s921b7a7+F/Wd75pr8XOeutZi1VKdq5+PBFz24sM2G5k1LomXtrUS3nJFGQ3OtxvCeflud7NTL9hmmCqYppkMhmnjbx799ZpI43taMbXXA92Sl9i8u1I/yEWa3BwwAUhouE1++CaeKRWVtadEA2ocs3p6Un1tTTEJh5+HJr69EDMW17m9InuNe0YXkzOjyANxDS+E26s/w2BiOF+GwGoKgqcSh0LFI6cOAwg/fOfv9rs7Kwml/eC8Xf+Bh8vQodrO3qvh7K6tmX//Z9Fy6YlQPfmbWbk3F5PpWyou3w/ALrCdDBPKtJ6iM3JFWR7O/E46vScbE4enHNpF9mIWE2/9fTJA5HoVUBgnzw/0nK0IrQTDSr9IiIhskVgk0iI6WgCEch3lemEe+EdNzqsJ5M51UM/U1/K45Q6t+29rO0cFqXv9NpZoUdMSyZdrVuMRzqPKQATJspXLRJ4o0c22gMQ5+3lTL+YT6/zSAJ4+/sHDkhYLdGZJhSpPjw8oK+/az6N7Wn8GnaxvLxqO2c7MpWOxVLyFh/wbt+y4owiKelIZ7020Ttl796+diJ049+XdG85OQr2dsRQvixa7XDZeuWeH6ye2lBEIrbGR74qYI902rHYUL5z3IrdU9Y9MmVD8pIND0vPEUu76lnCFIKNrK6u2pcvX929MDEJ/wBcmykEh/th/IYIaKKtAaDpiwBEro322cyD61VFtzGJWIzOxYRgPT7MZcSZYs28Hufimru7+w5gM5mUxmbO9SXAx7w7dyEbPxsAadXOZjVp5CZcXV1TI3P2v/7Xv+SFmHP9o3HvDm4OQOL9KUeIe1ld27b/819/2Flq13oljgJA72bTNtJb/SsA0YaLy/JGG4BGB48XXivE5ILEZJiOnrXc2HHLFVsFSB3yZnVK7DU7Oa3b4NC4jU1M2cCQgumGBq1D5lRHQlRcgYGYVuF+b7tHrg/bIX2AOCpE50NRX7xHB8mMJY9zMrM0KeVSTxdHLFMS44l0O50nIoZGeHysfq7YnjPrbd2xwY6kvRir2Oxkq/p9QexmzAnNBAcySWEIMB/AB5GWcIm7Dh5TKnXiUhv2c7uWH1bYQ1/RohfzrJoVBMoLFt+TOdc5aR/ev3WT4zqzgPtaWVXoxOZXK+x8ssHins3FJGgrCLJF4KtIJMtKV1Agh23VxCgHpq1zbN4mZ2aMoMJOgTvmDn3L+dEiWJG/fv3mtDK8rqSEMEGfQ/uhr3hmsFMYCddlor5580rm0KwzYwnibObh9aaKFvZj+6Lr5TVGSJEh/odQFxaTZh/cI+YXAHt+rrwdhXAA5iwA9Pn5eVGL6XUApAVYC1qH9CmfitGmv3tYOMK9UjHCDTcyIFzDhYICs9xgXdEDSrsgsBcvXshWjLnVn7/j5poBQOT94KFZ39ix/++/frfU8Y51ShydHspcD0CAD5qOQx7cqD4+R2BuaU2igmM6MmIUl5Mvt+v3CYmN8l5Jd2mJyUuVILy+V6xE7m6lNWBmDMttTV7TsAZDqyZGTEwjpg6Pie3cdRB7w+v09FivlDNbT04ytnck70pKlFsBicTx5KoSmMvKpZKply+qTRL/WloUChDLWyKuyRvds97EkYCnrlfUJsV6RocRt3GZtvzpRYMFMVhhBjAKvg7erpvayrNiApwo+PCLBuNhcd9qLxQ3NFBWdHbV/VmkqntNRq26ErPRtnF79+61zj+kgUfszXdRnQ8jpB4fn9ru5qptfftsXZl1m62q/TLFEnW5zhF3tRrkFA91rujvU+lCqdZh6xiZtf7Jl+prHyZArBBjD1aADogJhscGDQYASiQ63Ji7DgRvutf7/pz+gKESI0MgLDLA+/fvnCAcjUqDa3LAI+McZwSaDCZfSWMeTxshE2QZPAfgMS4R2Em7KRbPdQ30ST8WYH/kRMZiCNDIDd4EY7zxYlyRD0bsGl7dHwhAAIJC0zWZFhe/aXDI8yI6jusYgS50VLMAiIGALY4X7L///cmOk5uKdzm2yYGzSwAU0UpZ1WfRchzbqUnTEd3HU1WUAJo+V5pCRsGBBdm3yrUqMOHrvcov08PVK9Ehd7nE4355rPplb584E3NH5larGESnEx1hFJhXtx3+vj3jAax5kNDZPZlGmEf7hxk7PDq3w1PlamVogzSeutd4qtYpAVyTUy+0nkhL0boTp9bTLlOzfVfBhSl7uzBoC7ODYmNjalevVqmsm6B40HCpTivi2Gs+92M+3At9DEMj7YXV96h6aNHX6rhBJbjK/QemxyNxmVQS4z/XbSg6Yu/evHGrMysgg6/xwFOFab4lvYYx0pJcsuHMkkwxieYRpblUS44J6Q+trrSOAyXbrpd0770z1jK4YGNazF6ICWHmshrv7h5KmN1044AJwlibm5tzv3sO8OFeMPkAu2SS+KsjsdasQPedC3oMzKzxnp/6NUyfhFeuhcDO2CEmDH3Mm8+3j7uHXh/AQwoAXP/445Oup5ivHgW+CpRgP7SnrFUirvxLQkgCAME4u7u7HPsnDYX0kLhefwMAnTpqCgDNzc/7uBB5RQhP52gWAIXVmTiTT5+XLbm/Lk/Yjo31nlwCIGGUInprSm9QqgMRyMWowEfRwYrNKdXEEhSbYxJxyShva0PP6baoPE6trUL2Nq+PxDWZABw8VydadZMagAyKvITI6alJZ2b6Vfnyit/48Jl8vDCHYIf0D1/vJitiPTXHeE7z7ZYr91i2jMYjFqa2kTRal2kiHLCa/mmtJ61Nes9QV9JGuk9tdqrbXkx2q/rAgA0P9eiBx10axeamBGOtmrAxBoTXfO7HfEK7GXTOuaD7BYCOBUDxtwJBiduNAFQ+FLtZrNhgZMg+vPpgY1qd8Y5cZYKcj9eJoqt39uSs2PxmZxu/W19+z2YiShFRIEErwCbmBVXNKZggI53rROL+iZhQfPiFdY7L1BHAkrNGECDsp18hDWOKpsabh1lyncgf7ukp74y5crkqdrDpmCULINfCHY759xwAxKQ/Ozt1AITQDvN79UpgLG8b8WLNvFfuj5xHzNr19XUxoM+aryWxfSpaEExb1himD7TwyJtLqE3wguGV69bLm154yHxc2w8DoLobrEXXWWQjMzim5AEjsGxwQOJcp+JTdHAjzTDBwrmSRykJpBt2uC/d6XRVmd1JW5jO2EB3VdnelK4Qy5GJdZaNSTxW+kOxzcpVucmtRx6kfrnJMVe6hfK90g58JC5Z2kSatkl04wHjuWJwceBlgVHgliYClmhbhFefj3PzakQsDRqPC55UKD2M5wDGcybGk+5qYDw9LljRX41/YT11sR7R3pa8dbZsWVdsR1HNh4rvySn25I1bfdE9cKsDamSts1oCckHzwexikDzkYIJB/wm2+/L1q50I/BLvFYA5XPMApD5plTu2dFi3s895U8EN++XlLzY+POboOHrNdUeeSZXJ28basn3949/WqVSNudqeDej+elqkN1RljjHKFQdR1zNMKqRhW6EGeUVOl/teWEwpH216ZkVNlqz0mFmZXm8Ug4MJgFD6XOwHRki825cv3zRBN11/MmYmJ8dkdg4/CwDhbWMh4QULIjkYM3NUIM/kBpCacfh5KatA4MPiGpJQFUyheUEAYgAgWRI1SQ2kCAkAYUC8mD/diuDnZ/FY3L17gPxBGhA3wAqfyaRtRfVKsI2x2UeGR6SRaPCLnnE0G4AIytvaVALm3qodH3zVmnloI0qyjCtIsKwcq6IikUvSdTBjWuRhIeq4QyZVmzSduPKu0AtgCKB5yALHnEK/8C/s3+8PmaAzREgmOF4JGBAipB/86DPfP9s4MNArPDCsOZF+Pz1mB+ejDYwHrxaMRxHGYjz+EPioPoekP+tURHNXHOaTUha7AgFjMsM6WH3nZXrILJHtrUfgVudDxWJxDw/RfK42m3NBt881GPeU3/dlZdFOW06s6520rmHJkmIqEXQlUfFSUqzm96x1qzbQ6+nXNjk67tzEDMDrDp8bV7Gd7T3pGktW3F+2xMmyjdVPbaY171hQVWZAFZ1PC1tJLLCoRNd0vMfO4v2WivbJba9FbUC1foZGFXioshvTY27QX2Vd113/MT9j3NIfxGZ9+rQo7XHT5hQcigfMi94aX1c78TEXavgbrsn1dnb2nRlMPFa7FpnXr145nY3LNeuafl6S0OsTbHd2fA4Yjg4ioGF+OZW+AXzEfxwD4vky7pEiOpUkTR0grATmESBEzJtfvK+fEw23+ueXjxahuQGihYnUXV1dsWPpBqy4UGLcotBkDn+jT/eChRbzUIiI3t2Rm3jzs1WLx9bTKRovbaKoVbPaolVfJS0ICOxUQGCPdJz+vi55SSig5Ms03GU+hWvxjgmBDrCysqKB+MUNBLQH7o/7vWlAoKMQTfxFBb1wGe/kPthu9r28Wv1WERO7euBab5EwG2+RCBjNSOvZc2bX5FDNhvupeyMmolwucrgwPRCmMZcwvXCbk7hKkOF9mE+YN41t5zmhUaXOMkrB2LMvm4uWiUp8f9durcPS0KTXAEAdAvCSTMjj3zLWXuiyuZGXNjkyrnYNO2C/el+N3x+JqW1sH9jx5pJMsY82XD6whdipqfCHRaR1VNDJ9GIhgE1l6qqNpAJt29UeW68OWO/UK5tQvNCUvEKTEzL73MC/Pl6o8bqP+Zr+QESH/Tr3++6uaiB9cNHPcelVOFqaefh54hk3bIsFnZ8R9zM/P6t59dcx85TrN14Pb+X+vnL/9rY0rmoCmYRfjOT9wrFBFLQ3wUjj6XTjHvBBfMYD3J6Q5SCGRLAiz65xXN3VxkcDECeGpmFqbGysu6x40A9xam5u1k0Uf5OAT/MACPc1zGJrc82+ff2sjlKdGwnGUMJOSlk4tuM1HbK00XIwrwAdVkva+JBO8vdQdxN9ZWVDf6ssL50XGo4OcFV4pV84aCcDGFOGAbxyMGqryVErRSa0wo/7D/35b82itTOtM6fW23ZgA4ljmx6P2rSC/ybH+214sMeJzBmlObBiYdohTnIQhcwLNy25XbC727xd14EP5+E+yRUDJHaSu7a0/9WybWc2+F7McYDEWrnORf8dAJ2qPMpi2lqzHTbdoZo4w5Pqj3EBvDe7OV+4Dl9z6PROQ0vLPt7b3rDNpUWLnaxZvyKth2WKDbdKbFdlNlgHgO9SYeTG1E/FxDos2dJl512TesnMn1bg4pzqCyl9Y1AJk43eWX+1p/+L1/RQTJCcOMwhFr73CjkgzKSZplBoKf3PfbOY4P3C7Y/Xi4BHFnQE32YeflwTcpFyoQVHR4f6+kDPTSppO5U1CY5V0rccOLUaCdm44RNuIWe8Mc8aASgmUMZV77jP1Yd/S8MfBEAg21UbFBtyZ3vbPSxqijDR374lJWNSlw36T/MAyAdGUThpU6r9Rw3Ymkw/uZo1AYl16e3p0kTQJLwwqx6Cxrf0k+5PyZmKAeGBISqzKuH1i4l6XneNwJzW1tYUCyOBb73FvmxIGK/O2Xl9VpeS3qGXDEdncrW3HCiXa98meo5tQp69uRfDqp0jN/SYSt32yT2NGK6JsLy84kL0K4oohhLT1y9fzrsVEvC/7Qjj4rr2MiABNtIodhTisJKSqdSRtaH3svP7ogrSVBEjHQ6A0opTWTmz2Knc/NEpm1KGOy7xcH2u03gNzs3BpKZf9vb2XIT2+c6SVfcWbVSm2Mv2guTnijyWSucQEyvoFdXfxQX4RQ3sfLzdtut9tqF4oc7xBRuYeWvjYkITY8NagRX4qXF39bruoo/4h/YyATG7Sf0BPWFkL18qd22acd38g8Uc8A3xPzktXrBamCXVBjCvm3kEAGJc4wEjAjqfTzsAwuOIdwyBGgCqViOu5AoBt94EA4CUloEe5BiQwAcAkkPEPYQHNPSBAMSZoWR+gHETaCRHyUOXksHN8LMPv/zidAoxdh0BhPwg5CdPObxQKtCTIPzp02dX3nRqUhG0ikXBLOJBEZvzEJZzn/awAgI80GNc3QxGUk884/CDv/E86ga36hPUdyyB/uPijn38sme75wu2dz7vggtrLaLyeLlMeVzychHVjIdrZqJbXg+igWF0lKtQZUNdG5OOWA0mBhOZe/3w4b10IRIxZZNfJIU2tiN8fRv4hM/gyifXaeto27by66oDlLfB1wKgnusBiIjokfqoYrGmHSCHQMcwPsJ5eQ8DnnfuJalSE/sbq7a9rFyx3I7NCYB7JUh3KOEVAMpLf6DmtBtC0haEtpYWEzqpJyzdOmJnCdVinpizIbEhzM5RmaWBmVx3/ca23PU1TIRx/VHji2ftIq3ldeM66D/PcXBNBGiEZ5w6LOwsLNS4DmJ7M68bnseOTMuvX5cd+ETU/1grjC3JuwJEnhuTXQCk/k9IN4WJYW0APsT+4J1E2mAhxrp46PEgAAonD5QX1CaG4OxMgXWKlyGYCRr/yz/+YbOzsz4yWRGVfI4b1u2EUzz6nXMRq4J3CdOGDqMWMKHqA/K+3WZ+PPqi+kNWJwIhuebHj59duMGrV+RBUX9YuWAyTxpX/XAtXJl4UhaVuf15cUmmzbgtHYxJB1KEs9SPnlZFdMfllh7J2sxwycW2sPKF6F7ulT7GywgDYrWCQXA9TEECP2GbfB7K7mvTXB4ITEiO69rnf+P/hfYDsNsn23bQsmtVRUAPzKksbNdlACorR+5kVfl/x3EbKA+5GtEL9IUGJtfgetddy48B6g8T3Fawza1tmdHLFj9etsHMsjLdpH3F8IiVrKgsYJ41B6YzdZnK0vlKyvzfLXfYVklJqyNzylF7rZrTqs0s50CnPK8sCEyEx6Zl0EbGMAvOp89f3JjG9Hq18NIBfohv8z3WvH/pE/qfZ0weHuP67ds3Gtuqz+3MGwfFTbsgfQvQoCF+0qJWKmUFJhH3M9oC+FQquqbAh3I0yBnoPd1d3S4oFydOXBocZneX9CDA/7pnfleDnwxApBXkslRTO9Fqod0RtIq+fftOO2WoFrDSFHBtB/DhPQzCuxp20+/5ezqPB7W8vCrklsdIBdGGlB6BLoNdevUIE9BhoH552/fhd1fPEYCPCYqNjvsX5Af88Izgvr/uAXizo+riSLYVRPnb15z9sZSTV6lLsrMyqkdzNjtWsJlxuXel91CcDFDzmpXqC0lLIhQAk5MARn7OtQEa2oqHjj4hToSIZPKT2KEhHOF+rmtb+AzvnAPBlT7dVQ7Yabd2wVAEdN+kBlcicskEq+alVexoU4AjidKnvTbZM2mv5Rns7+t3wHgTGIfr0Jd4UE8UNrC/T3zQFztb/d0G87s2Wz9WnhvBlw7FXBOdHqTJ0qJ7juj+iRfKSjFLxeQhU33qtuEZS6i+0LieBWkLTFhMJn+KC/R1Z7r9nzC2YPKML9gIXt537978qf00Mw4ntIbr8hypfMh1Mbe9ef3aaak3ja3w9w9953pYEjwD3O8ftbtNtSovazeVLX3uW0m5kSKBHszxsArYmVtdXTAgVcGUJvS3ARCDmYertnrEVNEsWNC3b8suLoWARFblXq3IHR0U5vIDHFTnBp9y8PecArGO/BUmDYiNl+ClzCIoYuNko53h4O8avw8/5/ON7Wr8+/CZcF1AACAh/obBiRaEWx7mddtA4fPE6fzn45r99klV/BQYiRv+zVxcrzYNNJUqlTcJgOEVmA/eEF6YRsHbBdhAeQF/WCe6AcDTrz4YEQjhiQSkPC0mvKChE8INNbyHe4Nlke+0l9213KD0gGG5ZEck8ra2XAKguio+nh/nrbLfYrHdhI2pOBl62KCu60MarmeD4ZJcDxBisTpWkOLG0jdb/vSb9Wc27GVV2eYSpHvaaLf/i4q0CLxjrMQwIYBIdrYly222ozK3+a4pK/RM2+iMxt3snGOCCKWsyrc9k9Ce8O7SdcQ2YSBbYmcaLerHmHvGLDLPcYS+Z5FhccMjxTyBzTKeWVibeYTr4UGFha4rAPHTp0+6ZlljSBU7NUeYT0VF4fOKqA8Zjx0CH8d2BECAkHPwiAURJtAp0/+HMiA/iS8mrRtMZHWnne2a0oAiSpXcleHhATXWZzH6G28eABEST8lKViuiY2EOrFQEit22AvMwG0GoEWxoY+P3Vx88v/e1aDRpxEjQB6jRAgDxUAjQ4tzXnYOHiq6wpPIYlD2o1nHjxiQ0D9n0pIRVBdq1q4ZQ0K5gPtR+ZlCyMmJaYGIEVzufA6QYsMfK3UopV4lIbfZmwxuGVwxQAoQwYa5rU7g/7gsNAqAjAhoAKg6fW2REE+EaAGpRekshW7Lynv5uKWqjiTH1gc8JY7DeNOm5DgfgA/3Hm0lqysa6YlBUeqIzt6/YoEObbsvbi4QqL0b851mpnXdMwmhVf+dMMgEs2/8UxIQO6122X1eZkn5VJxyeswktfmwVRTBsh3Sym55JuP/wzjOi39kLjWdLUKfPpRt4Nu0n9D2LC+Y9CxUMGOBB/wFIb3t2oe33fed6PAYCTn0A4qau+0U/q9wKQOhQXXrxjtboBGjnhic6+uEpGKG9jzLBwh/7d92NahjncufuoTGImYyswpgnzxEPRCcymelAPFOYDXQMk4AYGegrE/S2476D8uo58AygBX37tiRB+Iub6Gg2DJi7ymXS7gNVGaSOEgdtHFRg3cAAUa4+ENIzH+8NoS+JwCYRMkQ4c3+ALQegARAzeNcEVIAx904WOeYYmhirFsAIQ8O7wareCMCcB0BgghO7tKiYpQOZQtVJZUCPtljXoEBVzo1GL1iEGCRpW8UdJSR/rkm3GXX1kWFf3wfjdyDmvjk87Wd19cGdsNdkUvFSxxLY9Yrkj62tmFSaxonig1RyN6L61gIhZ4LJZCizMusVmFBMZham1r7SbXZUKO5UlRZT7cr8n5pXHpkvX0p/wcrYP+22gzbCQlhAGU87Ozta0KT9vFpQ//mg1dv+/rG/832vjQXkYFj8rNAHjelQ6Axdj/5sNgDRVtgnpt6OSqawF5gPQFQJYY0Fr1t6EwxTHzbtAEjzmvEEADGmnpIFH/qraQCECx7ayiTgoMF4Z0ii4+F68+vpDCg0nMmHOItpgsCL8EiEMJ6KoKFcnWjhb3l/7EPlAXFt/+A23cQlJgcmNC/T86bVP1ybfuLl2iAwaNMAIw8ttNUzn3MNig0Hrgx++hLmQwF5hOcgtNOvsANEbiYORdPPFEhI/BEgSVv8lklsmzTgVlMPdJdNMu4HQKco1eLioh2WpDW9UdsmIkqBkC6g4LTrACi/o1INizJ/lRP2loJiioJnlQQU3P1dXIY+4+XB8swxLcCOtkPd25SDh1v3XGZ86mBLW/ts2EhuwwaiEsHjyr9ynlTdq6JzMR2ImIYJcR0mh+5UTChqR6oSeah8v2zXhDPLpgRC07MvbUCxQn091Om++aB9JLpube060wRAJuqcsiDBlLv5rx//G0AZ0CH9BQbEc6DECYsa4BP68vFX+OtfMm4wt5k7SXmwU6lDzR+8qq3qXx8BjQhNFDR6GuJzWMg8EFEZEU3Ie8JIRP2hJtjlW4IB+RIC6CNHR0mn5kP98R5MTYW4iQBCfjW8fI7HfUdHEhVNpDHMBHGMlR/PARP3sSBzn9bwAHGLw1C4b+x1dBAeBrrBTdf2YPzXK1xlPnj5MFGuYz5X/5pzMjEJUsQshVXgFADMoPAAMgCErgBD4sXADiU0ACACSvf39+2zgjuPq0fW+UvcEtPSozTBazDchjggyruiy2R3S3a6mLO++qC9mXln48rM71M1yJhWTUCZlwdImIsKWymQ0hdfO3OsDY8Sq/zQ0JB7wYjwjFUPli1yuCgX/6lKvyo+SJNDztQ/mZA3Z8WEBLDeQ+aZ0Im2sz7WVtZ7ijRXtSS56JXC8ELZ+pICRgTeCXfvfw2ZYNIB4miYhDgQTkC7pqcnnLh/tb+b+T1skHFEOs2WNM0WsWJ2nQWAmNR36XcPbQtjhQOzfnl5TazvRM8op/GqhCCVFqEAfVbmtax7kQYtQLjapfN4APKLISCU0PxCmI4jRis9528EIG6HlbjsagNRSwZkZeB9+PDeuZWDBtEMEZqrNR6s/IjCCLyIaugfr+QSvipGN/5NM77mWmxly4BdWVlxmhdgixhO4BiM5jYQamwDq+9l5rPnVhev+fhgNJdvQzzMxREYU/geEEGUxoVMQCFsiHgbqDaDHM0lKlOElBQ2IgSUACdWMgYlLuD9pEIbVEb1TDlg3e81wKauByBMGmr5nO+pTO7njHWX++zVmLZgHhy3AcViMWnQGLh2Ok38VMa1pawxwkFGdU+3D+kHFFlJaQf9Seb84eaK7a99sn7FB01X9603UlZCLsYji9gVJqSZAkjChCoCxrLc9CdKPk5WlFnfPm7nMskGJlQAX69x6WJjAiI1z0042sL5YI2Mo7W1NSUc79j83KzMoBkHQoyj5zxgP2trmM+HmjPKYNTkZjFjIaUfbxpDj20TY42xsr297bSufD4jkOFsPuWoVGIxomgeP/PVNBmHABBt4+WCEMWKCEIk/ytGCobA8jFtfbQJxgS4AFNa6lY7dKCUAGh1dU05Ynl7/+6tTc9MKYDJu0W5eR44gNWsg8mGRuK8Uxo8TCwoLCDwHCtIaDceE1jLurwIKyurTmcAJCiDAWsJ4m/4/HXv9AWDAfaCJwv2AguBXbEC8oK5BM0nnCOAT+MD51yua/Uh2gUbQtPwe0ulXJIpGwm0Qac14ekntDomPgefPVRB8k1tw1NInCsHTANuXAOsVcXHxGQaGRBCM8f5gXbPWFRRfFVwnO58od1Sh9x5aR8ADQAh2vOMaE9UYjgDmUWCnDbvJfXCO+fD7MkXSjKFNpTgvGStig/qPVu2kZacjcozFtcqzbkd2DZqQleYUFaRuxlF8O6p1tOO8shiQ8qo12v6xawWRJX3kKmRUP4S/QUw7yoYb3f3QJteqp8U/4NTYeHl/J9MkbY1+wjPC/0OLZFnzphFQiDwEWBufL7Nuj4RziwEG9IMP336pD5XRQLV/6E93vsFAFFJC/BTmIXYD44kgIfx4sGHjHgYkDy/snSiis+CuT2mvY8CIC7EQAidSOfAbkpyx5+ensgbtuoGdHDHkxlPTBCfB3z83zUHhNygVQwFtVPYpoXJ9eYNHhlq4fgaNY/pGO7ptiPcO1oGJo/bHlneuLm5Ga1g836l0PXpp+uuH/4ePYhJircL4TOsNF7z8dvwsrpfPW46J5+jm2GgABuaggeDnNMauBbf8zvawLl5ByTOy9oc0c5UGrVmgx9UWH9MZqxWYc51HQBljwRA386snoxoqx5lqysJuEMxWRod7vy0BfaLbtWpQcx+8wxm7hEKTwa1p+58EjCASePZO5KJsGepja92uvHZJuvaBrk146KkhTXuBmnzJU2ogQnVNBnqYkMZJbKeV+O22zJgOy0yyZTMOji1oEVi2MaVwuFNxLK0l2Wly6w5xoPphfNkzO0vdncIg2v4I/7hXnkG3CsR/bDEhQUl9iqnDikB3eU5DqQKYueI/1lc/CQwl+e0j/o/IUCU31c0Zqn0+V18BoBgzG1ir7jgfQR0h3t+mOTuYLA/8HgiADEWLoCEAaFgpozKVy4vU4/4TOkRlOaA9g6LcrN1SwCf5onRf1JKqfmfla1OaybkvsQNTXoGyajXTdYH9tONH2fiQqO5ZzQEXKcMYLxiQ6ofDY3m1Xi4yaOVCLPVMx+ykbWhn7xesKfAfJgMHI9p/5/PRX9PHxHaD/hgqvJsYCfoHhxMhIxW/nw1Z4UO7QOvnWYG3iiGa9hPAjYgKFx8NiGbH1OOI38i8Xs1Y+V95UqltCoqVQKTpdUxJGJo4m4RgG0REsCqTmmUm8qYhjbTNkyirVXtEKJSrsO5bdUPUsR4VLvdx5SecdGdgQndpAlVlUaAJbGu8rarRW2FPTDrXhMyr8anpxz78Sx2w8kGOBIwvbx5+rymFwsnJjJOG3YuAeQp9To9PSlNRWZNk0u9ugemfyixcartzbe2FUay8k3zV8GmDfV/CgXMeJwD0tX0rInxIbAV9gMAufgfsWbnBdNCgt73mPEZ2vMoAOKPPQMKp9G7AIhYgqyiovGGsZ2sFiKH5jACAIEB1mxvmD+nsgJkwhCbc6aVhEqCAB80OsQhNbS0qV+yYgMkm5vsUaX9yjSQoPXY8S9fvnQMALE0HKG9MB8mmtv+RuwNO5tVBuYzptXZV5hDML0MXuE8D3nnmm6yXmhETNjvDIkYLhVLkwZxnFXkb9up1fqlubyQ67nfMy+eGROVwzMWfz/F07JltxSJfaQqjJkuG2z3sSs+Uva72I3ojXnKior4fds90VZEYbx4iLJMTlNmftvRF5uIZm26nUJtftHzfXkzE6J8SIu0iazqWJ9rW6V9ld49UBm1VkVOx7VPPZ5TTAeYkFx9Njs77QAgtPMhffzQz6L5MU/ItgcUYDxol5imz6H9hPax+OxKgN4Xwzw42Na1agKWdo0HQjpgxrBnnjMApFQLF4CI+eUZULPif0J7Hg1A4QTf3zUoNFDxphAYeHSUdCstesGHDx/cqu7nUgAhP4i+//3TvsJ2Pzz0Bcv3pKMQh/Thw1sF5vW5SXOVhTztat//OgAKVJrVDCaDoIj7ltINMALAJRwAFmKxCyAUaNJXMJ9GzecpzCdc56b30F5+DyghFsOKmOz7acUcRQ+VhFqwzmkBUK9nOvwNOhAHdDsASElZ8bm9orUoJ6wj02Oj3X6veOKPvPnrC72Fz/P8w9fuZDf8E9p4KE3MlXKVIH229ruN145sToX5OyIqVav4oADNdzEhrslrS3XAt7WpZKZjXAL1qFW1I0ddxdbZbAC2OjU1rjpDz7PRYLhV7k3rk9gPdYZU9tbFzXU7xoz5FZ59+Hyz3kOfstAA6qmTI5laac0NnAK+rC+7X5D9rqfsFgsWDiKd22V2wX54uRIckhYwq3k91vsV7qt5AKSO5T9oPWYY+4WRJlDWhPv111/thWJ04qqtABA8hzcslOlgIn39tuQ6663EREyh59SC6EgeLtdHWyF+h0hnz2hUL0dUn1c4GpkPK6AX9wLzGblgPrezhHCux77TXg7eYDboD7Rl50QgVN+1irLg++ZlLvV7E6wiwMSEY8aztzy0m6N4rn3k97XP17G2J0r12rgACOYXIrAJtAyAc1/w4bxhsrikUMU0ba6ontLiR+01v2mjxW0bjJVskPigCwTyn7/MhNilFROQV1TmDBMlJ3E6p9iWHe2CsqPidamWXjuN9NrL1+9s/tVrxTEpgnzo8WYvbb/r8NoPrvcTp/0Q+YyFwAKE6fdc2k+QKja3lHyqZOqcvF/tCeQBb6IXCoRx4C1ljsYcuNAW5o7zWkqXogQrGfEAk2e1PxkA1TSinV5QzCo7XntLCQgIinv//r0ASHs+iQkQI/McAASzQMvAJU86AUA3RolYmWLU78UECJPhrkHymN+HSYN7E3OM+0YbQleYm5vVisJWRWyVzGaOMJ+kBuFxg+bTr9XP7zD6nO1svDfaDHtAi0AE303tWDJ2YNV+BQDOqrxHv/eQ0a/XidClnAIRT1Qc7UB6z16HcsLGVTFQSanOAwn78QjxEPChfbSLwyfykrG97TyN5T091+RXG9c2z66Uq1iQKvH+eVzLhAQ8MY05TL9w7ORabDcXsUMB0JF2Zx2df2cjeqFVjo6gG1If/Pvnw9814x3zlxAJGDPmN337I7QfNCcWEUrL/vHHR5lZBYVMEJxJ9j8pKH77HdgPGx3gHW2M/2HnlS4njguAXFS9z1n8qRgQAOQ8C2Uic/3mdim5GWdUrB5hFjDAlnwOAGLQgvJMbkoMENuBjsA1X71acNd97olNGwAe79WCCa3p+qOy6/19E4MDO0KrwjRD2EPzGR8f0QSB0v7V29WMQX/TOegvvGSYAcsS0ffPlYQ6kFE+VdV6J+SiV3Y0x00AVCmpiH22aKVduXa/mI22j7kta4hhQUiFAXE8FIDcH+kf2kefwhKOtL/Y1soXW//ym01X9m1BWz33RCvWIZwIGMRneXnvmIppoc81MKFw3ryC7XJq+xl7kfHqmLKzThVWm3tlUy8WbGhAlQj7fA5jM8cMbSMcAcsAUx0wwp39I7Qfsu3Rf7bEgJYV4lAj+dSJzyqrnC0InFjAMbM9AAE+EAY8ls5z2SlGLI2yQ/mKsCKAh+fbyHJD/z7kvXkmmK5KBwNA1UrJ2birq2suvgEzg5wcategzYC6vPh8s4/vWtCBS2UgMJC6KpgF0MawKjf7uuF8bhUWq1hfXxfYrDvWxUNycRMKRYABNcb5+MDFH8t8GtuK2XiocPyvS0vKAdszzW6Lj0VUAF7u1g4PiDcBEDlagFB+S1HOfxRtKD5qH97+4kCfKFkGKcdjASiMD+c6VnwQ8VafFxetJ71mo9k17UtWsJF4ybEgrhGORiZE/hhiNEXqwiHZ2SIae/lom3ZmbbNNbX+9U++37sk31j3xyi0IpL10ChyaxZwBU4R/2A8pF4A+8V2A9XNqP+GeT3XdPeVNEt5APqKkZgGLalAKpNF+SgKfmmLbML8ogOeBxztGWChdAfqLjHiE6QA8APRTQLqpACREAVa0ArHVhwLbJMrS0biqoXRv36qMplZ8FkZCvxlgYZCFjnrqe9CCqJjIqg5aA3xoQVQNvMsL89Tr+3sisM9XUERb4cUkxlsG4PSpbs7fyXzCPTL48MawC8an5U92pA2/2l+p9suENACVUSEIkeMmAHL3qomV3dZe9v9RSkbLkL1f+KDqhCOK+bmcE/aUQQqgsLPGweGxbWt/sdP1T5Ze/8NmtDHlq9a0UjVkinmy5dobxtUlJqR7DQeiKwXtqwq0qyje5bgSV/R0qx21jttJQiEUk7N6qdb1uEJIVOaX4yntpz2+r3NagE60u8qSGx/kmk1J+3nOuJ9wz/tydnwT8KVSx2Je2rdKIIyrv6QFBO2H/q2pygEeQG9+CXycCx7vFwGIsCEfuMrvHfsJqB/ew8Ue8N5cAOLCdLbigYpaWdEWyLhlPy05yOydtCAEWexrXNPPYYq5SE+ZXmTJr66uuQcPgmMGkSOGoMa1nzKg7tO/rNpMXMp6fpToV5R3EBucOBNe3t0+qnY8bXDfpy03fQbK7bfh2bePKx/tpJa0vg/K+5nw4ANz4LgJgMJ5z3eUkvGbiqirXvPbmffKCRt1GwWEiOmn3iMTmCMjUyF1JhNGBe3XvvxuY4Vtm3XxQcoDjLMX7uWDSV+R9lEic19OgnB0dCqORXXDGQO8cnI7Ez29Xe2yvZp2yR2csdahGZuYnrZxAUSHTBE8QW7SXeha4Vx3vXsw9OUvWJDRfnjnlt680ZZG8nw9Z9wPzAsAR5v8qO2FsudnsgS8BcLPyf1CA6L0KjXKsRJYtGE5vDN3HABdsB9yw4gFeqr2E/rtWQCIeKCqNptjwpFQibuR1IzXb944ACIyOiG94zkAiAdOp+NaJrweTQgghAGx4ngW9PymWMjJ+vx5UWbDVyfO43FCCwN8SHQkbeOpkzM8yMe8A5JpMTW24fm89lk5YMc28E8FngmAiIAOIH0nAO3lLflH2nqqffZ23CelDkiIZjBzNOseXXyQQGVNpu2SopejR98scfzVJrW32ExCyakX8UGhL24CoIRSCEhJCd4xWR7amZYNA4iebnXJrEfRQesYnbGukWk5ClTy1ZVG9Um84fz3eWc8MtGJtcKEBICI8WIcshjfVcLlPte47TOIz5jZCPkfP34S48nJ9CP/zzMfGJDXfrQoy/wibQrg4cVijf7DK/zM7wH/+OTTq21tPgAJR6E7NW2x4m3eU0UIryhAMC17V14peaYmJLoCQn5ha74Zxk1i9hFNS1Y5ojQoDvMgD4mi2r42ztXuePr3DHrifABetJ6w6rFiwLyYlLyoaggrQ+gjtoJJyhEmvf/uef+l7ktKwuSOAOjrlvYBUw2eoX8qBWPi8g4MdwIQOWGfz6yz1GMv+xdscmhSOhClQ/x5mgVAgQnt7R8pkndfe4stuv3FJk3F/GNn1hGt+SJmGlh8tiyAhQGxIBEcys94hWfh6gmJjQcmpFg8UyVS21W96f1qh+U7x6ys3VlHp+dsZHLamc+MHZ6jlxGucq6/Pi/ABzOX6gTLy6tOUHepHipTw6KIPvqcB6I3Y5FUJfbv+x757LUfGBDml4wvJZZimhLljAeMCGgvQvvUGZJPn579fvVemw9APGT9RzRyVZvZUQOGYDsmY0kmCTfz+vWC3J1sbesfYBgYVxv3lO+D2xFTjIx1rkEgFZGmBJwRRBWu/5TrXP1bHnjIcEaERvzuVTAkdat5sGhTlEIgLYHX1NSkY0KB3jdrsl5t13XfY5agSewkd2zp8Kudx5U+8w8lqY5drp1zJwAltVebcsISSkqdSkg7EQDRx6E+d7PvKSePTvY8Z2tLXxUf9Nn6cps2UtiSCF7W/mKIqThCqHGkXDiBbKvYdptYD14xAIGFkd/z88Y4IQ0RKSNKpNU+WFlFTjuTTNHT1jelZFZ2/njpPLoJJbMGN/1dY4g2kC/IQsRzRwfEK0vcjzNnnsndH543Gixet8NDkpyTAk7mgcoBq48QnwsAkExQF/uj8AP0nWB6IZL73S9UE0iaWch+jyr7/ac2wYI7vubMMF9UnQZzEqgAAEAASURBVALksBGt8a5O0OTEpB5+0IL8yhQ6rRnvwfbl4YP+uOWJ+sUtPz8/68CoWYI04MbAhvkcHpKc6sV36DZF0thJFbcmCblQYYIlAWNipjwTUiGvC6pLCDzxQncN7Gb0USiEvn20Y2tnK5Zv164U7xTvMfJAAFJS6vGyNlZMtytGR+AzNKV7VklU6QfcR7MBKFQigNkC8uVdxQAcKGlV8UEvYqptI/ZdB2jQP8R8AB+C6vwzUu0fgRLeMSYROhfjwI2FBrOTPLLdohJZVXP6rHXYch3Ka5xRfaGpOe9I0MLSJsZAcO11zyqMCe92p9zGkVhY1U1wxh/hGZ5J3c2iHvOsw/WprvDly5Jc8Me6vsq2KXqTcA8WaOf9UvkN4bILLg2BhwAQizUARPIpRfMAIF4u+11jlEz56+77oW19FgbUCEAVueSJNUGT+ba0Inu06MU3rfzdop8+9kVLT5MPHgAHcTnEPxCgCBMK9YKwvaG/DIKnHFyHS0GzPfPx8T/+AXaL3fhdQz3D0cqqXDlywJg8iPNEFbMKk4QKNYf2Yns3e9JevUfaTd/QL+wDtlPctGK3NiJ8pR1mhx4HQLHTNm2tM+o2KpzVPur0wXdm17yJRttZYFhUjk9Un/vrb7b++f/abHnH3tb2tWeGPDzSgyIydaN6ATK0IzwrzDIm4E1MiL5i9BQUFUz09CH1hVRpkVihYrc2YZx/pTIzCilRpcUeubI5rk5G2of2AvMHAKiTheCM/ofphSTAYsxzfo4DKYA4OBY8nCDU/enuRvskvoqUKSKf8czSlzLABKbO9LoQm1kQKcyG98ulXwjASewmETki8HFHExrffABSy/wAQQfSKi9WACWm7gkV2NIS4yhYjylESQT/IJ7jEfhzehGu6FjQktyfrHqAj7u+6q6gxzw2Noj7dEKnmEwoywHlJcIZMMG8aozzoUXBBIAFsSlcVmCEXoWpRg4VUcS8Q8+JQeHgOlcHuPvFE/7hnIQKuGRYARApGNU+FXRbEACpDnTjcZcJllM09MlGxuwoZr35fu0TNu1KS7CChlW+me2n7RwUMEuryuLixz/s4+//ZeP5HYHQvvUrVWMgpngm9V9cE+fq4ZiQJijm0V1MSDiiKosROymLDVmftkIb0lZFrxSoOW+jw9QB73fmNewgHDSPPvOml3aa1UKDufv69UsnPDOhnzPolP4B/Fj0ufbq6qrGXUGMhrIbBEOSNkQp37IDH2XsukUQ5sOijPsd9soLE4wFsVm5X6GPwvuzAJDu0q0gIC1iNB6xrHZ4oFIinUJ0KqvjmzcLbhuZ0JjnePemWNWBAvV2WJGIrJ3QavRB5Q/oZCbJQycID1L/X2I+JPn1aGtoJh4rHfuUEVcBvQ8H7eGFOehicMhMVlQszIhB43bh1N9SzwhQCtdpNiPivPQDe5xtHW3aSUwmQr9yrB4BQPl00dJ751YhJeOg3Sb7pl0iMPWonwOAQl/SforRffv21RY/fbKEitp3l05svi1nC+1Za8O8agwQuvjD0Kc3MyHvMODjQF1ZDKGoF/FCR7WEHSpeKN2h4vcTM3opg35CzhUF2oYDgEP7XF5edbID5grM9uXLOWdyO9Pvge78cO77vHN/jHNY9tHRobzAKY1vbQIl7QrP59lZXu9UcVBAppKLMfu99uN3PmVudqoEB8XHcLmTesFC3Yzk06vtfx4A4irqBG+KyfsgECJLnk7BLX4ojSQmKvfu3RtlH1M9EC3oebgoD4MD84jrA4IbejD9yruam1PAmQYOno2H1l/xFJ5V7ti5VmE+vACQ65gPbeAI7aFZABGrZDgHLDHk31AJEQByHgjZ4L6PnmYu+hb4NmhtECs9cdX4tlNblu/PWmS0br2Tcrn2XGYNdzEgcsKyKcU5KSWjshaxKW1U+I8Pv9iQmCaDm2f7UIAPbQ3vATSY3IwltBVMMPoMDxPjqiozo64M74mqtvahlGtMKSXXxAeFc15iQjLJ2G3jJk0IJqQNYS1d0Q4ctW5LRrQJY69i2iROY46NSVTukqOBBYeEYxZa9Cni4MhFhHGzQcNzZbtzT/QRYwpWfnDAzsHLYrkpgQz1ffwuLAVFlKfTBR/5jOml50O8FuyHsceCTFIs4OP0HwEQCch8xo/B5uqTzw5AfuBIDJT6n89rIzoNlKWlZSuKor55TSDWhIuafU5KysPxNrFPVl1eXhErQxBsd94aEkZB94ccmE2kfWDCrK6uOVPyNuZz9dxhQmGnQ88J0UerIkkVoHT2uFZNImVHVZ2P74NJdvVcD/2ea7P6UbHg999/d/uAxV4r031SdX26VLen7Ttj49x3ARDpGKW8PJ7aJSP7pWRjYgf/fPurjQxS1wiPycMZZuM9hb5Cs6EtMEZSCuj/c3nD8CYSV4NJhr4WOfhqMYnSM9pb7EV76S8BiuHcf573Rk3oMhMK8UJZecnOFDm9Ueu3ZHTYBlRpcWhKO3BMjbp24PXFEcHCggSxsPDSLUrelHm+fD/ux0sOVAjd1eKyKLA+V/8QOEhlSyLf8Uwr8hntR0J7TImnzD2fekHpGF94zHm/9OwwFynJEQqPoaU9dTEJ/c/7DwAgH3/h4oI0eKi7uyJqSgU+arB4LYgN2Dp1Y41Na+7XPBwOBgV28ZFiI5j0hAMQoAjqo7vcpQcFzSeZ9K5VwIIVGG9WYD6scnc9pNAe2kTTWDURhQkboJ4QZUzqoimAGm2jf1idWKloZzBt+PuHHqySTGRywH77+JvtF/as51fFeUwLLOLeM9R4zrsAyO3bRVQ1KRkf8zbSNmq/Lvyq8hbDDuS9y/avQm3jNa77OgAE5qoH/KxjsphevDiYELBYvJs5ZXSnlRybWv9oqZXf7EXk2Oajp652UOst5JHFKLjtmcC3MSFGkUiY5cUeNgqKF9IW2zWZnDHpXoMyx7pkdsJ6cnqWtI3wC+LPaN9zml6hr2CGjHEAmtraVWUl9LgtidB+lKEgtzsvIp9d3R/JA5hf7CVH7I/3xlJ6VcxHi7IDIIFQAB7G9V1jm+dy3+PZAQjXI+DDi5nGCsVWNlBUvGNeC3qrolDsVuCLjt+38Y/5HGyDh0T5CTbho04xLmMGCOK0c8fegoToNiHbHc0HUABwbtJ87tNGBo8zB7Ra0j+c3wPbqb7PCJwKMsd6nUkGGyKBEWbRqC3d5zrhM1yLvt9PHth/Fn/TDhIHNvAviY9TYoFugIVP+ve7AMhhO89W1RGPf8vaYHTIfpl/r5ywUdc/UHcOuvUhgze42/Eg4cbmBWsjkhixFAEYU5VJw/dlsbqi2NiqthZa+vzRxgtrNl1clymmHV5vIR5h8t5HE+I+HAjpn/NKxNJVbQMkk+xIdadLPVNW6RhSRHZNqQytAh6lckjPQxdMJJjED7t/rnXfI9wDFgbeXvopl1N9b7XlsvajeejugGx2eWABGVkCmF8AkQeg7zlf3gxjYdbn/QO8b5Pu9bnnAyBuU4PSC9Go7VrRFSFdlBseUwO9hJUem/mVTLEJaSfEa1wnGt7rTu75IVZ/JuDOroLvlpQrJhOICUJUMuYgA/k6z5hnPr6IOEFlRFlzHz7HTNvRyHNFPZ+HTLDGJocBxAqMWca5ecGuKBjG6okdjtcQ0PZakQ+ZD+Ig7O0+1+decgLSfSWh/r78ux0rB2zwX/J6TF2OgA7tuwuAwufOtwt29HtaRU8H7d206usIgGBw98kJC/fvwbHoQBewB3wxtYikL2nx8ItWl8CY7Y/wHPbr/B6M0bUArXUVXMfzE93/bLHDzzYWK9pYXJs4CwCv0aRD8/W3D2dCBV3zUPFCB9qn/ig2bOm4xOiERFwxIaowwH7YHpox9VAA/rNhd3xB33HfBDkS9/Pt25LGzKnGtSKcLxZ1vF7E/fDsOULWuzP1L1ztmGHkvVFw3lVC1LvPU8OMbq72E27pWQHIXYTOufCGBTMsxAWtrq45/YNgPUyYwUFKeV4/CUKDn/qu5ujwTAyWQSwOW5SwkqIF8U528tVgwO/MZ9Pl9CBcDw0NiTkNqe3D+jyTwGePP6WNACQDisGEmxTTIwjosEaSR9leB7MM5oXASZtZvYgn4rgLhEoCuXT63PbEgD6vfrLTlqOmAFBmVykZH8+sl6RU9gkbApg9QPh2Xd827pfDgy+F+lNO2MfDdardUqH/xKAAOrA/v0r7hQJw434BX993cpvruXKOTcUHbX75j83LFFuQKdYZq+vlLnXtP7TD9b3MSdoCIwIQv0dMf9eEOIFjQphjZeV6lVtsu9JhB3VpUSrMFpFJ9ubNawHQC40nCft6Ps8JQMwpb13samFdctpPd7ff841dMKj3gweMPgKoWfhZuL5rP97ER6cifIFkVBZjDzxPr/tzbYfrhz8EgBq9YYAQKw3ei3WVL2UiYHsOyo5/IVOIVe25HlRjJzDASJbFHMRbwXBCX4HR4MlyD0KDmwFIGEHQfGA+6A9e85lyoiMU+65J33jt+3ztJ4OflH7r5VPHutCtACQmHB6mkK9D251QTaKlTBRWXJgdLmDPjL5PfnLA2ABwL7lnX7YXLR1VDtiv3dY1eT3435sB7avchPYJ6y712rxywiYGEdBH3EAP9wzW+Hvzhe55Dtwfz4KJgofrXPoJu6gCwoRsEKGLqewBaPACbP/KKDgvB+fJqsD68tI3W/72xfrOtc1zZl17i5VtrE1bzugzt3nBG5kQIAQABu8Y+WONTJNrYtbnFVGckjB9op1BMm3DVuwas67xWesdm9HuLKoOIPO+QxO+9aLECeOtGWOG6wMqJFwjfu/v78my2NeYLWpetel3Ncd8cLszlvVRaYvsWELNHx/381376XJRzyScOq/YM2o/7kHpnx8GQH7QscKQq+N3YiA3Bjc09JoB9ssvKuWgyf+cYl248cYHhzkIEJGygcaysODrGvNgmBysLGhGy8urjh15t6pqxcitykryUBd+aMNd798nK4zIe4CcGCsAos0pMQTMk6LayIBBSIQVeeFagCJtBJDCfofRMXHChCEHbPdoTzlgXywTP7XhX5SCMX45ADG0794AlJQAqpyw9ly3MtRnbHqYnLBJ1zbO5VdfYsOIQWH/KcyrnJs8LEjcC86JuICTyYFJiy7nNR7K+cIy4w4QblukmGgA1/Zu0rZ2D+1s9T92tvJve63YoDd6xfTHt5lifqzKcyrwuYsJMcFzrqJg2VpkClbFhDMtCdWaVmkP7W+UU+T05Jz2eiehdajfepWHJa7mFln65KkgRJ8CmGzMSaGzVOpIz1ieP5leOCpoPxHPZLzDfBCfuSbpFdRsguU0aj9oPt5bh9fVl914Du2He+d4fgDSRb6DDwDEyqdITNn3aBxJARCTn5vEXUkEsS/Q5HdrdK18xn/c6qW2+FSNDQ3yuJvEVG7EfGBSeEE4pYebcgBFbhcT/TmYz223Sj8G5ubME/WfY0QKesMeoIQGExR3PRSagQULQqxmMPFzfs858JTsHismSpUF2QnV5YCNPg2AsoqITikiOnaasMGimGT/hBNiuS7mJC/AjOujcxGTQvAlP4ftsPMGHjWYHFoXAATr4XvA5zbQaew3+okjlVYm+Km2ifr6h20t/mYTtQObqh5Ynwra9yk+6K7jViYkQHfSgtrL/dDuuNzZpCrk6yrrUY/blnZmTcVUFWBk3jpHZ21UaTmDMiG7VY8Ik/IqM72rPdf9nvGL04I5tLy8LLBJq79YdHzoCaYXXi/CLgAgtiHCpc6C5bVETC2f9c7PGDMAkAN7Menn0n7CvfwQAHIXgyry0iADgCoaiEELWltfd25LXylw1CVvonEAVmEwhQY3+z2syoAM8SVMzFOFCjD4qdcD6ODS9JOi2zE0xOrnZD633SP9QZthELzw6OG+hzlkxCQZjNRewoWv4ebBRyYM4fVMakCTnyOkJ9OH2idrX7tgKAVDOWBdw08DIBcRvX9u9UPthprsspHOUWN7IlZc1y61E8Dx5lZB9+GZAKtwb6+2fWHnBa3K6BJMBsDSs2FiT9Rq/nnAQSgDouuydupd+rpiMe0tFj/6anOKDSI+6K6Dvtb/1zIhGCXASYY9ZhnfA/QRvRNfU9YrVYnZscyyPZV7zahe9sDMGxueVhVE7cw6KK9mI9N/6L2FtuOgILgWAKLUKnIB9X5Ykbzb3df7QaRmSDBuARf6HA+u19O6HfCg/bh6QDLj2fM92sSs99Deq+9/AwD5yGgCtJhAmUxaE3zfsSFWEoLKFl4t2LAEXkRdVokfcWDaEFlLWzDFWKFhFe7QwEdsxqUavF0/ql233TsThD7zAqQPykMfygqUmOSYEM77qJMQcEb1AVY4+h4AOsmeWLYtbfXeqvXMKMao73pfNfViMEU50Jeg9tcdpVzVCildNyl9Yy9mfYkB51mEhWFuYRrRqUxqDkxXPxkofI7JyLt2VnWm1tO3JgoAQmG6HZliJ4oPOln/bAsxpWvEiA8y9/Ktufnf65gQbBMAZYzExZrjF5Ud0Is40FrycjhlVORsv9RmqYgW1P4XblPEoQnVFlI2PIssZn4wj29uwV9/ExahZDLpduTF7V6p5DVf6nrGMgVllp1r2ySEZ/rdm15k/lNyIxScD3E/Xvvx+YeU3kBWkKkrptSsrPe/3oH/yQ8HID8oQGPRcA1qJzpKY0ELYuKjWTi3/MSY04XarkTl3nQjT/250w20muHG3Nra0aq5ZEtyZwI6r968dqxsenrSmTJe3H3qFZvz9/Rn0AEAGyYFqz4glFNkMDlmgBIA4EwdgQ+MKakQiIzSFqxHWkFviyUGtep13uDF02SqiY1yuEzoG9aEuqp5VQp6Hcvjsl+xzniX89Kh56BDMfA9yMBy0B98/An96YRel5fkF53HMoLGXg0ABEtEa/q6+Nm+aT/02fKmvahsKT6ofmt8UDhXOM9lTcgzH1hPYECNbQZjHXsSE8pps7+M9qjfUcnX01bFCQ1rw0oJ1C/EDtk6irgmQOghB5oOc2dra9t+++13PdO0Fkc8gzH3/HE0NGo/fq93b4rD5mGZ37Uf0i58FQZnqrPIqD3+Wd/wsB/S2Fs++0MByD8UVkBNGiF0qcSkKGoVVwSrNjMkQjmvOCHKABAYOKWEURjRY+j3Lfd87a+8LlEWlfUVFLe3VC5DD3dQpROmpqddsCLaDw8NnahxsF17wh/8Q/qUg3YBSDAgSp8QYc0736MXBLaEVy+jjQNMbL1FllesU54eAmWuOeibnECMI6GBi0jshcnLH5Z/QfaKwConYTQtl7cGNSIygx0dCABi8GNeAUp4t5h8QRznbM3s19AntB+2vaq0GVJnYoeLzhSbuIgPYm8xlfW59eBc1BECxAF5vmeC3uQdCyfjqUD8iJw+KsXt2DqdOVbtmbD+yTkbHJ8SSFOew2+YcB9mzbVZRJAMdna25SBZE8tRIvFgtwMy0i0ot0HsD9oPQ4OFHWYZwIcI50vaj55Ju7bc4TPfF4Q7OiXc5BPefxwAhUaqN9CCGBCAD++qHqXOQpQ+dd4d4jig4njFWCEabeVwmma/hzgfQJAKckxYHjQTghfiOJGt0GbyZRgozZwszbwf2g0IMVGcmeDMHv8z+htGBAAhYJfFiKrcJ2MNpL/mYIeTPWkMnHdEXsLuTi0KN+V3Mdh1npiibIPrnIEOAHmPnM8l8ownhAhcf91rmvKoH4W+oCge9YPWP/+3qyH0Knpyr/ggLlpXf2KmI5zDehiTABvi801xQqGxgBAmGXWnMck2tUX0YUuf5XteWMfYnMp0vHKmKsAMg7nr4Dnw/BZVaxyXe6GQU3tEZpVywe/Y5yufZ37h8OHqAljnnCCC3Ju5jGHmWEILQlyLAMGH7PsVcr4Y28GcvKs9T/n93wZA2KhMBvQIsuXRXAABQsk3FMnKZHg5P+9EX2KDoIbPcWCuwMAwAVlRnFtb4ONiTxRxDHsgyRG9gjZQTAo9yA8Wv3o/R7ueek4GYuPBgOJnTEZYEEXSMU28d8SbV42fb/za1zOmnnDNBdZRZsMJrhd6R+Nn+ZprYVLQh4id9Js3W78DjT7ijh8B4qEvXHyQTNFlle9YkYndl1nTa8Mm2so2rtd1B93IOGWcOE1NgIPmw/05k1a/uw8TCufOyhzbzCmjXltDJxOTFhue19blv7h+9Uzxeh0u/D3XZIzidl9ZUa11BWoKW9z4RJujnexyivfLsx8PJLD2S9qPc0io4qEWBlgPzB5WxCLBwXP5Ec/mbwMgBgUvJ0aXYUKe2rKj6vKKdtGQLtTXN6hYmzGbm1NAl5jHcxxoI0xGditdkrcE0wCAoYA+m9OhHRxrV060ob29XacJUe2vUYz+EQ+qWffu+10rstiRF4W9OXHb+cnQ/+OPT+5v3rxRWVK5kgGVm8RoDV/WD71gOJ7xNPbRjwSfxvvifnltaW8x4oNOl/5t6dV/2y9dWXvXkWv86J9f018uzueC+cTkGHHgy2S/iJi+LxPipHkB0G4BAOqw7ei4tQzN2b/+9avG+NyFqXo7AOFN9F6vXXm99jRvSDb1UdaYXrjcy4rM9vdKygUxYEH7CaavwhzkcexRmowrNK97whRubb3Y8dQ/vD/74Dm/+FsAiLX5OwB5LQggYmciki/pWMwxOpQ9qV++nHNiJijdrKA/z3xKzu3OanJ6mnbXJv5ncpJKhn16sD3OFCNaGwDCPIN6M/kAKXQqVnjY0H1s9+d8kI89N8+h8Wj8lq/5/cGBcsZ+/+gAiPwmUk8YsPTFYw4/vr+zocec4zF/E+715FSBnKcZ2/r20Xb1mq7u6rVn3XEVbJcwDUskjCEAFgwoxPm04mp35qf2VyWkRBqLZ0JVp4vdpAlhCVHe9bQWVwZ9t52qsmJ94IWLD5qfVz0hpSJ5/eWvfUq7aQuyAKbX6io7DuP1Kmrc4fWKud9nsx6A+Kyar9kkJtqg/fjMdu8B65T5xW6naEJUc4wrgJJ6z840/n8agMLIUac2akEUaDdFbxIlTawIptjKyro+3eIYEBHSlF2A1jfj+M58tsR8VvQgVM9YeVUwLioZBnGUwYi5SB4WbWL1obIi4EM8EO+UmP2ZNaH79hcDXf//eYSBDwB9/Pj5fzwAhRsryjWNGbqyvG5rqmjQeviH4pYWbaazZtPtPnYIc8sBi96Dp8tpPzK9Apujr+ij4B3DlGd74+s0ISoqHhTlkq8pX6x10ip9L+zlm/eKkJ6xvl4PBDeNIa6BFMCiTMDs169ftTifa5GU+1xeYhbTq16vEPF8tdZziP8Ju12weBJBj+nFffF6zsjn8AzC+49nQOHK6lQA6KoWBBPihUCKWx6dgozcwcEhw/QhQPAp8UHXMx8eZr9jPiTEhr2faCoPnwN9ipQM2BJBX/yY1YKSEEOKWcJExJPhBxHmx49f4V1Dn/hPuF/uj695PuQYYYLx/UMZUOgGzscRvv87+8czG93X4Ynu7dhOlKZxqq2ep6NnNhXNWKuYRZxgWSfi+zgfxGHYzVVhlvu6jQm1yPwhMjpdb3WJqt4N/9IxH7yqw1rAYFVoSvRNY7/Q35yfMevnw7Zjo2yvQ8BhVxcaZETghH5K1dGSfk5wp1zoYqeh2Bggg77EC+bTJeZDGQ7mldd+qOT4Y7UfPxp0v/sHBxdDI/zoB72rZwEg38kMdAl90oIQo/kaFkRYOZRzY2NHndclse6fNi5vFOUN2A7lMQfnJXp0c3PLbZgIo8KcGhvzNZw98/GRt43n95GkVRc4ibnG35Mf1iUxj/Ku04oRYkCxkqCNXB1Mjef62b8OA5/3pwBQABvul4kUvm+cZH9HX3BfMFuYEILtp9//bd8+a6vn4paNFndsoJa1/loeZde9rjKfq23m3hDov2tC35lQXWYN0dDJlm47aJuySv+cvXz9VqEdM1roqLvj96fz4+WvABQWTBwknxe/2Kn2du/skgguS82bZf4efFoLnlui36nfLHFZIIPGEwCIGCxvdsndDgCpbZh9Xs8j7sch4NXbe9bv/1YAAvkCALGKAECVCgDktxTBTU+EJxMdm3Z0bEI7aYxJHPbaC3rQfQYz1+BBInSTahE0H9zReNjQfK4yn6u9zjk4iKUBxIgk3hMbokYNoIleBDuDCZEn5h/s950Srp7vZ/8+TNKHAlAAGbrLj2fPBEP/3ed5PXff0BbaR5QwcWcfP35yQYqt57vWnt23lyrdMRtNi0VoMdFMv475XG0j52tkQmUxkXKk1XKRhO3Wuy2dUFWAsVfWPUl5VmJ/vjOfcK7Qd3zP+WgnFgCF2Mhyx/QvFrW1cp/EYoWBeNDx8T4I4dwPwn8AoBB3hWMFECIVh1rPFEcDgCg2D/Ph9aO1nz/v+W9jQKEF6mSYUM2ZXmzjw4toXkwxH6C4q+1rYC3ENQwMDLrtTWAtXgi9nQmFwUZZTzwIgfmwQvhC4d81n5u9OqGxDDJWTxIQfS4bUdN40LDR+RnVFYkXApB44P+TD+4V4EYDuo8JdnUCNQLQz9QPYUxgVhNi8fXrN+mAy3auIv2F9In97/ak/Stxolgm4pkus5Jb7wMQ0lhGEyqo5vKx9pk/qMvbFRm1Uu+Mvf9F3q6XL924IO0BMG7ss8Zz00bmAdUgyXKnyHyplBe79jub8tnzc/LqSO5FMOfzCo6U1yvE/AA6PvBTJVdd7pcHn4Tc7QAQaTUAj2/Hj9V+wr3+fQwotCAAkKsTBHUFeLwQiCnmAwTPnAiMi57CX+wqifCL54AOvmlV5SEGCnt0dOKYD7V82DIFthKYD562+3rXOCdHACLKYsCqiJUhodXT3YSAkl0t+mWn+5IHYbDd1NbQHT/T+30A6OoECvcX+il8/zPcF/dDu4gOJ6gQxwLPDBDiZ2fydubO0zalTRonS9tuq+eBOCVM73/g7UorJeWsHHXM50gBh5nWAYv1jbtdYHyBMp/8edtZYf9UPEiqbvfW1pYWYCocEtFMXA8F5v3mgh6AyPkTUCr4M5hVBBhSEYHxeFfEM+3w4/PH65Y/PQABRjAOHsDOzqYTgmWYi72Muy2eEY+vG+QMNLDiMvNZdqYRwIVXbUL5ZvcpRH/dQAnnp228cNHDhvCUAUrEygCS4+NcSxXytNL8T9OG7gtA1/X/dX32d/+MScuixoLBc8KjRPIx4wFGndFuERQyK+981lbPX1U7KGfzievjg266l5K8XfvFiO2qRCvMJxVTAbWObuvpU8E9MWMi6hmzMJLbDgqMram2M6YXY79WK2kx8wXjyHL3aRa+yiGyAC731lZfw8ezHrxbfvHzEc+qLiC959qIZ09Vb2vOs/3upwAgOIWvE3SRva2VioHiBWlfSxq9JpVKunids7OsHmCXe6AMnN7efgHJ5QAumA+riGc++/Ii+Mhf9JnvzMeXXn1M74YVnr9lAlLbiDKgUGbe3aGfk45APlt4sSI1K5TAX+T5/r0LgLzn5sevmg+9Y9zpjKVQzZJYMwJM0WxYPAilIOevoCA+NKH95U92vL5oL0z7i5G9JbOnQ6/bDphPVnE+ZypSrx3JXJxPi+J8Ir3sAS8dyZk6ETlTEm7xI6Ie8RdzqfGgncgN6D5kBLB3W0yxSYRcXcd8fCQ7v1ewoQRnV05DY+xn9Xo13itf//0AFFokukLGNTk3PGpMMZJVEY4BIwYRsRtQZtgGGhGTmhVlfl7ZxVf0lu/erm1XrgA3qmc+409iPqG5V9+x12FrRFWzeu1qZSWx1TE4/W5qasIBHwGOCN//E47/VwCI1AUm9dbWtntxX1ry9DwmNBYmnOOAciAAUkHBfp8V87T8ZdGGs6s2lN+00baqDbfenq4C83FxPtWEHSRmrNg3q6oOKsyv8zsWrmRr9EdMv/n5WXdtmBBA0XjQ1o2NbbGzbSc6VyoFsekesZuY/vY780F0RoSG5SNLAGa8AvvhvJj/5He5JFPA7ifwejXeK1//VADkhoUznRB6g1eManloQuTjaOM7MSFMHB4UCazE3kwrW50VBeGXVYJVBJpNyVc0H+x7ypQ2g/lc7cDwfWBEgCTg59iQipmdS/gmcxmvGPk4VKHDdd+jF6CJx4Kf/4zHzQAUSkjczwv5o++NUhU4MHA6+BeLAk4MX5GRSYpnCIcGcVzEwuCU8Pdbcab07rZ2i935ZuWDZZuKpGw8krGEBOmr+4uBZeeB+aggfapV3q3RBescU+ExLTpsGMDOK4xXFk6CCfE6YYL54FrPhPBeMW7ISWS7p0PtWOIjnWtqH+MDrxc5Xr6iZGA+XnT2bvfg9fI65M/p9bo6Fn4eAAotc0woeMW8S55dHCtiQURJAy4MJB4UG68x8QcHR9yKQvU96C4MhNXu27dl97CDDvMUzSc07673oA2xQgGYxDHRVgAxmTz2QKTBPq3BOalyIwAoK9XPeNwGQKy2mGA/40GUO0yDCc8rLVaakcA8Ni5NTnoPJUIIHnURzgIDTGgWLp4d98zCxuc/yT2/9s3XD5qp7FpfK6kal++YfePRfPYqYj5tM5bvfWFv3r232bl5md/e3Oa8flEk8PHQMSGcKzB3QApnBeMWuYBI+6WlrwKsM8d8kBauYz6yHJ35xgLW6PXCxAOIYEDd3RdeL7ndMc9YBP9ur9fl3vuZGFBoWQAgMaC6XpgwZdiPXNyAEOYYtYQotMXkxqPFZIdCY2LRwaw2RC3DPDDTnpP5hGZffWcgoy/A2GgPGhFeF2gzReRbXXmEuGNtMDfvJlWtHTegnl4N8Gp7HvP97QDUvLy8x7Qt/A2TG4bMuOCZ09cZ7ajBIhTqH6GPkEQ6JDaC2YMoS3/7ZFl/JkAoLB6wbfKu2C1lc037iyW/WdvJik23Fmw8rvyrC9nrEvOJw3wU4azyGlNTky7EwwOcB2nGMUwcHQpQhJnzrAEMdEmuT9Ivnl4vOpc1NsgxjGgMYXoRb8aihtMjuNt9JjuLAbqi1xd9wilfu+/d++U6P9zx3xF0GJ5Z4/tPy4AYDBxQacRkVhBf2b+mzvMitWdCSceEGIS40/kzVhdWAMwyQOlHMJ/GTm38OgxqVtWcPCyApqvHrHfqTWOSMQDZYYO4JMwyqgVqPLpB2XiuH/31zw5A3/uW+jcFF6+E7ka/Avj0K6VDGAOwHyLoYQd39S33DWAgBB+KsWx9+U2i9Bf70Kb9xeJnKl4msNJJ9guB+Uyrts+sZz7zMB+qC1JE/7JAT3uDY4RxQEoPJiJMhcWKjTqLxbyAB/e5L3oH4PgCY5j2JX3uOubjo50xJRn3JJ26xG0xHkAIb1gQu2nTzwI+jOefEoAua0GIu+hAXohmpaOAGe8AElQVE4fa0hRicsFYorNM5lltCjc8TLU5XynuR0/gxut5HcvrEmTXk9vDi/biAXRZ1GgDMse6tDqHd1Y3qDMDh/F8dVA3XqPZX/9sAER7mMSMBYI+YZewHccy9TX6G0GAMBviZXwwaI/0v24nNKO93MdsDMDGec+UdrO6tGS7a0s2nFuzocKOtCDlW4mZ7Nd77URZ7W0wn3FpPhK1GXeNzOfqMwlMCI2QffEwyWBbMHzdmRiPCUQo3hb9/9s7F+a4jewK8yWJsixZlmyn4l27rLUqcXarsv//Z9i1VXESP+JX7N3Ia0lckRJJkTnfPTgEBpwZaiiR8yBQBDGDARpAo/v0uc8uZkdeH5xcrb96Wc+GA27axai/jzMzsM/HRDndxnotEvhQN4sHQHljamiJFWOXAchhD0cECkq/YmUj+57LX+Jvoszf1UsjmPTBg0/W/vSnf6uGd5mdlnudtKRhYzHDwseozUgI9X4kv5THoufbispHPChGJD8iQjsQL/Ehsvx+eSC0aABkD3lnzwQcKhxGhgbELYDojurqnvQp1B2sB2VzYvvo2LO2A54foPvq2x/WvhNYHH7/+drxL1/KLK8IeblI//XGR2vPbn+y9tkf/7j2B3k4v60c147tmtQCvJ92gKj41VdfFwj9JH8kshq+//5d5emBoeFoiMiGpasVvzi7zO3yosZ/rcBHynQYjnU+t4vxbGnAIsUGymun2UD3M59Yr+k1seAA1GVCjBxYEwCe+qwtnwEm8uHCJmBC6AGIibkvJSMMCGUjnZhRadYGeFblned3Gh9L9Ba20sCInlZHYkI9cs8ANoBO37JBp8JiQ0N0sqnR6YLPc0+TzpkXAAVoYIbUF8wGloBOD+ChU/IdVsD7p65gNjBdlPrvKL0Fur/S/TSK8vO8e64NQ30ktsLsE7/89xdrj/7nP9fWX76oWKxbv/uXtdsfPiwDCBNaTmM+qWPuF70lE0N+883XGjg1LZJiIJlI8KZmMuU5aBt95kOr4XmI3+qDDwNWiV4Sv2DLOBwy7xjtBNM7kfGXkWA+zzjLdnEZUJ5CjaCNFetaxeioYUIo5/jNjoc/MLuG3NLv3VNieykEsY5hdj1PI8xtXNSWRq4/dSoYkcMD0GGgf8Byxj1Dx1Ge4j9ECAlR1DQ0aLip+MWY8ecFQABLiSU1uDC1MIrlnaoP6oTfGYQQsagT52Rymlx0H29SVOX9ML/YnoJC/6KUJMRl7e09k1H8eO3f//zntX/97DMxVutcXqWN4BNEMDSK6K+//qZUCB988I7K2K6Bk4yGROiPYz5MmbxdzMdzugM6nu+tZT7oeuLvQxtB7Fw0satbT0sBQGZCdqNnBLHoRS5p64K6TAgvV6xNiDccd+fO3QqHcGwWuYTI+mbl4CIBkp+JqVRQVjONDBYdptPZU2e0wxkv7pqsOYy0WFAY4Wz5MCtKg6PRAVqsPOt5nzMMgEDIL75wSlbnA/J87w4tGVW0dhsXnymDpXsP7APcABGzWQYQ63UAl129uz2xhH3pc0hUF7bIeay8Q541MU5YtVDkbmruM+rnTS8wMkQxQjdQFDNYsHz88cdl4LBuqWef790E58PSaZuUgbWLdDPoMm/ehNF28/rA8GB3RAHYy5lnLk9nAWxErvJnQl94i8Rk6Ap5flbn4C7wETscAKj3Ms71lUarlRcJJafhspQ7fYcJIY7Bhhgpic1CIUmoBl6vDx58IiZEQ0Wfcv6OyXUvaqFj0uhYeEaCXGm06IoMrHvFANIJaxTUCGxdkfPL2LHObv4Go+kgMelZ3OEVFqVo+M8//0vdTzchGeJCF1j65eT8PiNBrDHgIFrZcZMRH9EE0N1hFeNxqpODAhs6G/4yGBVwKsXCtSXxIoAz7T769zXrd56D9wIrYwWQ2DcL88EE/610SaTUIKEY1q67SquBnw8qA5wMxzEfxGyzXQaZzGphxkMWT97/tqbTKXFLAxPuHdcUE4a4xkK9DAA06xsfdzyNQGt31PRnRkhRcq34CzHDBpMe4idEh8X8jf/ELSly7917b+2+otQxzyNH03gvsuGOe4yz9tGws2BypeHCiGBGsCGYXYknDXugY6g3lBVts3QhZj8ZlWmYdFRAl30Al39zfBL6Eyu3Dcjd79wH5mEAaJQByeelUjlsVkdEV8NxBhw6q7+zzfviMyM6wMPobtcK3hnvzvvp2AwovBPPYW4WR8cDgMqk3Ig7gGwYXurrorZ+LuvtaFtV57pY6njSdXlmBkwGEbz3sXgxi8XxMTNwvNS7QC+J+J2MhqeZD+8OxTb1TR0AetH5UC+kVkVPSHsGfJgkMfrBqkdujoss6LL4IlgqrgGgdFAaMkxovxTTDQjpZdMZWI6PUU6T0OzvCsn4XzWEIyWX2l773Ycfrj18+IfSpfACI47lMou2TeOnDYFNgA9AhDKWgEqU1yiyAann0i/Q6D0vPErLzWq0dFZENrZOTI51CDHGYBRxDUZDp2LUZR/XBEDoOOPyAcEu+b3CZk5Epa5YZUulvddhOtx7c/9iO7zDulddCOCzc+aNYnN2GLR4QcfjXaUO2M5j4Mi7eJU2wrEAKvordD0//vij3hMi10ExH/x80Pe8KvMJAMN4yGwIGMOMACYSjN0QCPGd98ZC/Swy80kdLhUAwQ3cCDzK0vgZYWqV2IUvRYlk1QmtH9rdRYH5pDoseV9uKrXrPTmnkSoD5SUdkkC/eTTovIRpW56Xhfvjc/Qh8fJlW6ucNRFZLNrEOuho76aIKoPRsSuCdp+7Gq2AwIDkOC+u/kROfd9//0NdH1E24g/3xfUMQmZA7GOp90RYMX+6gQLG2urHAhABZMPYwiRqjnWN+IgWbQeDvQGUzf00D9O977rgJfzLu+hfKvXLfr8jxCniumA+v2r7f+XdzAwWXv0u0fvF2jVW5yPQDfMxCDOAbAuA5O9TFi+MEICzUm00zPaEzXIzIPWCL8sDQKlIGrHWNIZTTEgghDhmIOI4jbKivKTJ+Pnnn9Uw+L4hndDvK7NiIpLplMu08Pw0/LQxPGYRRQ1IZhl0AnQqsKNy0kPc0ahcwA1waAUYWC3+mD3CCgGhaswCCVjX0yeP63qYumFSiEhkLgD8OZ+F4w1uEutUn4Ad0zgH0IjahnUhRtCJzMgQH+hIFhUDNMv4Lrhn6tEhF48rqJRsnoib6+svBdzMELuld4LFE/81Z/5MmAXn93U+Zj54cJvFGoCYRUP1JuaD+LWMzIdnZVlKAGJUdgeczIQiGhDAeny8r05or1k6JS8cS8HNm29LH3RPis33y2+EjrHoIlm9teb5+Wxm1GZoREcRXQvggFWJLfXBfoA5AERMHfWITsP11epuAnBc4x8S935RehHoDInWyjFS4loBVHMPfDYAtZY3gCcinUENHZT1ULHYhP1Y7LNxgGsu00JdGXgUxCpxGCsXgcc7O1hjnwmAEYcRM9errrtR7SigeS+UUYAtJgMg95kP+yJCv6V2WgC0xMwn73f5ACh3TsfRyotjmcyE7B8U3RC6E/Qmv/22o+0zRUa/p8RmTAz3QXWuRVRM55FfZ0s9GWis6I3oRJnpQAYp69PsFgBgHYs9EjbwbX3+6CMmbXy3Rt1YodgCJGE6EY8CQPkOQJ1lOXudZ5zXudQRII+yGe9sglhR3F9X7o7t7U0xPhs8YD67yrpotuoQCwwkLGcxn4APKgNy/PAdUKKOWajjZdD51M12/i01AE1jQuWYiF6odBQ22+NzUYprUWKsSnjWIo6hY8DBj+yKmdkCmXpZ2FDnfU78GKCms3hFbDJ4s2WfQSosCKbkfbg0/IemhEHU+vTTB2VFhPZTRxa5GjZEJ9Aor+7Q3Aff25xB1UnOERIx8aHm/IPdCZg4gQHtiUDnF+l7Holh7wqQ9lU3Smq/5TrgVsczn8aaBvNplMoRu6zfwXiAuOVAWoAHKxgMyYBvS27VeOTxOdfLLJdfXgDKU05gQoRt2Cdo1BIjYUUvDmWulLckgPr1iXRDv4rSEj3/nnRD/1xzfEFxLT6kM+WCV2cLIEEwz+sHtMo1Rd3AXhDpiWrHSfGnn35QFP5v8lfS5H9N/maAHTELRjmO+QAieDgX2AiA2rQa+HG1lkvM7QA+20WObp/1na8EAI1jQihkncIDixCfUboCSvYTwov66OigMWXv6BjJ4ao90lfiWeqk8u+VoxdUN2LErBW8zMfTyRjlX8cTepmff9y9Uyd2HNwrPQ9WridS0MOCDg721KYONXBZGY9eCNDB9YBzACPvQ+dj5lMe7Y04RQAp7KecC7UPlmlRCwaEst5xXmXxkoKfNrmszCd1u/wAlCfRG52uExL4SByD+SCGnTAhMSXic56oAaHr2HuOaf9YGQt/X/5CpOwkut6ihGXtXHLVt3QYgBkGNOoHRCjGYiQku8x3YEAmydxupVZl1go8m92eDuW/RDKw62pPyWHuOdtJE4PhwwsOn9b5WMQiql0GEUCIpGLalpldTAcAQtTC2uVjl1/n039fKwVA45gQysFa0QfpMysNhpEKb1QzIbxzZRqtcIDnamB7cmeXm7vYEDohUngSAEqysChcl1Dc7r/7M79PByA6Q6vfObOwJT6AeoBBw3JswCDh2ePyL7OVC7eFDE4cy4wsrG0OZ5iPfbDs5FnWP/Q+AnICpZkuB4YDA0Ln0+b0af18ENcYCGswpD5XoBGuDgClgZ/BhA4EPqyIZazr69YJ5V1iRqWhPX5MigzlmFHENWZ6poNGLEMBCC1G2brqYtlkAHIoxipatNKM2MJ4EJUYwAhAJdsi+h7i8gipuHZtQ6CBlQuzed+/Z7yVC5ELEaqcLguAFN+l+MRW8UxZeKmvNvNJPa8kAI1jQoDNSfxRMSEUgy0TSoVgwSD1As53z0+i0NfVQPC9uCUTdDev8Fsjg9CqAdJVAyAAp7vQBrCWYgVkJZSCbAvoDs2gq6XVYMR5TBaI+AVgofOxb5X9e2A8gA/gYnEKILKOx7FdMCCZ6yV24StVAMR3gdQqMp/U8+oBUJ7sFBOSKKYshFDpfemCoMeHHSYUP6GynEmZmMYIG/q78vPoFO3bFAvyTKc4MLLSOAAeU+PVsphNBiCm5cFzefGCefP6z7PleVntlsBsvDavf/fd9xXLZdA5Kl0PrMdBtYANesPWyuUwGQWc0i4ULxddDiCEQcNilrM1wqZJJ4LimUyGxY7kV8V2Ffx8znoPKw1APHwU0xVyQB7pYkJqNBqlGKmOEMXkLY2CukasxkpGYyNw0KENBi6i7Tc2GJGuV6O5LfEMHdG9d99RoyIq2VPnnlXpy/L7NABy51gdHRADThgPc4iRDiSMBy96sipI/aJ3z+rnRrEM62EwYw2AhfmUvhAgKWCB/YzmcCpdj9qM47rMjgqA5KXPNvqeVdL59Nv+6gJQnvQUE/KUK2WaB3QEQIDPgdJiopyO3E8k/aFyTYcZ7dfvuNrvSf7fK2X0dbnCM7kcEfbk40FflEaDTmnZRbLpALT8VrC8a7aAhnV/T+XN/FetTPm0IxP6rgYXUmKgl3EgL+IV7Gd3F92Qg4EBIL3xE5Ecz2ZEqutiPCiX7WToLJYMVIDOWxLr+QzzqTw+Sg+zbPl80s3Ou70SAETldJkQjQ1/IMCHucYwNaMf2pfM7yBWggpRVDemex0PIzo68qSI+5LzASbI+iZhCJs3zIiUj5hcxCTMgmbDEpZ5WXUAAkTQAzKFj8HncVm5mJGUlbZwrBlYYqDgXVInsXLBjgGgMJ7xVi5ELrFjtQWHrmzZz6f2Recj0QvdkFjPltZNgRfBvqvMfNIvVh+A8qQ9JlSAIhHrsHEWA3zIUmdwYkRMTBT0Gh8OGqKmfGnK2xc7YmaLp0/JyfO8GtlbSvXh/MT/JBC6vfSMaNUAKIynxHGFleDPQ7YA/JxgPQAR+XtgPLduOXAWPReMx2IWuh7ahf2jouuB6ZIbqavrKR2ZlMkwH7JwMhhRFqIVBg2YTymc9XspqDWQ1TnSE7GUXtE0umlxq7m5UgDEKwwTKgZDJj+xG1hQ+QqpoYURWSwjZYJAqsQ0iWpiQesFRAKoiipPw0Rf5JQWpJzY2rpRMzRYLDMjwsU+jGhZRLNVASCAh6Usm/L18pxs1vMQnIz4fXjInHK8R+YVK/3xiTgO4zHreXVdT0X7o/OROd1KZ+t1AKDrSplaM1dINOM45zu6GjqfehGdf1cHgPLQE5hQucgr7MDTQAtYRM27VjKbVvcNQBvKR9006hRLyopnz3a0kvrjoEY9rBsEuJL8DCdGcuk47URSViy2nmiZAShsJ/odBowdKZdRMDtdBpNZkknymd7VtVrJhNAyHgYlMx7y9sCMEbdgQhlAwnwYWCqeC8ApULHC2aZ0mdrLuVDHyOyOiGVRjGMBIwPQ+vpyR7WnH8y6vZIARCV5TARHaFykBiWUw05ngE8xIrGfl2Uta5mQOJRAyA2SObxSEPqiA42ixP7QcEPzYUSb0hHh7Uq+IfRDKKsxu6IbwKHREeSLB0bLCkDcNwMKlivS1z55otQrT5mJVulrtUWvg0htfR+5mQGeDb07Mx3eH+8xrNaDD+yIc+zXg/sFOh8AC1ABbIjlKjASECFOxcpFiIUdED2vF+zHHvWKGZO+h3m7EOFYIuIXDas9q/3v6gFQ/332GFGYTqxk5TXdiGHsM50nINFm/Iy0G8p4t17MCFA71tQy/xAbghXBiA5rpEMMu3/feYcQz+7evaOG6Ea8oXnMYt6N0jMjbf+WL+v7MgCQ3wd1joLYoFHvrgmdwJxOjh4mFoT9MJX3nTu3NBA4FS/gw7mU8+wZjocvNIC4HNcz5nmLXnyfpOspwCn2Y09mLGB2zVBWBQFU6Xsa/56rqOuZ1GYHAKL1aYluyI24sZLJElajIVQcPVCjI7B+yLohRk1WZraEGRm4HOwKPaoUDDpf/EqNnBw8RDHjkOZR0l6wmg9eFjREtGulqASUDEzpYHWTzb/LAqZFAaBJdRCmw3sh75PDaHYEIplBlRlEnJvnQAz1SMfBegB6Vsrl9fud+12Vo6oGFxTP7dL4O2lkwLGQd2evZutwSp/TiF+ZwQKQQddT4EP4hUQtRLCx/j1cKKNOe9Er8WkAoLxmtcSAELtiJTulG5K5voJaMeFrNWPCB8Sj6P4+83btlj8HMn4WLGZYzvAj2tl5UY2f35hK+Lai7d99977We6UXSFqGrtKakTfxZxHZUvZFbRcFgLgP1gCRDQgAho0Htkbt1wwopEJFFwcY4UjKig/P9nbSwcaq1dfxOK81g0bLeBzvB5gAOPbxIn+PypPexwplgMa+Pli2iGzv6npw02CmUgaUgfmcbqkDAKVOGiZkPqRmCJ2X1euUbqhEL3yENOpKV2S9gNOc8rn8icqhEV+hdhQtfQO6puNmRoRiVAdq1GJEiF/lYU1D9aiKjgidUUVK63N0C2FG3DZMKJ0yj/Em2dFlAtC458i+RJajc0OZTKzersTbMB3cJOy17jnTYKPMPhFLZ8phy2u2cjmZH49KnD6b8UR57Dgtg5KZagFP5esRKBVYjep64pza3V41XU/aZ387AFC/RvK9x4gm6YaqUeuccmoUzY9uiPQeMKE0/hSLX4hnw9SEiVJa26vWQYz7L9AjWbkZAEJhjb4IfQJrgMj6IhSX9r4FeFjLea3MyCdNPJeeeTsdgOzXMnOhvRMCCohBfOaasBAWGwic0OvZLuEwMBo8lqVQLp8ddDo7BT6IYTBD0qCSk4c8zJQD4NiPp2U8+PHAbLM43IbYrarNYipnMR5br1Be49fjMJxpup5cq94R4hbrsCzhrBiX9dJouVoilk3SDdkfCD2QRLLGesZnfE6cd2h0viyaHQaPoyPEMPxP6AxKUKWdeL9az4ROCb0DugqU054sELaU+cFv1ohL7hhbYMrvBGXnycyYozNM9IGwHq7zbxxzmgZAiB3TptB5letRvusVcACEHdaAd7KBmRxNtmSRDgPwgZla9JVLRI/puKwj3RcOf5sFMrZsYZlsGY+K0G9+v1QB5RYgAeCq8+vo507M5eMZD+8BEQzQ2YLB1jWt4zE7GvXrSVWfwM4AQFUlAwNKy5i07TGh6IYO1YBpxCink+SsdEOld2gcFGU9cePGpZ8G75GXMjQuqwMRwIgYJcVmKS231PE00isMgA5Ip/Rqqwwdp1I5CHzeVl6imiFB5n1G4OghzJAQFwAuR6sbXNzhALUa52sQdnfg96ypBvqHO+q4jIjvq/M5O1+/H/GYPGv0NJSXZ/f+2lOXoW6s9DXweOZUsgd6CmrisLAk4qGOaOtyyCYYpoP/juYo071y3TAd6pkF0Oma1Gun/vFcrAHdbKfpeMJ4qNPyZFadB4A4H+CyeDzoelLPr7IdAOisWirgaA+qURbdkNo4I7jzTmO6Nei446nxSy9h3QQWGhTWjLJZYUWY9B1BzTlbgIUYkKeUdgwS/ipmCRFNiMQ2GwpDcucxW7KTI6OwdRMVXySmQkepTlIBkh6l7ftCWY45igsAT0rZ7Aeo6PQ47nVTspKcjTL9e8DVIBAWgs4rz1v6svKxAVAillMKAAAK40lEQVSpC3scUz8491m0Qo9DvQK2MEosVtRTY2EU28mSa5QPjpgH37tMJwAEu+Q3wCbgRRm8O1YAgzoD0FgTqxUwN4hvCXCcND7Ws2J/UkpfVz1TDyiaNymrqbfUKVtDvC7aR+o8zBXfDgA0YwPwKM4I7w5hsUsARAfTmt9P/IfCiBpfknRKtk5sxTlWVqdMOhCZGq1I5Tp8pym7OXMcndbsCBbRMqSIbHQeFKLbldTqRtPBGL2jR2pZEh0rnYbq4LPLAYTWyrr05Zf/Vc/28OGnNS8Y5XMfAAWgweLO7nvxc9o8zjGOpYLpOAAU4LbI9UKAYxcHMM9ACEDg8LehDo44RUc3m+M6YTqprzh/xnGQY3g9AA9rFtchWGDGxzOY2djlATBBfAJg2BpwGsYjkcvMS3WDVUvH4jJR9Sw2CHix5Bp8XsZ5urjvy1wGAJq1tmnZWlrdUDxqzVLoTNZRhBEZrPqMyOABA/Iob69c6yncsQAdyiRFCL4rjNYOVASQ2NdlSJzDrYUZ0Vn4bKubwYHf6TCM+izuiLCniGC1W9+tCAeIWDzP+aMq//79e8UIXDZgA5NzL6d83wf3wj6egWvzHHgfs7g+ACgWntH75GGuY7mXcn0QmPOde0iZdYL+WbRy+ewLS8xxZjzci9cCBRXGXPRmiYCIgA2QBkialbqxiOXshAYggWCxSADJgAM4AUAAjIG7l6s5N8qWhxiWiTUwANDEqpn+Qxp7juI7SwU2KrjxgJCMhhHRExA3LGp4tN8fw4iigDYouaMeHT1XBzsQcNABEilNu6aDdob33EizpdNxT9YlWdcSyw+3ymc67rjFIhhAZQAyIJiluZN6vxlPy4D6ZYUxpA96or6WySBCkWOH35vqqyIsznoaG3aUM2fqUt/RvXFP3XPqRP2jLOvV2o7PPPUbgKrCLbZUhwDOViM+IUYRPGwmBPMzSySMgufnns14BDo614zHoMU1C9yaiw+Mp6mIGTYDAM1QWSOH9lr/WEakY2yet7iEGBLgmsSI6FxmNrbMAD6wBToDwOCFY2BGdoAcuS99sT7Do7KknwIaytSnOpRb9330z8z3MCJ3Yo4HbFh8Hz4uz6LSvKP3HzCgg7JlMVNpgYP7pDzKBmQojwVwgeXkexhOrsOtdK1YdRL/6lpWCMPiXH6r2zGDgd1Z/LRDIXFZjs2axngwy/Ms3G93bWGuuYs87MlNDR+m1cAAQNNqZ4bf2s7ok9J5+oxIvarENwAIRnSEyCblK4zIDKlVwsKIzDLazujrwF5ImJW5pswgBEt1cUZidCZ0qKMjRBiAAxHHv2fUzvbsxwTwDFpnHzv5CEAGEO4zLwNOq8w2w+Fefb/9EvsMh98DDoA0TAfxCsBhjW4HxmVR1vuTJsP6Lhgf1jXOhyENjKdf7xfxfQCgN1Wrzeid4kYZkXU77AsjssMi4gudW0rlxmoWgMHvxaZnd3w6LXqV1rrkuCZfD5FEjKlhKdVxS7ENcHmMDvhwPJ0VHx5G8ldZuCesTH3geJVzu8eE2fTLoXzvM+Bwzx0/wW4R9bl8ppr0FewwaBhUsCa2TMcgFN0OLgq4MQSsSJeKPiffqZNSLFdOZs+G22U7fB4Yz6nX8Vo7BgB6reqbfLKBpB3B+c5iRiT2ow5dYkcpZSVyiBkcypQPi8HZDgDCmzrl0HkBH5unY+I2M+IY9ld6EF2DyRZJKYv4xtJcutnaohaGVAfUPfjTuP+wMESiiGEuj+dpn2/cef19MBvKyP0ICqvz94+z4lxdvRFnvNGxdWBYikQssR3AA4UyIFP6mWYb9nOidBYwMa86DpycQ9nW5xiA1sV+rpWOCMYkq5YYEEsdW5/EIpvzmq/D5g3UwABAb6ASxxbR9rL6+TQjahkNjol2mAuwiG0IcIhFA5TsH2OWYCtb/GnMSujUHIMoV0ypOjkiTXQ+LUMqIBRuIG6kc7HPwDAeUHgUysoj+fjJyuex9aGdLgeIRUHe6FPEZOjX/YVjzT64TwEN4lGFqfAZpbIBBPM3vwFGBh2i1c10/IwwPYMW1iyAxeU0litM/YhcAi6Oo1zCYYrt6HOBTvfmxt1s9/fh80w1MADQTNV1/oPptNX5u0Vo30smuSvwACTEZPQZccpBsDAjB7zSe48EAmUpa/xqojMax4xyGToy4FGBnCqXYym7ey8GFBhOC0Dd30/KgvFUeQbKAFx+726n9dNiOGsWAdHVBAhzvs9tmI6YS4GBQAfxCqDgeFbABxEqS3Q8pMTAilXl6jjhikGoo9sBrFg4JjqilJPtwHhSExe3HQDo4up2tGSQYMxCLFmBQnVsW5sAGpiPxa2O3qeYjZiI2FGljJUSm2LNgOxhDCihr8lSjEjlsaVccmBzPUS6LsjwObcIsJTIp+3IUsdwnM/tnt89LgCh3t3dPfKZa7WAMqqLKiYiwDkRowQW+PAUE1KR9oBG5Io53Ncp50CZ2DmPLIMwnfIwl/Jdp4v94BUu3U7DmHJDHM9xY5cpzzD2+GHnTDUwANBM1fXmD3bHb8Ep3wES1iwjzEhAhCcxYMLxXWaEDw1sxyzHQBKgKCYk9gRgAUIGp1E2xPU4njL6YlndW4Fg7mr8tgBInbwYSHNI93POAlQKLApcON6/ODwCZTIsKVuLXpRjB0IUzF7retpPOEQ5CDbl4bdD+SjgJfQJfGTZEgCxdO8n5/vqw//LrIEBgC6ztsddCyrQWVpdESDRMpBiL/o+lRk1ohXgYt2RAaoFIMQ8+xWxj/JhWbCd/lLSGIxJx3BPtZzc6smH/mnNdyFJAybscIwUOzo7+SbQAHQAiW6oBR7fFrVgPQYytgUwpasBjLJfIBamI+BBXCsnQ7Gj6HG4BwBo0O1QE4u1DAC0WO+j2EcAo3trxT4EBBax2tixMCOdqC4Gm7FIRmQ+DClLAU6JVq35HpYEYyqdU4GMgaU+6kTO6YtqKW+WbYGH2AzbLP5oEHEqi1YXtEl6C7GXQiedUNAFAOGJrNSmBiX26xftb5mOywe8ohvqXrO9tq+b78N2fjUwAND86n78ldP7e79OY0aY7S1SoduB2ZjdRElsINFvOq72NddgU8DE+VJ+21uaffZazu+9WznX1y4Q2DolZiTmsyFQKXM6jCYlC1RK39N8txhmZTSspsIjOB5rVc43otUZHBP2c8qK1blGPg7b+dXAAEDzq/uZrgxQsI5bCkRKtBKbKfAZPap0ROVI2JjlxZRAmTCmAjCdH5GPywiTLmwBK4QRDQC1jCYXNFgBSIYkYrlgOQExzt1SjBbgQypbWNC4heNzzrjfh33zr4EBgOb/Dl7tDiaADycDS2ZAsU6dLhIQqgM5vnQ7VkbHOVAlNKCEj44LZXMRC0rhDcJC5LsjDZDACPEKsPDVHMfVAk4fSDiOfcWGxIKmLil06kHDj/OqgQGA5lXzb/i60xhS/1IFQI0yugBIiIOSloVP6t71+eL+jV6vBSBzHpL0V7L+M8CjD0wXd79DyRdVAwMAXVTNXna5UxhS/1aAmpYxQXwECMEc/Wgo6p/15r7XpZrrcdsGEqxlAqCybklh/aogeHLjb+7+hpIurwYGALq8ul6cK6nXAzKTdErzutGB0cyr5ud33QGA5lf3873yDIzpUm90YDSXWt3zvtgAQPN+A8P1hxq4wjUwANAVfvnDow81MO8aGABo3m9guP5QA1e4BgYAusIvf3j0oQbmXQP/D4x3fi3tlvu9AAAAAElFTkSuQmCC;" vertex="1" parent="qWI3q21pzQxJFVz8nfI1-42">
          <mxGeometry x="128.42000000000002" y="7.700000000000003" width="29.86" height="28.2" as="geometry" />
        </mxCell>
      </root>
    </mxGraphModel>
  </diagram>
</mxfile>
